<?xml version="1.0" standalone="no"?>
<!DOCTYPE svg PUBLIC "-//W3C//DTD SVG 1.1//EN" "http://www.w3.org/Graphics/SVG/1.1/DTD/svg11.dtd" >
<svg>
<metadata>
Created by FontForge 20090914 at Fri Aug  8 17:11:15 2014
 By www-data
ITC Charter&#194;&#174; was designed in 1987 by Matthew Carter as a first original typeface of Bitstream, Inc. It was licensed by the International Typeface Corporation in 1993. The face follows traditional mid-18th century Roman types in proportion and form, Pierre Simon Fournier&#194;&#146;s especially, but with some very non-traditional traits. It has narrow proportions for economical use of space, a generous x-height for best readability at small sizes, and sturdy, open letterforms. With square serifs and Old Style typeface structure ITC Charter is a highly legible text face for use on both low resolution printing devices and high resolution imagesetters. Cyrillic version was developed at ParaType in 2001 by Vladimir Yefimov.  
</metadata>
<defs>
<font id="CharterITCBlack" horiz-adv-x="500" >
  <font-face 
    font-family="CharterITCBlack"
    font-weight="400"
    font-stretch="normal"
    units-per-em="1000"
    panose-1="2 6 8 3 5 5 6 2 2 3"
    ascent="800"
    descent="-200"
    x-height="493"
    cap-height="671"
    bbox="-436 -312 1372 962"
    underline-thickness="50"
    underline-position="-50"
    stemh="64"
    stemv="167"
    unicode-range="U+0020-U+FB02"
  />
<missing-glyph horiz-adv-x="233" 
 />
    <glyph glyph-name="IJ" unicode="IJ" horiz-adv-x="940" 
d="M28 0v58l72 4l16 19v513l-16 15l-72 4v58h356v-58l-74 -4l-16 -15v-513l16 -19l74 -4v-58h-356zM570 671h349v-57l-62 -5l-17 -15v-325c0 -88 -14 -170 -70 -222c-58 -54 -143 -59 -194 -59c-30 0 -78 2 -154 24v192h92l23 -136l13 -13c31 1 59 14 75 31
c32 34 37 100 37 184v324l-17 15l-75 4v58z" />
    <glyph glyph-name="ij" unicode="ij" horiz-adv-x="660" 
d="M204 507h58v-436l13 -13l61 -5v-53h-312v53l59 5l12 13v329h-65v48zM88 648c0 51 41 92 92 92s92 -41 92 -92s-41 -92 -92 -92s-92 41 -92 92zM418 400h-74v48l191 59h50v-395c0 -66 -8 -151 -48 -220c-50 -86 -131 -109 -201 -109c-16 0 -58 2 -87 21
c-30 20 -36 48 -36 68c0 46 35 82 84 84l106 -124c12 65 15 121 15 192v376zM409 648c0 51 41 92 92 92s92 -41 92 -92s-41 -92 -92 -92s-92 41 -92 92z" />
    <glyph glyph-name="afii10017.var.accented" unicode="&#x410;`" horiz-adv-x="701" 
d="M278 676h144l232 -610l61 -8v-58h-324v58l68 5l8 13l-53 149h-213l-50 -148l10 -12l64 -7v-58h-241v58l65 4zM304 513l-79 -221h160zM394 890h154l-160 -156h-86z" />
    <glyph glyph-name="afii10022.var.accented" unicode="&#x415;`" horiz-adv-x="643" 
d="M28 0v58l67 4l16 19v513l-16 15l-67 4v58h550v-167h-86l-16 88l-14 11h-177v-221h105l15 14l10 72h71v-246h-71l-10 72l-15 14h-105v-240h208l14 16l16 110h86v-194h-581zM365 890h154l-160 -156h-86z" />
    <glyph glyph-name="afii10026.var.accented" unicode="&#x418;`" horiz-adv-x="834" 
d="M28 671h332v-58l-60 -4l-16 -15v-369l266 341v28l-16 15l-60 4v58h332v-58l-62 -4l-16 -15v-513l16 -19l62 -4v-58h-332v58l60 4l16 19v377l-266 -341v-36l16 -19l60 -4v-58h-332v58l61 4l17 19v513l-17 15l-61 4v58zM461 890h154l-160 -156h-86z" />
    <glyph glyph-name="afii10032.var.accented" unicode="&#x41e;`" horiz-adv-x="815" 
d="M411 685c80 0 159 -19 230 -71c93 -69 135 -173 135 -278c0 -98 -36 -198 -121 -268c-63 -52 -151 -85 -254 -85c-94 0 -177 28 -238 77c-66 53 -124 145 -124 278c0 72 18 191 124 272c55 42 138 75 248 75zM406 609c-33 0 -75 -12 -110 -58c-38 -51 -57 -131 -57 -219
c0 -103 26 -172 59 -215c34 -44 75 -58 111 -58c31 0 73 11 107 54c42 54 60 141 60 227c0 105 -26 170 -53 207c-40 55 -89 62 -117 62zM451 890h154l-160 -156h-86z" />
    <glyph glyph-name="afii10037.var.accented" unicode="&#x423;`" horiz-adv-x="670" 
d="M80 197h92l18 -119l14 -12h10c20 0 42 10 57 23c19 16 34 43 42 65l-255 449l-68 10v58h324v-58l-58 -4l-10 -15l153 -274l105 266l-8 18l-64 9v58h240v-58l-61 -9l-177 -424c-39 -95 -75 -132 -95 -149c-36 -30 -80 -45 -134 -45c-22 0 -65 3 -125 26v185zM379 890h154
l-160 -156h-86z" />
    <glyph glyph-name="afii10045.var.accented" unicode="&#x42b;`" horiz-adv-x="994" 
d="M28 671h341v-58l-67 -4l-17 -15v-190c34 4 76 6 106 6c52 0 117 -8 168 -49c26 -21 71 -69 71 -162c0 -78 -33 -123 -57 -145c-28 -25 -82 -54 -177 -54h-368v58l63 4l16 19v513l-16 15l-63 4v58zM285 328v-258c12 -1 28 -2 46 -2c31 0 69 4 96 33c24 26 29 63 29 94
c0 55 -14 91 -34 111c-24 25 -55 28 -82 28c-20 0 -38 -2 -55 -6zM634 0v58l60 4l16 19v513l-16 15l-60 4v58h332v-58l-62 -4l-16 -15v-513l16 -19l62 -4v-58h-332zM541 890h154l-160 -156h-86z" />
    <glyph glyph-name="afii10047.var.accented" unicode="&#x42d;`" horiz-adv-x="676" 
d="M176 304v74h265c-3 61 -28 131 -72 174c-34 33 -85 56 -146 56c-22 0 -40 -3 -52 -6l-17 -16l-24 -123h-92v181c68 26 138 40 210 40c107 0 175 -25 223 -55c122 -75 166 -196 166 -295c0 -80 -27 -177 -108 -253c-87 -82 -186 -95 -276 -95c-51 0 -128 6 -222 38v187h92
l25 -130l16 -15c7 -1 36 -4 59 -4c82 0 135 39 165 77c33 42 52 107 54 165h-266zM382 890h154l-160 -156h-86z" />
    <glyph glyph-name="afii10048.var.accented" unicode="&#x42e;`" horiz-adv-x="1160" 
d="M28 0v58l61 4l17 19v513l-17 15l-61 4v58h332v-58l-60 -4l-16 -15v-208h128c12 127 82 197 116 224c25 20 103 75 238 75c104 0 177 -35 224 -71c89 -68 131 -176 131 -279c0 -96 -36 -198 -118 -267c-61 -52 -147 -85 -247 -85c-89 0 -170 28 -228 77
c-49 42 -112 126 -117 258h-127v-237l16 -19l60 -4v-58h-332zM761 609c-45 0 -78 -21 -104 -58c-48 -68 -53 -168 -53 -219c0 -54 6 -146 55 -215c24 -34 56 -58 105 -58c28 0 69 9 102 54c51 69 55 184 55 227c0 58 -6 144 -50 208c-24 35 -58 61 -110 61zM624 890h154
l-160 -156h-86z" />
    <glyph glyph-name="afii10049.var.accented" unicode="&#x42f;`" horiz-adv-x="728" 
d="M700 671v-58l-62 -4l-16 -15v-513l16 -19l62 -4v-58h-338v58l66 4l16 19v210h-22c-22 0 -44 -2 -66 -21c-20 -18 -35 -53 -38 -60l-72 -171v-39h-250v58l66 4l18 19l53 110c28 58 47 80 53 87c16 18 43 38 81 48v2c-46 0 -96 15 -128 42c-24 20 -52 57 -52 119
c0 67 33 112 64 137c54 42 124 45 186 45h363zM444 359v244h-52c-30 0 -58 -3 -84 -25c-32 -28 -38 -67 -38 -95c0 -51 20 -81 41 -98c35 -28 81 -26 108 -26h25zM408 890h154l-160 -156h-86z" />
    <glyph glyph-name="afii10065.var.accented" unicode="&#x430;`" horiz-adv-x="619" 
d="M236 448v-104h-119c-33 0 -45 7 -49 11c-10 8 -11 19 -11 28c0 21 11 58 75 89c54 26 119 36 183 36c53 0 124 -8 171 -51c44 -41 44 -87 44 -161v-225l11 -13l55 -5v-53h-221l-14 56c-25 -16 -57 -34 -84 -46c-28 -12 -60 -23 -99 -23c-42 0 -80 15 -105 39
c-23 22 -40 58 -40 98c0 31 9 81 59 116c40 28 95 41 136 51c49 12 101 23 135 30v29c0 22 -4 55 -30 76c-23 19 -70 23 -97 22zM363 105v150c-58 -8 -86 -18 -93 -21c-24 -9 -58 -29 -58 -77c0 -28 13 -46 24 -55c13 -10 31 -16 53 -16c23 0 50 9 74 19zM356 748h149
l-161 -190h-86z" />
    <glyph glyph-name="afii10070.var.accented" unicode="&#x435;`" horiz-adv-x="585" 
d="M552 141v-92c-29 -14 -56 -25 -86 -34c-48 -15 -91 -23 -150 -23c-52 0 -130 8 -192 57c-43 33 -88 94 -88 197c0 109 49 170 87 201c40 33 100 61 190 61c73 0 144 -21 192 -82c44 -56 50 -124 50 -165v-14h-345c1 -41 15 -86 36 -112c33 -41 81 -47 118 -47
c41 0 76 7 111 19c24 8 54 22 77 34zM214 310h163c-2 76 -16 101 -22 109c-17 23 -39 26 -55 26c-23 0 -42 -5 -59 -26c-20 -25 -25 -61 -27 -109zM339 748h149l-161 -190h-86z" />
    <glyph glyph-name="afii10074.var.accented" unicode="&#x438;`" horiz-adv-x="710" 
d="M30 0v53l54 5l11 13v351l-11 13l-54 5v53h292v-53l-47 -5l-13 -13v-234l186 211v23l-13 13l-47 5v53h292v-53l-54 -5l-11 -13v-351l11 -13l54 -5v-53h-292v53l47 5l13 13v236l-186 -211v-25l13 -13l47 -5v-53h-292zM402 748h149l-161 -190h-86z" />
    <glyph glyph-name="afii10080.var.accented" unicode="&#x43e;`" horiz-adv-x="648" 
d="M333 508c55 0 129 -8 190 -57c55 -44 89 -110 89 -204c0 -84 -28 -144 -74 -186c-47 -43 -117 -69 -214 -69c-61 0 -150 10 -215 70c-49 45 -73 106 -73 185c0 78 22 147 82 197c38 32 105 64 215 64zM325 445c-35 0 -61 -15 -79 -52c-9 -18 -23 -57 -23 -143
c0 -79 11 -119 22 -142c13 -27 36 -53 80 -53c48 0 70 31 81 58c8 18 19 55 19 134c0 97 -17 136 -25 151c-15 28 -37 47 -75 47zM371 748h149l-161 -190h-86z" />
    <glyph glyph-name="afii10085.var.accented" unicode="&#x443;`" horiz-adv-x="567" 
d="M-8 493h300v-51l-51 -9l-9 -11l103 -258l99 258l-10 11l-54 9v51h213v-51l-55 -10l-194 -453c-16 -37 -37 -75 -67 -111c-51 -61 -112 -91 -162 -91c-30 0 -53 12 -70 28c-23 22 -29 47 -29 66s6 43 28 62c21 19 47 25 53 26l85 -81c40 26 65 66 79 94l-198 458l-61 12
v51zM330 748h149l-161 -190h-86z" />
    <glyph glyph-name="afii10093.var.accented" unicode="&#x44b;`" horiz-adv-x="880" 
d="M30 0v53l54 5l11 13v351l-11 13l-54 5v53h307v-53l-61 -5l-14 -13v-126c19 2 58 6 89 6c37 0 107 -4 153 -43c20 -17 50 -52 50 -112c0 -49 -19 -89 -64 -116c-44 -27 -99 -31 -140 -31h-320zM262 232v-162c15 -4 30 -6 48 -6c20 0 49 2 68 22c13 15 20 39 20 64
c0 38 -14 59 -27 70c-18 15 -40 18 -59 18c-17 0 -34 -2 -50 -6zM563 0v53l42 5l13 13v351l-13 13l-42 5v53h287v-53l-54 -5l-11 -13v-351l11 -13l54 -5v-53h-287zM487 748h149l-161 -190h-86z" />
    <glyph glyph-name="afii10095.var.accented" unicode="&#x44d;`" horiz-adv-x="540" 
d="M150 286h169c0 34 -9 88 -31 118s-50 38 -79 38c-13 0 -37 -3 -65 -20l-13 -14l-11 -79h-80v153c74 16 121 26 178 26c72 0 140 -13 197 -61c38 -32 89 -94 89 -200c0 -103 -49 -164 -93 -197c-54 -41 -138 -62 -201 -62c-19 0 -53 3 -72 5c-50 6 -99 20 -110 23v167h80
l11 -91l11 -13c26 -19 49 -25 71 -25c52 0 82 30 96 56c16 29 24 74 22 112h-169v64zM317 748h149l-161 -190h-86z" />
    <glyph glyph-name="afii10096.var.accented" unicode="&#x44e;`" horiz-adv-x="940" 
d="M30 0v53l54 5l11 13v351l-11 13l-54 5v53h287v-53l-42 -5l-13 -13v-132h78c7 71 41 123 77 154s100 64 208 64c55 0 129 -8 190 -57c55 -44 89 -110 89 -204c0 -84 -28 -144 -74 -186c-37 -34 -103 -69 -214 -69c-59 0 -145 10 -208 70c-31 30 -67 85 -69 164h-77v-155
l13 -13l42 -5v-53h-287zM617 445c-35 0 -61 -15 -79 -52c-9 -18 -23 -57 -23 -143c0 -79 11 -119 22 -142c13 -27 36 -53 80 -53c48 0 70 31 81 58c8 18 19 55 19 134c0 97 -17 136 -25 151c-15 28 -37 47 -75 47zM517 748h149l-161 -190h-86z" />
    <glyph glyph-name="afii10097.var.accented" unicode="&#x44f;`" horiz-adv-x="620" 
d="M590 493v-53l-54 -5l-11 -13v-351l11 -13l54 -5v-53h-297v53l51 5l14 13v125h-30c-13 0 -28 -1 -42 -12c-9 -7 -18 -21 -24 -34l-45 -105v-45h-227v53l43 5l16 12l44 85c12 23 34 60 83 67v2c-29 2 -64 14 -87 33c-19 16 -42 46 -42 95c0 47 21 85 50 108
c38 30 86 33 132 33h361zM358 264v160c-20 4 -37 5 -54 5c-21 0 -41 -2 -59 -15c-26 -19 -31 -46 -31 -71c0 -22 4 -49 33 -68c21 -14 43 -15 64 -15s34 1 47 4zM357 748h149l-161 -190h-86z" />
    <glyph glyph-name="fi" unicode="fi" horiz-adv-x="707" 
d="M397 587l-121 106c-13 -28 -17 -62 -17 -165v-47h243l55 26h59v-436l12 -13l61 -5v-53h-302v53l50 5l14 13v336h-192v-336l17 -13l55 -5v-53h-296v53l47 5l13 13v336h-70v46l70 44c3 144 112 251 257 251c61 0 95 -26 95 -71c0 -34 -13 -58 -50 -90zM541 739
c50 0 87 -36 87 -85c0 -50 -37 -88 -88 -88c-49 0 -85 37 -85 86c0 51 35 87 86 87z" />
    <glyph glyph-name="fl" unicode="fl" horiz-adv-x="714" 
d="M569 745h51v-674l14 -13l62 -5v-53h-314v53l59 5l15 13v562l-60 -47l-120 107c-14 -33 -17 -63 -17 -157v-55h136v-74h-136v-336l17 -13l55 -5v-53h-296v53l47 5l13 13v336h-70v46l70 44c2 68 19 116 58 161c48 56 122 90 199 90c52 0 80 -14 106 -52z" />
    <glyph glyph-name=".notdef" horiz-adv-x="233" 
 />
    <glyph glyph-name=".notdef" horiz-adv-x="233" 
 />
    <glyph glyph-name="space" unicode=" " horiz-adv-x="233" 
 />
    <glyph glyph-name="space" unicode="&#xa0;" horiz-adv-x="233" 
 />
    <glyph glyph-name="exclam" unicode="!" horiz-adv-x="424" 
d="M184 224l-65 329c-5 25 -7 40 -7 51c0 49 41 83 100 83c58 0 100 -35 100 -83c0 -10 -2 -27 -6 -47l-65 -333h-57zM212 184c52 0 95 -44 95 -96s-43 -94 -96 -94c-52 0 -94 42 -94 94c0 54 42 96 95 96z" />
    <glyph glyph-name="quotedbl" unicode="&#x22;" horiz-adv-x="637" 
d="M250 413h-20l-42 226c-1 6 -2 13 -2 18c0 36 21 58 54 58c32 0 55 -23 55 -53c0 -6 -1 -13 -3 -23zM420 413h-22l-41 226c-2 10 -3 18 -3 21c0 31 23 55 53 55c35 0 56 -22 56 -57c0 -6 -1 -13 -2 -19z" />
    <glyph glyph-name="numbersign" unicode="#" horiz-adv-x="769" 
d="M353 710l80 -18l-73 -206h121l75 223l80 -17l-73 -206h134v-76h-159l-42 -123h159v-76h-185l-77 -234l-80 16l71 218h-114l-80 -234l-80 16l75 218h-135v76h161l39 123h-150v76h177zM294 287h117l42 123h-119z" />
    <glyph glyph-name="dollar" unicode="$" horiz-adv-x="637" 
d="M291 741h65v-74c73 -5 127 -15 190 -33v-176h-86l-19 118c-32 12 -56 18 -85 20v-182l21 -6c150 -44 209 -99 209 -196c0 -67 -32 -126 -90 -163c-34 -22 -93 -43 -135 -46l-12 -1v-104h-67v105c-85 3 -146 13 -218 34v177h88l20 -115c35 -17 69 -25 110 -27v194l-16 5
c-82 27 -110 40 -146 71c-38 32 -57 75 -57 128c0 111 88 187 228 196v75zM291 430v164c-51 -10 -76 -36 -76 -80s20 -66 76 -84zM349 253v-176c53 8 82 40 82 90c0 45 -23 70 -82 86z" />
    <glyph glyph-name="percent" unicode="%" horiz-adv-x="963" 
d="M225 683c114 0 187 -82 187 -210c0 -129 -72 -209 -190 -209c-117 0 -189 80 -189 208c0 132 72 211 192 211zM218 630c-41 0 -63 -54 -63 -156c0 -103 21 -156 63 -156c43 0 66 54 66 156c0 101 -23 156 -66 156zM650 671h81l-428 -671h-80zM743 407
c114 0 187 -81 187 -209c0 -130 -72 -210 -189 -210s-189 80 -189 210s72 209 191 209zM737 354c-41 0 -63 -54 -63 -156c0 -103 21 -156 63 -156c43 0 65 53 65 156c0 102 -23 156 -65 156z" />
    <glyph glyph-name="ampersand" unicode="&#x26;" horiz-adv-x="822" 
d="M411 365l152 -145c28 29 44 60 58 109l-8 16l-54 8v52h223v-52l-73 -15c-27 -69 -55 -115 -100 -165l107 -110l79 -7v-56h-251v23l-44 49c-74 -59 -140 -84 -226 -84c-131 0 -221 80 -221 197c0 88 49 140 153 165c-71 48 -103 100 -103 163c0 105 95 172 242 172
c137 0 225 -63 225 -162c0 -51 -25 -96 -68 -125c-25 -16 -47 -24 -91 -33zM368 401c38 49 49 74 49 116c0 62 -29 101 -74 101c-42 0 -74 -30 -74 -69c0 -42 24 -78 99 -148zM454 115l-204 199c-24 -27 -33 -49 -33 -82c0 -79 67 -143 150 -143c32 0 55 7 87 26z" />
    <glyph glyph-name="quotesingle" unicode="'" horiz-adv-x="424" 
d="M230 413h-21l-42 226c-1 6 -2 12 -2 19c0 36 21 57 57 57c32 0 51 -23 51 -63c0 -5 0 -9 -1 -14z" />
    <glyph glyph-name="parenleft" unicode="(" horiz-adv-x="440" 
d="M403 718v-60c-119 -12 -168 -121 -168 -372c0 -149 19 -250 59 -307c28 -40 58 -56 109 -61v-60c-207 -1 -323 153 -323 429c0 203 61 339 180 400c43 22 80 30 143 31z" />
    <glyph glyph-name="parenright" unicode=")" horiz-adv-x="441" 
d="M37 -142v60c119 11 168 120 168 374c0 148 -20 248 -59 305c-28 40 -57 56 -109 61v60c209 -1 324 -153 324 -429c0 -192 -57 -328 -164 -391c-47 -28 -91 -39 -160 -40z" />
    <glyph glyph-name="asterisk" unicode="*" 
d="M249 718l56 -61l-46 -125h-19l-47 125zM371 606l74 -34l-40 -72l-133 6l-5 18zM266 494l110 -74l-9 -81l-80 16l-36 128zM232 494l14 -11l-36 -128l-80 -16l-9 82zM127 606l104 -83l-6 -17l-132 -5l-41 71z" />
    <glyph glyph-name="plus" unicode="+" horiz-adv-x="833" 
d="M458 596v-257h251v-82h-251v-257h-83v257h-251v82h251v257h83z" />
    <glyph glyph-name="comma" unicode="," horiz-adv-x="322" 
d="M31 -182v59c76 14 113 57 112 130h-60c-18 18 -25 36 -25 63c0 50 31 82 81 82c63 0 103 -45 103 -118c0 -114 -86 -202 -211 -216z" />
    <glyph glyph-name="hyphen" unicode="-" horiz-adv-x="283" 
d="M0 306h283v-130h-283v130z" />
    <glyph glyph-name="period" unicode="." horiz-adv-x="322" 
d="M161 184c52 0 95 -44 95 -96c0 -51 -43 -94 -96 -94c-52 0 -94 42 -94 94c0 54 42 96 95 96z" />
    <glyph glyph-name="slash" unicode="/" horiz-adv-x="590" 
d="M598 671l-428 -764h-90l428 764h90z" />
    <glyph glyph-name="zero" unicode="0" horiz-adv-x="637" 
d="M320 683c172 0 280 -134 280 -347c0 -215 -108 -348 -283 -348c-173 0 -280 132 -280 346c0 219 105 349 283 349zM317 617c-67 0 -98 -91 -98 -284s31 -279 99 -279c70 0 100 86 100 282c0 195 -31 281 -101 281z" />
    <glyph glyph-name="one" unicode="1" horiz-adv-x="637" 
d="M332 678h103v-601l11 -15l110 -4v-58h-424v58l116 6l12 17v466l-13 11l-143 -19v60z" />
    <glyph glyph-name="two" unicode="2" horiz-adv-x="637" 
d="M205 125h275l18 90h79v-215h-525v96c126 93 154 116 203 164c83 82 117 147 117 223s-48 124 -125 124c-9 0 -13 0 -25 -1v-151c-37 -16 -59 -21 -84 -21c-55 0 -90 33 -90 84c0 97 104 165 253 165c156 0 255 -76 255 -197c0 -125 -113 -241 -351 -361z" />
    <glyph glyph-name="three" unicode="3" horiz-adv-x="637" 
d="M214 610v-140c-26 -12 -45 -17 -70 -17c-56 0 -93 32 -93 82c0 86 105 148 251 148c148 0 244 -66 244 -167c0 -57 -31 -103 -91 -132c-24 -12 -47 -19 -95 -29c75 -8 113 -18 148 -43c42 -30 64 -72 64 -123c0 -120 -121 -201 -301 -201c-145 0 -240 54 -240 136
c0 51 36 85 89 85c18 0 34 -3 58 -10l34 -131c29 -6 42 -8 58 -8c70 0 119 50 119 121c0 75 -54 122 -141 122c-25 0 -46 -2 -69 -8v87c17 -2 26 -3 40 -3c92 0 146 43 146 115c0 51 -28 91 -75 107c-22 8 -34 9 -76 9z" />
    <glyph glyph-name="four" unicode="4" horiz-adv-x="637" 
d="M354 677h140v-417h118v-94h-118v-191h-160v191h-313v99zM334 514l-206 -254h206v254z" />
    <glyph glyph-name="five" unicode="5" horiz-adv-x="637" 
d="M90 671h444v-129h-344v-139c63 21 100 28 150 28c143 0 239 -82 239 -204c0 -145 -123 -239 -311 -239c-134 0 -224 53 -224 133c0 52 40 91 95 91c18 0 33 -3 62 -12l30 -140c14 -2 21 -2 29 -2c82 0 143 60 143 140c0 82 -68 136 -174 136c-42 0 -83 -7 -139 -24v361z
" />
    <glyph glyph-name="six" unicode="6" horiz-adv-x="637" 
d="M508 714v-89l-60 8c-3 1 -5 1 -6 1c-20 0 -72 -17 -104 -34c-57 -31 -97 -97 -111 -183c58 31 102 44 154 44c128 0 222 -98 222 -231c0 -146 -112 -244 -278 -244c-180 0 -284 114 -284 311c0 180 94 327 248 386c63 24 110 31 219 31zM217 353c-2 -35 -2 -48 -2 -63
c0 -151 39 -234 111 -234c61 0 98 58 98 153c0 107 -41 153 -137 153c-26 0 -45 -2 -70 -9z" />
    <glyph glyph-name="seven" unicode="7" horiz-adv-x="637" 
d="M79 671h519v-90l-331 -578v-33h-134l332 555h-284l-16 -94h-86v240z" />
    <glyph glyph-name="eight" unicode="8" horiz-adv-x="637" 
d="M437 362c49 -20 67 -30 92 -48c40 -30 61 -73 61 -128c0 -125 -106 -200 -280 -200c-166 0 -274 76 -274 192c0 79 45 127 139 148c-77 37 -112 86 -112 158c0 122 103 200 266 200c143 0 236 -69 236 -175c0 -68 -36 -109 -128 -147zM383 389c22 38 29 61 29 96
c0 77 -40 129 -99 129c-47 0 -79 -35 -79 -84c0 -56 35 -90 149 -141zM228 300c-24 -48 -32 -72 -32 -104c0 -78 56 -140 127 -140c57 0 102 39 102 88c0 30 -17 57 -51 81c-32 22 -58 36 -146 75z" />
    <glyph glyph-name="nine" unicode="9" horiz-adv-x="637" 
d="M133 -56l-33 86h56c132 51 206 120 242 224c-59 -29 -94 -39 -142 -39c-129 0 -220 91 -220 219c0 149 114 250 283 250s279 -108 279 -274c0 -157 -90 -294 -253 -385c-61 -34 -124 -58 -212 -81zM414 322c5 39 7 59 7 91c0 128 -38 201 -105 201
c-61 0 -101 -60 -101 -150c0 -98 52 -156 140 -156c21 0 34 3 59 14z" />
    <glyph glyph-name="colon" unicode=":" horiz-adv-x="387" 
d="M194 496c52 0 94 -43 94 -96c0 -52 -43 -94 -95 -94s-95 42 -95 94c0 54 42 96 96 96zM194 184c51 0 94 -43 94 -96c0 -52 -42 -94 -95 -94c-52 0 -95 42 -95 94c0 54 42 96 96 96z" />
    <glyph glyph-name="semicolon" unicode=";" horiz-adv-x="387" 
d="M183 496c52 0 94 -43 94 -95c0 -53 -43 -95 -95 -95c-53 0 -95 42 -95 94c0 54 42 96 96 96zM63 -182v59c76 14 113 57 112 130h-60c-18 18 -25 36 -25 63c0 50 31 82 81 82c63 0 103 -45 103 -118c0 -70 -35 -135 -94 -175c-31 -21 -64 -32 -117 -41z" />
    <glyph glyph-name="semicolon" unicode="&#x37e;" horiz-adv-x="387" 
d="M183 496c52 0 94 -43 94 -95c0 -53 -43 -95 -95 -95c-53 0 -95 42 -95 94c0 54 42 96 96 96zM63 -182v59c76 14 113 57 112 130h-60c-18 18 -25 36 -25 63c0 50 31 82 81 82c63 0 103 -45 103 -118c0 -70 -35 -135 -94 -175c-31 -21 -64 -32 -117 -41z" />
    <glyph glyph-name="less" unicode="&#x3c;" horiz-adv-x="833" 
d="M704 593v-124l-417 -171l417 -170v-124l-575 237v114z" />
    <glyph glyph-name="equal" unicode="=" horiz-adv-x="833" 
d="M709 440v-82h-585v82h585zM709 238v-82h-585v82h585z" />
    <glyph glyph-name="greater" unicode="&#x3e;" horiz-adv-x="833" 
d="M129 593l575 -238v-114l-575 -237v124l417 170l-417 171v124z" />
    <glyph glyph-name="question" unicode="?" horiz-adv-x="519" 
d="M236 279v-64h-78v124c107 38 151 85 151 160c0 73 -42 110 -129 114l-52 -127c-19 -1 -21 -1 -28 -1c-52 0 -83 26 -83 70c0 77 86 129 215 129c154 0 249 -71 249 -185c0 -108 -76 -176 -245 -220zM201 184c52 0 94 -43 94 -96c0 -52 -42 -94 -95 -94
c-52 0 -95 42 -95 94c0 54 42 96 96 96z" />
    <glyph glyph-name="at" unicode="@" horiz-adv-x="942" 
d="M628 488h82c-10 -26 -12 -35 -26 -101l-36 -168c-8 -38 -10 -48 -10 -61c0 -20 13 -34 33 -34c71 0 144 124 144 245c0 162 -113 268 -286 268c-213 0 -371 -161 -371 -379c0 -210 138 -350 345 -350c88 0 164 21 258 72l20 -45c-118 -62 -208 -88 -305 -88
c-111 0 -213 40 -288 113c-74 73 -112 168 -112 284c0 256 195 449 454 449c206 0 341 -127 341 -321c0 -97 -35 -186 -96 -246c-47 -47 -105 -73 -159 -73c-52 0 -78 23 -83 76c-61 -55 -95 -72 -143 -72c-77 0 -127 64 -127 161c0 147 115 274 248 274c32 0 57 -7 98 -27z
M569 384l-32 50c-11 1 -16 1 -21 1c-72 0 -129 -87 -129 -197c0 -65 23 -102 64 -102c30 0 53 16 86 59z" />
    <glyph glyph-name="A" unicode="A" horiz-adv-x="701" 
d="M278 676h144l232 -610l61 -8v-58h-324v58l68 5l8 13l-53 149h-213l-50 -148l10 -12l64 -7v-58h-241v58l65 4zM304 513l-79 -221h160z" />
    <glyph glyph-name="B" unicode="B" horiz-adv-x="686" 
d="M28 671h359c59 0 122 -9 163 -36c40 -26 62 -65 62 -120c0 -36 -9 -64 -36 -94c-34 -38 -73 -55 -114 -61v-2c27 -1 88 -8 131 -40c27 -20 56 -53 56 -125c0 -68 -27 -113 -69 -144c-63 -47 -153 -49 -185 -49h-367v58l63 4l16 19v513l-16 15l-63 4v58zM281 607v-227
c66 -6 105 12 124 34c17 20 25 52 25 84c0 27 -5 62 -33 85c-26 21 -63 24 -90 24h-26zM281 312v-247c53 -4 118 -4 155 37c26 29 28 68 28 87c0 37 -9 76 -47 100c-35 22 -88 23 -104 23h-32z" />
    <glyph glyph-name="C" unicode="C" horiz-adv-x="669" 
d="M638 211v-187c-90 -31 -162 -38 -215 -38c-90 0 -189 13 -276 95c-81 76 -108 173 -108 253c0 99 44 220 166 295c48 30 116 55 223 55c72 0 142 -14 210 -40v-181h-92l-24 123l-17 16c-12 3 -30 6 -52 6c-80 0 -127 -39 -144 -56c-47 -46 -75 -122 -75 -215
c0 -78 19 -149 57 -198c29 -36 81 -77 162 -77c18 0 41 3 52 4l16 15l25 130h92z" />
    <glyph glyph-name="D" unicode="D" horiz-adv-x="782" 
d="M28 671h348c77 0 177 -11 257 -76c79 -63 110 -154 110 -261c0 -129 -48 -202 -94 -245c-41 -38 -123 -89 -273 -89h-348v58l67 4l16 19v513l-16 15l-67 4v58zM289 67h41c63 0 121 14 164 72c44 59 49 143 49 199c0 46 -3 133 -48 193c-49 65 -116 73 -165 73h-41v-537z
" />
    <glyph glyph-name="E" unicode="E" horiz-adv-x="643" 
d="M28 0v58l67 4l16 19v513l-16 15l-67 4v58h550v-167h-86l-16 88l-14 11h-177v-221h105l15 14l10 72h71v-246h-71l-10 72l-15 14h-105v-240h208l14 16l16 110h86v-194h-581z" />
    <glyph glyph-name="F" unicode="F" horiz-adv-x="589" 
d="M28 0v58l64 4l16 19v513l-16 15l-64 4v58h546v-180h-86l-16 100l-14 12h-172v-237h114l14 13l10 72h71v-245h-71l-10 72l-14 14h-114v-211l19 -19l72 -4v-58h-349z" />
    <glyph glyph-name="G" unicode="G" horiz-adv-x="766" 
d="M397 338h345v-57l-63 -5l-16 -14v-228c-65 -25 -147 -46 -238 -46c-74 0 -169 12 -252 71c-119 86 -134 212 -134 277c0 132 60 222 136 275c57 40 139 70 255 70c75 0 156 -13 233 -36v-182h-92l-22 121l-18 16c-27 6 -40 9 -61 9c-83 0 -138 -33 -171 -67
c-36 -37 -71 -101 -71 -204c0 -121 48 -217 147 -258c35 -14 75 -21 117 -19v201l-17 14l-78 5v57z" />
    <glyph glyph-name="H" unicode="H" horiz-adv-x="819" 
d="M28 671h332v-58l-60 -4l-16 -15v-205h251v205l-16 15l-60 4v58h332v-58l-62 -4l-16 -15v-513l16 -19l62 -4v-58h-332v58l60 4l16 19v234h-251v-234l16 -19l60 -4v-58h-332v58l61 4l17 19v513l-17 15l-61 4v58z" />
    <glyph glyph-name="I" unicode="I" horiz-adv-x="412" 
d="M28 0v58l72 4l16 19v513l-16 15l-72 4v58h356v-58l-74 -4l-16 -15v-513l16 -19l74 -4v-58h-356z" />
    <glyph glyph-name="J" unicode="J" horiz-adv-x="530" 
d="M160 671h349v-57l-62 -5l-17 -15v-325c0 -88 -14 -170 -70 -222c-58 -54 -143 -59 -194 -59c-30 0 -78 2 -154 24v192h92l23 -136l13 -13c31 1 59 14 75 31c32 34 37 100 37 184v324l-17 15l-75 4v58z" />
    <glyph glyph-name="K" unicode="K" horiz-adv-x="730" 
d="M28 0v58l67 4l16 19v513l-16 15l-67 4v58h335v-58l-58 -4l-16 -15v-251h22l222 253l-5 12l-60 5v58h250v-58l-76 -5l-179 -204l209 -340l74 -6v-58h-257v39l-153 250h-47v-208l16 -19l58 -4v-58h-335z" />
    <glyph glyph-name="L" unicode="L" horiz-adv-x="599" 
d="M28 0v58l60 4l19 19v513l-13 15l-66 4v58h341v-58l-67 -4l-17 -15v-526h169l12 16l16 127h98v-211h-552z" />
    <glyph glyph-name="M" unicode="M" horiz-adv-x="973" 
d="M23 0v58l70 4l12 19v513l-12 15l-70 4v58h323v-29l138 -419l137 420v28h324v-58l-75 -4l-12 -15v-513l12 -19l75 -4v-58h-324v58l62 4l9 19v516h-2l-196 -597h-101l-196 597h-2v-516l12 -19l66 -4v-58h-250z" />
    <glyph glyph-name="N" unicode="N" horiz-adv-x="779" 
d="M23 0v58l61 4l19 19v513l-13 15l-67 4v58h282v-27l287 -445v395l-18 15l-65 4v58h253v-58l-59 -4l-19 -15v-594h-159l-331 510v-429l14 -19l67 -6v-56h-252z" />
    <glyph glyph-name="O" unicode="O" horiz-adv-x="815" 
d="M411 685c80 0 159 -19 230 -71c93 -69 135 -173 135 -278c0 -98 -36 -198 -121 -268c-63 -52 -151 -85 -254 -85c-94 0 -177 28 -238 77c-66 53 -124 145 -124 278c0 72 18 191 124 272c55 42 138 75 248 75zM406 609c-33 0 -75 -12 -110 -58c-38 -51 -57 -131 -57 -219
c0 -103 26 -172 59 -215c34 -44 75 -58 111 -58c31 0 73 11 107 54c42 54 60 141 60 227c0 105 -26 170 -53 207c-40 55 -89 62 -117 62z" />
    <glyph glyph-name="P" unicode="P" horiz-adv-x="649" 
d="M28 0v58l64 4l19 19v513l-13 15l-70 4v58h324c113 0 166 -23 189 -36c67 -37 91 -95 91 -167c0 -91 -39 -141 -70 -167c-51 -44 -132 -61 -214 -61c-20 0 -41 1 -59 3v-162l15 -19l74 -4v-58h-350zM289 603v-292h8c31 0 75 3 104 28c28 23 43 68 43 119
c0 36 -8 74 -24 99c-15 24 -43 46 -90 46h-41z" />
    <glyph glyph-name="Q" unicode="Q" horiz-adv-x="815" 
d="M741 -95v-60c-87 -22 -157 -26 -198 -26c-80 0 -164 11 -204 84c-13 24 -19 51 -19 95c-83 12 -137 50 -158 66c-54 42 -123 126 -123 274c0 136 59 222 124 272c55 42 138 75 248 75c80 0 159 -19 230 -71c107 -80 135 -196 135 -280c0 -79 -27 -197 -129 -271
c-40 -29 -87 -48 -136 -57c1 -23 7 -50 18 -67c26 -41 70 -45 115 -45c24 0 39 0 97 11zM406 609c-33 0 -75 -12 -110 -58c-38 -51 -57 -131 -57 -219c0 -103 26 -172 59 -215c34 -44 75 -58 111 -58c31 0 73 11 107 54c42 54 60 141 60 227c0 105 -26 170 -53 207
c-40 55 -89 62 -117 62z" />
    <glyph glyph-name="R" unicode="R" horiz-adv-x="736" 
d="M28 671h367c53 0 109 -5 157 -31c37 -20 80 -58 80 -136c0 -49 -17 -101 -76 -135c-32 -18 -77 -31 -112 -35v-2c40 -5 77 -22 100 -43c37 -33 57 -89 79 -147c9 -24 21 -53 45 -68c20 -13 62 -17 87 -15v-59c-16 -1 -76 -6 -116 -6c-39 0 -90 4 -126 22
c-46 23 -59 56 -64 71c-9 25 -12 39 -29 94c-33 103 -77 110 -129 110h-9v-210l16 -19l66 -4v-58h-336v58l64 4l16 19v513l-16 15l-64 4v58zM282 603v-244c51 -1 97 2 130 31c30 26 37 61 37 93c0 35 -9 67 -36 91c-29 26 -61 29 -85 29h-46z" />
    <glyph glyph-name="S" unicode="S" horiz-adv-x="616" 
d="M59 24v185h92l24 -123l14 -15c20 -3 50 -5 71 -5c27 0 57 3 86 18c27 14 45 36 45 73c0 16 -4 30 -15 45c-21 28 -57 41 -94 56l-50 20c-26 10 -85 37 -121 77c-29 33 -44 72 -44 119c0 60 22 115 77 157c61 46 135 53 192 53c29 0 99 -3 205 -40v-169h-92l-21 111
l-12 12c-19 8 -33 9 -59 9c-32 0 -60 -3 -87 -22c-20 -14 -35 -35 -35 -69c0 -32 17 -52 47 -70c18 -11 38 -18 81 -37l46 -20c39 -17 79 -37 109 -67c20 -21 44 -55 44 -118c0 -73 -33 -119 -60 -145c-31 -29 -97 -73 -228 -73c-27 0 -102 3 -215 38z" />
    <glyph glyph-name="T" unicode="T" horiz-adv-x="641" 
d="M13 671h614v-201h-84l-21 121l-18 12h-95v-522l19 -19l67 -4v-58h-350v58l67 4l19 19v522h-97l-17 -12l-20 -121h-84v201z" />
    <glyph glyph-name="U" unicode="U" horiz-adv-x="760" 
d="M21 671h338v-58l-65 -4l-12 -15v-337c0 -28 2 -96 33 -132s83 -41 117 -41c36 0 76 5 104 35c23 24 38 69 38 157v318l-12 15l-71 4v58h252v-58l-64 -4l-13 -15v-331c0 -79 -12 -152 -60 -205c-37 -41 -98 -72 -217 -72c-74 0 -173 13 -233 81c-52 60 -52 126 -52 206
v321l-12 15l-71 4v58z" />
    <glyph glyph-name="V" unicode="V" horiz-adv-x="691" 
d="M-20 671h327v-58l-61 -4l-11 -15l153 -413l151 413l-12 15l-63 4v58h247v-58l-71 -14l-225 -599h-134l-230 602l-71 11v58z" />
    <glyph glyph-name="W" unicode="W" horiz-adv-x="1014" 
d="M234 0l-165 600l-66 13v58h309v-56l-63 -7l-8 -14l100 -372l135 449h136l139 -460l94 376l-12 14l-68 12v58h236v-58l-63 -14l-154 -599h-126l-150 482l-148 -482h-126z" />
    <glyph glyph-name="X" unicode="X" horiz-adv-x="713" 
d="M16 671h335v-58l-63 -4l-8 -11l104 -168l125 164l-9 15l-53 4v58h250v-58l-63 -4l-197 -242l200 -299l68 -10v-58h-337v58l60 4l7 15l-110 174l-131 -174l6 -15l64 -4v-58h-257v58l65 4l197 253l-190 294l-63 4v58z" />
    <glyph glyph-name="Y" unicode="Y" horiz-adv-x="671" 
d="M-10 671h324v-58l-58 -4l-10 -15l130 -234l125 226l-8 18l-60 9v58h240v-58l-61 -9l-182 -312v-214l16 -15l71 -5v-58h-349v58l68 5l16 15v177l-194 348l-68 10v58z" />
    <glyph glyph-name="Z" unicode="Z" horiz-adv-x="634" 
d="M59 671h517v-69l-337 -534h223l12 14l17 126h92v-208h-539v69l337 534h-198l-19 -13l-17 -118h-88v199z" />
    <glyph glyph-name="bracketleft" unicode="[" horiz-adv-x="495" 
d="M139 708h312v-68h-157v-704h157v-68h-312v840z" />
    <glyph glyph-name="backslash" unicode="\" horiz-adv-x="590" 
d="M-8 671h90l428 -764h-90z" />
    <glyph glyph-name="bracketright" unicode="]" horiz-adv-x="495" 
d="M44 708h312v-840h-312v68h157v704h-157v68z" />
    <glyph glyph-name="asciicircum" unicode="^" horiz-adv-x="1000" 
d="M436 714h127l234 -276h-59l-239 170l-239 -170h-59z" />
    <glyph glyph-name="underscore" unicode="_" 
d="M0 -52h500v-117h-500v117z" />
    <glyph glyph-name="grave" unicode="`" 
d="M67 748h149l98 -190h-86z" />
    <glyph glyph-name="a" unicode="a" horiz-adv-x="619" 
d="M236 448v-104h-119c-33 0 -45 7 -49 11c-10 8 -11 19 -11 28c0 21 11 58 75 89c54 26 119 36 183 36c53 0 124 -8 171 -51c44 -41 44 -87 44 -161v-225l11 -13l55 -5v-53h-221l-14 56c-25 -16 -57 -34 -84 -46c-28 -12 -60 -23 -99 -23c-42 0 -80 15 -105 39
c-23 22 -40 58 -40 98c0 31 9 81 59 116c40 28 95 41 136 51c49 12 101 23 135 30v29c0 22 -4 55 -30 76c-23 19 -70 23 -97 22zM363 105v150c-58 -8 -86 -18 -93 -21c-24 -9 -58 -29 -58 -77c0 -28 13 -46 24 -55c13 -10 31 -16 53 -16c23 0 50 9 74 19z" />
    <glyph glyph-name="b" unicode="b" horiz-adv-x="651" 
d="M188 743h59v-295c29 17 71 39 101 49c22 7 41 10 58 10c44 0 105 -14 151 -69c35 -41 58 -102 58 -171c0 -70 -22 -182 -153 -237c-62 -26 -134 -34 -215 -34c-43 0 -113 2 -167 5v636h-70v48zM247 61h10c63 0 100 13 125 38c45 44 49 111 49 145c0 29 -2 96 -49 132
c-36 28 -92 30 -135 27v-342z" />
    <glyph glyph-name="c" unicode="c" horiz-adv-x="540" 
d="M349 322v132c-46 -5 -75 -29 -93 -52c-34 -44 -36 -107 -36 -133c0 -45 9 -84 31 -119c33 -51 79 -64 116 -64c11 0 28 1 51 7c33 9 79 29 107 44v-89c-45 -22 -83 -33 -99 -38c-39 -11 -77 -18 -128 -18c-53 0 -126 7 -189 70c-40 40 -73 100 -73 181
c0 80 31 144 76 188c33 32 101 77 216 77c74 0 121 -20 150 -43c35 -28 43 -60 43 -84c0 -31 -13 -49 -25 -60c-13 -12 -35 -23 -67 -23c-34 0 -63 14 -80 24z" />
    <glyph glyph-name="d" unicode="d" horiz-adv-x="664" 
d="M409 637h-72v48l181 58h58v-672l13 -13l57 -5v-53h-237v61c-27 -19 -63 -39 -89 -50c-22 -9 -50 -19 -83 -19c-46 0 -97 14 -141 65c-37 44 -60 106 -60 182c0 101 40 165 83 204c40 36 101 65 181 65c27 0 69 -3 109 -10v139zM409 101v325c-31 13 -52 15 -65 15
c-40 0 -63 -12 -84 -38c-25 -32 -40 -80 -40 -145c0 -58 14 -88 21 -102c28 -51 73 -60 115 -60c17 0 37 2 53 5z" />
    <glyph glyph-name="e" unicode="e" horiz-adv-x="585" 
d="M552 141v-92c-29 -14 -56 -25 -86 -34c-48 -15 -91 -23 -150 -23c-52 0 -130 8 -192 57c-43 33 -88 94 -88 197c0 109 49 170 87 201c40 33 100 61 190 61c73 0 144 -21 192 -82c44 -56 50 -124 50 -165v-14h-345c1 -41 15 -86 36 -112c33 -41 81 -47 118 -47
c41 0 76 7 111 19c24 8 54 22 77 34zM214 310h163c-2 76 -16 101 -22 109c-17 23 -39 26 -55 26c-23 0 -42 -5 -59 -26c-20 -25 -25 -61 -27 -109z" />
    <glyph glyph-name="f" unicode="f" horiz-adv-x="389" 
d="M35 0v53l47 5l13 13v336h-70v46l70 44c1 87 39 140 62 165c58 65 133 86 194 86c46 0 74 -13 89 -26c20 -16 29 -37 29 -64c0 -14 -3 -28 -16 -42c-14 -16 -42 -30 -67 -36l-108 113c-10 -27 -21 -65 -16 -212h135v-74h-135v-336l16 -13l75 -5v-53h-318z" />
    <glyph glyph-name="g" unicode="g" horiz-adv-x="613" 
d="M461 472h158v-66h-110c17 -27 20 -53 20 -71c0 -69 -42 -107 -65 -123c-46 -32 -119 -43 -175 -43c-18 0 -33 1 -49 3c-2 -6 -4 -17 -4 -30s2 -24 4 -30l41 -4c91 -9 167 -20 218 -43c59 -26 71 -64 71 -95c0 -43 -18 -91 -76 -129c-81 -54 -198 -58 -233 -58
c-93 0 -146 20 -175 38c-48 29 -61 70 -61 104c0 37 15 63 37 79c20 14 48 21 70 21c-8 14 -18 36 -18 59c0 26 10 41 22 55c11 13 25 26 42 37c-25 8 -63 26 -86 46c-32 28 -44 64 -44 106c0 69 33 112 75 138c44 28 108 39 162 39c18 0 48 -2 67 -5c35 -5 80 -18 109 -28z
M293 448c-30 0 -45 -21 -52 -33c-15 -26 -18 -57 -18 -80c0 -32 5 -57 14 -76c8 -17 23 -40 54 -40c14 0 39 5 56 39c13 26 16 59 16 83c0 23 -2 51 -15 73c-17 31 -42 34 -55 34zM278 -4l-82 12c-9 -27 -10 -45 -10 -55c0 -29 10 -53 32 -74c23 -22 51 -35 89 -35
c36 0 60 12 76 28c18 18 22 36 22 54s-5 40 -36 52c-20 8 -56 13 -91 18z" />
    <glyph glyph-name="h" unicode="h" horiz-adv-x="674" 
d="M200 743h58v-301c36 20 90 45 133 57c24 7 43 9 61 9c47 0 86 -14 110 -49c27 -38 31 -93 31 -134v-254l11 -13l54 -5v-53h-283v53l40 5l11 13v213c0 29 -1 68 -24 91s-68 24 -93 24c-20 0 -34 -1 -51 -3v-325l14 -13l42 -5v-53h-286v53l51 5l12 13v566h-71v48z" />
    <glyph glyph-name="i" unicode="i" horiz-adv-x="354" 
d="M204 507h58v-436l13 -13l61 -5v-53h-312v53l59 5l12 13v329h-65v48zM88 648c0 51 41 92 92 92s92 -41 92 -92s-41 -92 -92 -92s-92 41 -92 92z" />
    <glyph glyph-name="j" unicode="j" horiz-adv-x="353" 
d="M111 400h-74v48l191 59h50v-395c0 -66 -8 -151 -48 -220c-50 -86 -131 -109 -201 -109c-16 0 -58 2 -87 21c-30 20 -36 48 -36 68c0 46 35 82 84 84l106 -124c12 65 15 121 15 192v376zM102 648c0 51 41 92 92 92s92 -41 92 -92s-41 -92 -92 -92s-92 41 -92 92z" />
    <glyph glyph-name="k" unicode="k" horiz-adv-x="631" 
d="M31 0v53l49 5l13 13v566h-73v48l194 58h46v-480h28l141 162l-7 10l-46 5v53h227v-53l-71 -8l-96 -108l149 -266l59 -5v-53h-236v45l-102 181h-46v-155l9 -13l55 -5v-53h-293z" />
    <glyph glyph-name="l" unicode="l" horiz-adv-x="351" 
d="M20 0v53l58 5l13 13v566h-69v48l186 58h50v-672l14 -13l61 -5v-53h-313z" />
    <glyph glyph-name="m" unicode="m" horiz-adv-x="987" 
d="M25 0v53l52 5l11 13v329h-63v48l172 59h58v-65c34 21 72 39 108 52c21 7 43 14 71 14c32 0 61 -9 82 -24c16 -11 34 -30 46 -48c37 22 84 45 122 57c35 11 62 15 80 15c49 0 89 -13 116 -58c24 -39 26 -89 26 -125v-254l10 -13l55 -5v-53h-283v53l39 5l12 13v213
c0 28 -1 67 -23 90c-23 24 -64 25 -80 25c-30 0 -48 -4 -59 -7v-321l12 -13l44 -5v-53h-271v53l36 5l12 13v226c0 19 -2 60 -28 84c-16 14 -42 21 -65 21c-10 0 -39 -1 -62 -6v-325l13 -13l37 -5v-53h-280z" />
    <glyph glyph-name="n" unicode="n" horiz-adv-x="677" 
d="M32 0v53l52 5l11 13v329h-70v48l179 59h58v-65c34 19 79 40 111 51c28 10 50 15 82 15c41 0 85 -9 114 -56c17 -28 27 -68 27 -127v-254l11 -13l54 -5v-53h-283v53l39 5l12 13v213c0 27 -1 68 -24 91s-62 24 -93 24c-19 0 -31 0 -50 -3v-325l13 -13l42 -5v-53h-285z" />
    <glyph glyph-name="o" unicode="o" horiz-adv-x="648" 
d="M333 508c55 0 129 -8 190 -57c55 -44 89 -110 89 -204c0 -84 -28 -144 -74 -186c-47 -43 -117 -69 -214 -69c-61 0 -150 10 -215 70c-49 45 -73 106 -73 185c0 78 22 147 82 197c38 32 105 64 215 64zM325 445c-35 0 -61 -15 -79 -52c-9 -18 -23 -57 -23 -143
c0 -79 11 -119 22 -142c13 -27 36 -53 80 -53c48 0 70 31 81 58c8 18 19 55 19 134c0 97 -17 136 -25 151c-15 28 -37 47 -75 47z" />
    <glyph glyph-name="p" unicode="p" horiz-adv-x="662" 
d="M22 -220v53l57 5l11 13v549h-70v48l185 59h52v-67c28 17 72 41 101 53c22 9 42 15 67 15c37 0 97 -9 145 -68c37 -45 56 -108 56 -173c0 -93 -37 -151 -70 -185c-54 -55 -132 -82 -214 -82c-49 0 -70 3 -85 5v-154l13 -13l66 -5v-53h-314zM257 395v-333c7 -1 15 -2 26 -2
c70 0 106 30 125 55c32 44 34 110 34 129c0 62 -17 96 -31 114c-24 30 -62 42 -97 42c-15 0 -43 -3 -57 -5z" />
    <glyph glyph-name="q" unicode="q" horiz-adv-x="657" 
d="M409 -149v203c-18 -11 -41 -23 -67 -34c-30 -13 -62 -24 -100 -24c-63 0 -107 25 -138 56c-31 32 -68 88 -68 182s32 175 127 227c43 23 115 47 242 47c53 0 126 -6 175 -10c-2 -11 -4 -31 -4 -43v-604l15 -13l49 -5v-53h-313v53l68 5zM409 441h-25
c-30 0 -82 -4 -121 -44c-27 -28 -43 -77 -43 -141c0 -38 6 -85 38 -118c37 -39 93 -44 151 -39v342z" />
    <glyph glyph-name="r" unicode="r" horiz-adv-x="493" 
d="M34 0v53l55 5l11 13v329h-75v48l184 59h58l-9 -114c20 22 32 33 53 51c26 23 45 39 81 59c7 1 13 2 25 2s25 0 38 -4c15 -4 25 -11 31 -15l-28 -193h-71c-6 16 -16 33 -29 45c-19 18 -46 26 -91 21v-288l13 -13l75 -5v-53h-321z" />
    <glyph glyph-name="s" unicode="s" horiz-adv-x="523" 
d="M462 482v-153h-72l-13 79l-13 14c-18 9 -42 18 -74 18c-15 0 -34 -1 -51 -12s-24 -26 -24 -45c0 -11 3 -20 10 -29c12 -14 32 -24 60 -35l46 -18c71 -28 110 -50 131 -75c18 -21 24 -42 24 -68c0 -38 -12 -74 -44 -105c-40 -40 -108 -65 -196 -65c-23 0 -54 2 -76 5
c-39 5 -103 18 -128 23v167h73l11 -91l11 -13c29 -14 66 -25 100 -25c27 0 49 7 63 19c12 11 17 24 17 41c0 11 -2 20 -11 31c-10 12 -26 21 -53 32l-50 21c-33 14 -93 46 -119 71c-22 21 -36 47 -36 81c0 37 13 83 66 118s114 40 163 40c62 0 110 -10 185 -26z" />
    <glyph glyph-name="t" unicode="t" horiz-adv-x="408" 
d="M86 407h-72v46l86 54l63 116h90v-142h152v-74h-152v-233c0 -14 0 -48 16 -66c17 -19 51 -21 74 -21c22 0 33 1 62 6v-58c-33 -13 -83 -29 -117 -36c-22 -4 -50 -7 -68 -7c-60 0 -102 24 -118 49s-16 60 -16 107v259z" />
    <glyph glyph-name="u" unicode="u" horiz-adv-x="662" 
d="M187 507h58v-290c0 -48 6 -78 21 -95c20 -22 56 -24 77 -24c7 0 28 0 63 3v299h-63v48l172 59h58v-436l10 -13l59 -5v-53h-236v55c-22 -13 -58 -32 -84 -42c-32 -13 -69 -21 -102 -21c-69 0 -101 34 -117 58c-24 36 -25 67 -25 132v218h-62v48z" />
    <glyph glyph-name="v" unicode="v" horiz-adv-x="565" 
d="M-8 493h301v-56l-55 -4l-9 -11l97 -260l105 260l-6 11l-51 4v56h209v-56l-60 -4l-176 -433h-127l-167 433l-61 4v56z" />
    <glyph glyph-name="w" unicode="w" horiz-adv-x="873" 
d="M0 493h287v-56l-48 -9l-11 -12l77 -255l106 332h141l107 -332l80 258l-7 11l-54 7v56h206v-56l-58 -4l-135 -433h-142l-108 343l-109 -343h-140l-130 433l-62 4v56z" />
    <glyph glyph-name="x" unicode="x" horiz-adv-x="593" 
d="M9 493h276v-46l-31 -7l-4 -12l80 -109l82 114l-42 9v51h194v-56l-58 -4l-129 -155l157 -217l50 -8v-53h-265v42l30 11l4 10l-88 121l-91 -126l41 -7v-51h-206v53l65 12l141 166l-150 202l-56 4v56z" />
    <glyph glyph-name="y" unicode="y" horiz-adv-x="567" 
d="M-8 493h300v-51l-51 -9l-9 -11l103 -258l99 258l-10 11l-54 9v51h213v-51l-55 -10l-194 -453c-16 -37 -37 -75 -67 -111c-51 -61 -112 -91 -162 -91c-30 0 -53 12 -70 28c-23 22 -29 47 -29 66s6 43 28 62c21 19 47 25 53 26l85 -81c40 26 65 66 79 94l-198 458l-61 12
v51z" />
    <glyph glyph-name="z" unicode="z" horiz-adv-x="556" 
d="M49 0v75l261 354h-149l-12 -14l-11 -87h-83v165h447v-68l-265 -361h166l17 17l11 99h88v-180h-470z" />
    <glyph glyph-name="braceleft" unicode="{" 
d="M441 707v-66c-101 -7 -124 -31 -124 -130v-42c0 -106 -51 -161 -165 -176c114 -15 165 -69 165 -175v-64c0 -63 14 -95 50 -110c16 -7 34 -9 74 -11v-66h-23c-196 0 -255 43 -255 186v76c0 72 -16 107 -55 121c-20 8 -33 9 -78 9v68c107 0 133 25 133 130v65
c0 91 27 142 89 165c45 17 76 20 189 20z" />
    <glyph glyph-name="bar" unicode="|" 
d="M192 764h117v-1000h-117v1000z" />
    <glyph glyph-name="braceright" unicode="}" 
d="M59 641v66c113 0 143 -3 189 -20c60 -23 88 -74 88 -165v-65c0 -72 15 -106 55 -121c20 -8 31 -9 79 -9v-68c-46 0 -58 -1 -80 -9c-38 -13 -54 -50 -54 -121v-76c0 -92 -28 -143 -89 -166c-46 -17 -76 -20 -188 -20v66c98 4 123 28 123 121v64c0 105 51 159 166 175
c-115 16 -166 70 -166 176v42c0 70 -13 101 -48 116c-19 8 -32 11 -75 14z" />
    <glyph glyph-name="asciitilde" unicode="~" horiz-adv-x="833" 
d="M747 400v-124c-74 -49 -125 -67 -186 -67c-38 0 -52 3 -125 29c-67 24 -118 35 -158 35c-60 0 -108 -19 -191 -77v124c84 52 134 70 194 70c44 0 87 -10 164 -37c62 -21 88 -27 121 -27c56 0 104 20 181 74z" />
    <glyph glyph-name="exclamdown" unicode="&#xa1;" horiz-adv-x="424" 
d="M183 277h57l65 -329c5 -23 7 -40 7 -51c0 -49 -41 -83 -100 -83c-58 0 -100 35 -100 83c0 10 2 27 6 47zM214 507c51 0 93 -42 93 -95s-42 -95 -94 -95c-53 0 -96 43 -96 95c0 53 43 95 97 95z" />
    <glyph glyph-name="cent" unicode="&#xa2;" horiz-adv-x="637" 
d="M346 623h65v-102c59 -5 100 -14 147 -34v-142h-72l-15 93c-24 11 -39 15 -60 15v-385c22 0 39 3 61 11l16 99h73v-150c-48 -15 -90 -23 -150 -28v-107h-65v107c-87 7 -124 17 -172 46c-80 47 -123 123 -123 216c0 151 113 251 295 259v102zM346 70v382
c-81 -26 -123 -91 -123 -193c0 -98 41 -161 123 -189z" />
    <glyph glyph-name="sterling" unicode="&#xa3;" horiz-adv-x="637" 
d="M449 476v138c-15 2 -22 3 -32 3c-68 0 -99 -57 -99 -183c0 -22 0 -38 2 -67h180v-74h-179c-3 -84 -36 -134 -107 -165l3 -13c44 8 61 10 78 10h305v-125h-545v88c73 18 101 66 101 170c0 11 0 19 -1 35h-71v74h69c-2 29 -2 43 -2 59c0 168 83 257 242 257
c124 0 210 -55 210 -134c0 -52 -37 -84 -95 -84c-24 0 -40 3 -59 11z" />
    <glyph glyph-name="currency" unicode="&#xa4;" horiz-adv-x="606" 
d="M87 705l99 -98c40 26 73 36 117 36c46 0 80 -10 119 -36l98 98l58 -57l-98 -100c25 -41 34 -73 34 -116s-9 -75 -34 -116l98 -99l-58 -58l-98 99c-39 -26 -71 -36 -118 -36c-46 0 -77 10 -118 36l-99 -99l-57 58l98 99c-25 39 -35 72 -35 116s10 77 35 116l-98 100z
M302 559c-68 0 -125 -58 -125 -127c0 -70 57 -127 127 -127s127 57 127 127s-57 127 -129 127z" />
    <glyph glyph-name="yen" unicode="&#xa5;" horiz-adv-x="637" 
d="M-27 671h324v-57l-58 -5l-9 -14l129 -235l125 226l-8 18l-60 11v56h240v-58l-61 -9l-98 -170h127v-58h-160l-50 -87h210v-58h-210v-150l16 -19l71 -4v-58h-350v58l68 4l16 19v150h-222v58h202l-47 87h-155v58h121l-93 169l-68 10v58z" />
    <glyph glyph-name="brokenbar" unicode="&#xa6;" 
d="M192 699h117v-370h-117v370zM192 199h117v-370h-117v370z" />
    <glyph glyph-name="section" unicode="&#xa7;" 
d="M440 695v-144h-61l-10 84c-30 18 -59 26 -87 26c-52 0 -90 -31 -90 -74c0 -32 18 -52 73 -79c94 -45 125 -63 152 -88c38 -34 55 -70 55 -114c0 -70 -42 -127 -122 -162c76 -49 99 -80 99 -134c0 -93 -84 -153 -216 -153c-61 0 -112 10 -180 34v144h67l13 -93
c36 -18 58 -24 86 -24c54 0 93 32 93 75c0 41 -23 62 -120 108c-62 29 -86 43 -110 66c-37 34 -54 73 -54 121c0 71 36 118 118 155c-66 37 -95 77 -95 130c0 91 85 148 218 148c52 0 101 -7 171 -26zM209 406c-57 -22 -81 -47 -81 -86c0 -48 41 -83 161 -139
c57 30 77 54 77 89c0 46 -37 78 -157 136z" />
    <glyph glyph-name="dieresis" unicode="&#xa8;" 
d="M136 729c40 0 76 -33 76 -81c0 -44 -31 -80 -76 -80c-44 0 -76 36 -76 80c0 46 35 81 76 81zM364 729c40 0 76 -33 76 -81c0 -44 -31 -80 -76 -80c-44 0 -76 36 -76 80c0 46 35 81 76 81z" />
    <glyph glyph-name="copyright" unicode="&#xa9;" horiz-adv-x="900" 
d="M452 734c220 0 394 -179 394 -394s-174 -394 -394 -394s-394 179 -394 394s174 394 394 394zM452 686c-193 0 -340 -157 -340 -346s147 -346 340 -346s340 157 340 346s-147 346 -340 346zM617 254v-126c-55 -18 -106 -25 -143 -25c-77 0 -135 23 -176 55
c-49 37 -86 94 -86 179c0 98 51 154 87 182c35 27 93 55 181 55c28 0 78 -4 137 -27v-123h-63l-16 83l-12 11c-5 1 -18 4 -33 4c-43 0 -75 -17 -96 -37c-20 -19 -53 -62 -53 -146c0 -65 20 -110 43 -137c40 -47 96 -53 140 -45l11 10l17 87h62z" />
    <glyph glyph-name="ordfeminine" unicode="&#xaa;" horiz-adv-x="388" 
d="M240 267l-9 34c-55 -32 -82 -42 -116 -42c-52 0 -90 34 -90 82c0 49 26 74 93 93l113 26v17c0 39 -23 59 -68 59h-11v-63h-75c-27 0 -37 7 -37 24c0 42 71 75 161 75c57 0 95 -13 118 -41c14 -17 19 -37 19 -80v-143l7 -7l34 -3v-31h-139zM231 330v90
c-72 -11 -94 -25 -94 -58c0 -26 18 -43 46 -43c14 0 26 3 48 11z" />
    <glyph glyph-name="guillemotleft" unicode="&#xab;" horiz-adv-x="458" 
d="M221 438v-101l-103 -97l103 -96v-101l-187 152v90zM426 438v-101l-103 -97l103 -96v-101l-187 152v90z" />
    <glyph glyph-name="logicalnot" unicode="&#xac;" horiz-adv-x="833" 
d="M124 423h585v-245h-112v134h-473v111z" />
    <glyph glyph-name="registered" unicode="&#xae;" horiz-adv-x="900" 
d="M452 734c220 0 394 -179 394 -394s-174 -394 -394 -394s-394 179 -394 394s174 394 394 394zM452 686c-193 0 -340 -157 -340 -346s147 -346 340 -346s340 157 340 346s-147 346 -340 346zM244 558h238c35 0 72 -5 99 -18c39 -19 55 -50 55 -90c0 -35 -11 -64 -42 -84
c-18 -12 -53 -24 -80 -28c21 -4 47 -14 63 -28c23 -20 36 -55 50 -91c6 -17 14 -39 29 -49c12 -9 35 -12 52 -11v-39c-18 -2 -49 -4 -77 -4c-27 0 -61 2 -84 20c-19 15 -32 43 -45 87c-9 31 -18 60 -38 75c-14 10 -37 15 -55 13v-138l10 -12l43 -3v-38h-218v38l40 4l12 11
v335l-12 10l-40 3v37zM409 514v-159h17c32 0 50 9 55 12c30 17 36 45 36 69c0 22 -6 43 -22 58c-6 6 -24 20 -57 20h-29z" />
    <glyph glyph-name="macron" unicode="&#xaf;" 
d="M69 683h361v-83h-361v83z" />
    <glyph glyph-name="macron" unicode="&#x2c9;" 
d="M69 683h361v-83h-361v83z" />
    <glyph glyph-name="degree" unicode="&#xb0;" horiz-adv-x="637" 
d="M320 713c78 0 142 -66 142 -145c0 -80 -65 -144 -145 -144s-143 63 -143 144s64 145 146 145zM317 659c-49 0 -90 -41 -90 -90c0 -50 41 -91 91 -91s90 40 90 90c0 51 -40 91 -91 91z" />
    <glyph glyph-name="plusminus" unicode="&#xb1;" horiz-adv-x="833" 
d="M458 589v-163h251v-81h-251v-163h-83v163h-251v81h251v163h83zM709 89v-82h-585v82h585z" />
    <glyph glyph-name="twosuperior" unicode="&#xb2;" horiz-adv-x="405" 
d="M153 341h146l12 53h61v-136h-343v64c153 103 202 156 202 221c0 40 -28 71 -66 71c-1 0 -4 0 -9 -1h-7v-87c-27 -11 -41 -14 -58 -14c-39 0 -65 22 -65 54c0 60 69 102 165 102c103 0 168 -47 168 -121s-56 -130 -206 -206z" />
    <glyph glyph-name="threesuperior" unicode="&#xb3;" horiz-adv-x="405" 
d="M144 614v-79c-20 -9 -34 -12 -51 -12c-38 0 -65 22 -65 53c0 53 69 91 165 91c98 0 160 -40 160 -103c0 -43 -27 -70 -90 -92c73 -17 106 -48 106 -99c0 -73 -80 -123 -196 -123c-93 0 -157 35 -157 85c0 32 26 55 63 55c13 0 25 -2 41 -7l21 -76c13 -3 19 -4 29 -4
c44 0 71 26 71 66c0 41 -31 65 -84 65c-19 0 -33 -2 -48 -6v63c17 -2 24 -2 32 -2c53 0 85 23 85 62c0 38 -29 63 -74 63h-8z" />
    <glyph glyph-name="acute" unicode="&#xb4;" 
d="M297 748h149l-161 -190h-86z" />
    <glyph glyph-name="mu" unicode="&#xb5;" horiz-adv-x="595" 
d="M518 432l-54 -256c-3 -14 -6 -28 -6 -44c0 -19 5 -28 7 -31c7 -11 18 -15 29 -15c8 0 17 1 26 7c13 8 21 23 30 38c10 16 18 31 32 31c9 0 14 -10 14 -18c0 -10 -6 -32 -9 -39c-7 -20 -15 -37 -27 -55c-23 -35 -55 -61 -108 -61c-23 0 -53 5 -73 32c-13 17 -19 42 -20 64
c-9 -24 -24 -47 -38 -62c-23 -24 -51 -33 -87 -33c-41 0 -66 15 -79 29c-19 19 -29 51 -31 74c-10 -76 -6 -42 -13 -114c-3 -30 -4 -56 -12 -100c-5 -30 -11 -52 -23 -67c-10 -13 -23 -20 -43 -20c-16 0 -32 5 -43 14c-10 8 -21 22 -21 47c0 17 5 44 29 122
c23 74 36 115 56 208l53 249h143l-52 -243c-5 -24 -10 -42 -10 -63c0 -11 2 -27 13 -40c7 -9 19 -16 37 -16c27 0 43 15 54 31c16 24 25 54 30 79l54 252h142z" />
    <glyph glyph-name="paragraph" unicode="&#xb6;" 
d="M278 616v-373c-85 1 -131 9 -171 31c-64 33 -95 93 -95 183c0 148 80 214 260 214h203v-50l-63 -10v-690h-65v695h-69z" />
    <glyph glyph-name="periodcentered" unicode="&#xb7;" horiz-adv-x="322" 
d="M161 431c52 0 95 -44 95 -96s-43 -94 -96 -94c-52 0 -94 42 -94 94c0 54 42 96 95 96z" />
    <glyph glyph-name="periodcentered" unicode="&#x22c5;" horiz-adv-x="322" 
d="M161 431c52 0 95 -44 95 -96s-43 -94 -96 -94c-52 0 -94 42 -94 94c0 54 42 96 95 96z" />
    <glyph glyph-name="periodcentered" unicode="&#x2219;" horiz-adv-x="322" 
d="M161 431c52 0 95 -44 95 -96s-43 -94 -96 -94c-52 0 -94 42 -94 94c0 54 42 96 95 96z" />
    <glyph glyph-name="cedilla" unicode="&#xb8;" 
d="M203 0h61v-52h12c23 0 45 -5 59 -16c17 -13 28 -38 28 -66c0 -30 -12 -53 -31 -70c-21 -19 -53 -32 -98 -32c-38 0 -78 10 -87 12v58c18 -2 22 -3 32 -5c13 -2 32 -4 41 -4c10 0 25 2 34 9c7 5 12 14 12 24c0 9 -4 16 -12 21c-9 6 -19 7 -29 7c-9 0 -17 -1 -22 -2v116z
" />
    <glyph glyph-name="onesuperior" unicode="&#xb9;" horiz-adv-x="405" 
d="M211 665h72v-355l5 -6l71 -3v-43h-279v43l75 4l5 7v269l-4 3l-94 -12v45z" />
    <glyph glyph-name="ordmasculine" unicode="&#xba;" horiz-adv-x="410" 
d="M209 571c110 0 177 -59 177 -155c0 -97 -67 -153 -182 -153s-181 56 -181 153c0 99 68 155 186 155zM204 533c-43 0 -63 -38 -63 -117s20 -116 64 -116s63 36 63 117c0 80 -20 116 -64 116z" />
    <glyph glyph-name="guillemotright" unicode="&#xbb;" horiz-adv-x="458" 
d="M32 438l187 -153v-90l-187 -152v101l103 96l-103 97v101zM237 438l187 -153v-90l-187 -152v101l103 96l-103 97v101z" />
    <glyph glyph-name="onequarter" unicode="&#xbc;" horiz-adv-x="996" 
d="M211 665h72v-355l5 -6l71 -3v-43h-279v43l75 4l5 7v269l-4 3l-94 -12v45zM671 671h81l-428 -671h-81zM812 406h97v-243h75v-66h-75v-112h-112v112h-198v64zM797 290l-112 -127h112v127z" />
    <glyph glyph-name="onehalf" unicode="&#xbd;" horiz-adv-x="996" 
d="M211 665h72v-355l5 -6l71 -3v-43h-279v43l75 4l5 7v269l-4 3l-94 -12v45zM671 671h81l-428 -671h-81zM743 83h146l12 53h61v-136h-343v64c88 60 108 75 140 106c43 42 62 78 62 115c0 40 -28 71 -65 71c-2 0 -5 0 -10 -1h-7v-87c-26 -10 -41 -14 -58 -14
c-39 0 -65 22 -65 54c0 60 69 102 165 102c103 0 168 -47 168 -121c0 -52 -32 -98 -101 -146c-23 -17 -40 -26 -105 -60z" />
    <glyph glyph-name="threequarters" unicode="&#xbe;" horiz-adv-x="995" 
d="M144 614v-79c-20 -9 -34 -12 -51 -12c-38 0 -65 22 -65 53c0 53 69 91 165 91c98 0 160 -40 160 -103c0 -43 -28 -72 -90 -92c75 -19 106 -47 106 -99c0 -73 -80 -123 -196 -123c-93 0 -157 35 -157 85c0 32 26 55 63 55c13 0 25 -2 41 -7l21 -76c13 -3 19 -4 29 -4
c44 0 71 26 71 66c0 41 -31 65 -84 65c-19 0 -33 -2 -48 -6v63c17 -2 24 -2 32 -2c53 0 85 23 85 62c0 38 -29 63 -74 63h-8zM671 671h81l-428 -671h-81zM812 406h97v-243h75v-66h-75v-112h-112v112h-198v64zM797 290l-112 -127h112v127z" />
    <glyph glyph-name="questiondown" unicode="&#xbf;" horiz-adv-x="519" 
d="M320 507c51 0 93 -43 93 -95c0 -53 -42 -95 -94 -95c-53 0 -96 43 -96 95c0 53 43 95 97 95zM283 286h77v-124c-109 -39 -151 -84 -151 -159c0 -73 41 -110 130 -115l51 127c15 1 19 1 27 1c54 0 85 -26 85 -70c0 -77 -87 -129 -214 -129c-155 0 -250 70 -250 184
c0 77 42 138 126 179c26 14 51 23 119 42v64z" />
    <glyph glyph-name="Agrave" unicode="&#xc0;" horiz-adv-x="701" 
d="M278 676h144l232 -610l61 -8v-58h-324v58l68 5l8 13l-53 149h-213l-50 -148l10 -12l64 -7v-58h-241v58l65 4zM304 513l-79 -221h160zM168 890h154l92 -156h-86z" />
    <glyph glyph-name="Aacute" unicode="&#xc1;" horiz-adv-x="701" 
d="M278 676h144l232 -610l61 -8v-58h-324v58l68 5l8 13l-53 149h-213l-50 -148l10 -12l64 -7v-58h-241v58l65 4zM304 513l-79 -221h160zM394 890h154l-160 -156h-86z" />
    <glyph glyph-name="Acircumflex" unicode="&#xc2;" horiz-adv-x="701" 
d="M278 676h144l232 -610l61 -8v-58h-324v58l68 5l8 13l-53 149h-213l-50 -148l10 -12l64 -7v-58h-241v58l65 4zM304 513l-79 -221h160zM295 890h110l110 -156h-98l-67 92l-67 -92h-98z" />
    <glyph glyph-name="Atilde" unicode="&#xc3;" horiz-adv-x="701" 
d="M278 676h144l232 -610l61 -8v-58h-324v58l68 5l8 13l-53 149h-213l-50 -148l10 -12l64 -7v-58h-241v58l65 4zM304 513l-79 -221h160zM454 895h65c1 -26 -3 -78 -22 -108c-17 -26 -40 -34 -71 -34c-26 0 -51 6 -92 26c-16 8 -35 17 -51 17c-13 0 -23 -5 -29 -16
c-5 -9 -8 -24 -8 -36h-65c-1 25 1 66 12 92c18 44 54 50 78 50c37 0 63 -13 84 -22c34 -15 48 -21 64 -21s24 6 29 17c4 9 6 24 6 35z" />
    <glyph glyph-name="Adieresis" unicode="&#xc4;" horiz-adv-x="701" 
d="M278 676h144l232 -610l61 -8v-58h-324v58l68 5l8 13l-53 149h-213l-50 -148l10 -12l64 -7v-58h-241v58l65 4zM304 513l-79 -221h160zM160 820c0 42 34 76 76 76s76 -34 76 -76s-34 -76 -76 -76s-76 34 -76 76zM388 820c0 42 34 76 76 76s76 -34 76 -76s-34 -76 -76 -76
s-76 34 -76 76z" />
    <glyph glyph-name="Aring" unicode="&#xc5;" horiz-adv-x="701" 
d="M278 676h144l232 -610l61 -8v-58h-324v58l68 5l8 13l-53 149h-213l-50 -148l10 -12l64 -7v-58h-241v58l65 4zM304 513l-79 -221h160zM230 842c0 66 54 120 120 120s120 -54 120 -120s-54 -120 -120 -120s-120 54 -120 120zM290 842c0 -33 27 -60 60 -60s60 27 60 60
s-27 60 -60 60s-60 -27 -60 -60z" />
    <glyph glyph-name="AE" unicode="&#xc6;" horiz-adv-x="954" 
d="M249 671h641v-167h-85l-16 89l-14 11h-178v-222h105l15 14l10 72h70v-246h-70l-10 72l-15 14h-105v-241h209l14 16l18 111h83v-194h-581v58l67 4l16 19v157h-225l-95 -161l10 -12l58 -7v-58h-237v58l66 4l321 532l-13 15l-59 4v58zM423 609l-179 -299h179v299z" />
    <glyph glyph-name="Ccedilla" unicode="&#xc7;" horiz-adv-x="669" 
d="M638 211v-187c-101 -34 -178 -38 -215 -38v-38h12c23 0 45 -5 59 -16c17 -13 28 -38 28 -66c0 -30 -12 -53 -31 -70c-21 -19 -53 -32 -98 -32c-38 0 -78 10 -87 12v58c18 -2 22 -3 32 -5c13 -2 32 -4 41 -4c10 0 25 2 34 9c7 5 12 14 12 24c0 9 -4 16 -12 21
c-9 6 -19 7 -29 7c-9 0 -17 -1 -22 -2v104c-60 5 -143 25 -215 93c-81 76 -108 173 -108 253c0 99 44 220 166 295c48 30 116 55 223 55c72 0 142 -14 210 -40v-181h-92l-24 123l-17 16c-12 3 -30 6 -52 6c-80 0 -127 -39 -144 -56c-47 -46 -75 -122 -75 -215
c0 -78 19 -149 57 -198c29 -36 81 -77 162 -77c18 0 41 3 52 4l16 15l25 130h92z" />
    <glyph glyph-name="Egrave" unicode="&#xc8;" horiz-adv-x="643" 
d="M28 0v58l67 4l16 19v513l-16 15l-67 4v58h550v-167h-86l-16 88l-14 11h-177v-221h105l15 14l10 72h71v-246h-71l-10 72l-15 14h-105v-240h208l14 16l16 110h86v-194h-581zM139 890h154l92 -156h-86z" />
    <glyph glyph-name="Eacute" unicode="&#xc9;" horiz-adv-x="643" 
d="M28 0v58l67 4l16 19v513l-16 15l-67 4v58h550v-167h-86l-16 88l-14 11h-177v-221h105l15 14l10 72h71v-246h-71l-10 72l-15 14h-105v-240h208l14 16l16 110h86v-194h-581zM365 890h154l-160 -156h-86z" />
    <glyph glyph-name="Ecircumflex" unicode="&#xca;" horiz-adv-x="643" 
d="M28 0v58l67 4l16 19v513l-16 15l-67 4v58h550v-167h-86l-16 88l-14 11h-177v-221h105l15 14l10 72h71v-246h-71l-10 72l-15 14h-105v-240h208l14 16l16 110h86v-194h-581zM266 890h110l110 -156h-98l-67 92l-67 -92h-98z" />
    <glyph glyph-name="Edieresis" unicode="&#xcb;" horiz-adv-x="643" 
d="M28 0v58l67 4l16 19v513l-16 15l-67 4v58h550v-167h-86l-16 88l-14 11h-177v-221h105l15 14l10 72h71v-246h-71l-10 72l-15 14h-105v-240h208l14 16l16 110h86v-194h-581zM131 820c0 42 34 76 76 76s76 -34 76 -76s-34 -76 -76 -76s-76 34 -76 76zM359 820
c0 42 34 76 76 76s76 -34 76 -76s-34 -76 -76 -76s-76 34 -76 76z" />
    <glyph glyph-name="Igrave" unicode="&#xcc;" horiz-adv-x="412" 
d="M28 0v58l72 4l16 19v513l-16 15l-72 4v58h356v-58l-74 -4l-16 -15v-513l16 -19l74 -4v-58h-356zM24 890h154l92 -156h-86z" />
    <glyph glyph-name="Iacute" unicode="&#xcd;" horiz-adv-x="412" 
d="M28 0v58l72 4l16 19v513l-16 15l-72 4v58h356v-58l-74 -4l-16 -15v-513l16 -19l74 -4v-58h-356zM250 890h154l-160 -156h-86z" />
    <glyph glyph-name="Icircumflex" unicode="&#xce;" horiz-adv-x="412" 
d="M28 0v58l72 4l16 19v513l-16 15l-72 4v58h356v-58l-74 -4l-16 -15v-513l16 -19l74 -4v-58h-356zM151 890h110l110 -156h-98l-67 92l-67 -92h-98z" />
    <glyph glyph-name="Idieresis" unicode="&#xcf;" horiz-adv-x="412" 
d="M28 0v58l72 4l16 19v513l-16 15l-72 4v58h356v-58l-74 -4l-16 -15v-513l16 -19l74 -4v-58h-356zM16 820c0 42 34 76 76 76s76 -34 76 -76s-34 -76 -76 -76s-76 34 -76 76zM244 820c0 42 34 76 76 76s76 -34 76 -76s-34 -76 -76 -76s-76 34 -76 76z" />
    <glyph glyph-name="Eth" unicode="&#xd0;" horiz-adv-x="782" 
d="M28 671h348c233 0 367 -123 367 -336c0 -214 -133 -335 -367 -335h-348v58l67 4l16 19v234h-92v74h92v205l-16 15l-67 4v58zM289 67h41c143 0 213 88 213 267c0 182 -69 270 -213 270h-41v-215h122v-74h-122v-248z" />
    <glyph glyph-name="Ntilde" unicode="&#xd1;" horiz-adv-x="779" 
d="M23 0v58l61 4l19 19v513l-13 15l-67 4v58h282v-27l287 -445v395l-18 15l-65 4v58h253v-58l-59 -4l-19 -15v-594h-159l-331 510v-429l14 -19l67 -6v-56h-252zM493 895h65c1 -26 -3 -78 -22 -108c-17 -26 -40 -34 -71 -34c-26 0 -51 6 -92 26c-16 8 -35 17 -51 17
c-13 0 -23 -5 -29 -16c-5 -9 -8 -24 -8 -36h-65c-1 25 1 66 12 92c18 44 54 50 78 50c37 0 63 -13 84 -22c34 -15 48 -21 64 -21s24 6 29 17c4 9 6 24 6 35z" />
    <glyph glyph-name="Ograve" unicode="&#xd2;" horiz-adv-x="815" 
d="M411 685c80 0 159 -19 230 -71c93 -69 135 -173 135 -278c0 -98 -36 -198 -121 -268c-63 -52 -151 -85 -254 -85c-94 0 -177 28 -238 77c-66 53 -124 145 -124 278c0 72 18 191 124 272c55 42 138 75 248 75zM406 609c-33 0 -75 -12 -110 -58c-38 -51 -57 -131 -57 -219
c0 -103 26 -172 59 -215c34 -44 75 -58 111 -58c31 0 73 11 107 54c42 54 60 141 60 227c0 105 -26 170 -53 207c-40 55 -89 62 -117 62zM225 890h154l92 -156h-86z" />
    <glyph glyph-name="Oacute" unicode="&#xd3;" horiz-adv-x="815" 
d="M411 685c80 0 159 -19 230 -71c93 -69 135 -173 135 -278c0 -98 -36 -198 -121 -268c-63 -52 -151 -85 -254 -85c-94 0 -177 28 -238 77c-66 53 -124 145 -124 278c0 72 18 191 124 272c55 42 138 75 248 75zM406 609c-33 0 -75 -12 -110 -58c-38 -51 -57 -131 -57 -219
c0 -103 26 -172 59 -215c34 -44 75 -58 111 -58c31 0 73 11 107 54c42 54 60 141 60 227c0 105 -26 170 -53 207c-40 55 -89 62 -117 62zM451 890h154l-160 -156h-86z" />
    <glyph glyph-name="Ocircumflex" unicode="&#xd4;" horiz-adv-x="815" 
d="M411 685c80 0 159 -19 230 -71c93 -69 135 -173 135 -278c0 -98 -36 -198 -121 -268c-63 -52 -151 -85 -254 -85c-94 0 -177 28 -238 77c-66 53 -124 145 -124 278c0 72 18 191 124 272c55 42 138 75 248 75zM406 609c-33 0 -75 -12 -110 -58c-38 -51 -57 -131 -57 -219
c0 -103 26 -172 59 -215c34 -44 75 -58 111 -58c31 0 73 11 107 54c42 54 60 141 60 227c0 105 -26 170 -53 207c-40 55 -89 62 -117 62zM352 890h110l110 -156h-98l-67 92l-67 -92h-98z" />
    <glyph glyph-name="Otilde" unicode="&#xd5;" horiz-adv-x="815" 
d="M411 685c80 0 159 -19 230 -71c93 -69 135 -173 135 -278c0 -98 -36 -198 -121 -268c-63 -52 -151 -85 -254 -85c-94 0 -177 28 -238 77c-66 53 -124 145 -124 278c0 72 18 191 124 272c55 42 138 75 248 75zM406 609c-33 0 -75 -12 -110 -58c-38 -51 -57 -131 -57 -219
c0 -103 26 -172 59 -215c34 -44 75 -58 111 -58c31 0 73 11 107 54c42 54 60 141 60 227c0 105 -26 170 -53 207c-40 55 -89 62 -117 62zM511 895h65c1 -26 -3 -78 -22 -108c-17 -26 -40 -34 -71 -34c-26 0 -51 6 -92 26c-16 8 -35 17 -51 17c-13 0 -23 -5 -29 -16
c-5 -9 -8 -24 -8 -36h-65c-1 25 1 66 12 92c18 44 54 50 78 50c37 0 63 -13 84 -22c34 -15 48 -21 64 -21s24 6 29 17c4 9 6 24 6 35z" />
    <glyph glyph-name="Odieresis" unicode="&#xd6;" horiz-adv-x="815" 
d="M411 685c80 0 159 -19 230 -71c93 -69 135 -173 135 -278c0 -98 -36 -198 -121 -268c-63 -52 -151 -85 -254 -85c-94 0 -177 28 -238 77c-66 53 -124 145 -124 278c0 72 18 191 124 272c55 42 138 75 248 75zM406 609c-33 0 -75 -12 -110 -58c-38 -51 -57 -131 -57 -219
c0 -103 26 -172 59 -215c34 -44 75 -58 111 -58c31 0 73 11 107 54c42 54 60 141 60 227c0 105 -26 170 -53 207c-40 55 -89 62 -117 62zM217 820c0 42 34 76 76 76s76 -34 76 -76s-34 -76 -76 -76s-76 34 -76 76zM445 820c0 42 34 76 76 76s76 -34 76 -76s-34 -76 -76 -76
s-76 34 -76 76z" />
    <glyph glyph-name="multiply" unicode="&#xd7;" horiz-adv-x="833" 
d="M416 356l225 224l57 -57l-224 -225l224 -224l-57 -58l-225 225l-224 -225l-57 58l224 224l-224 225l57 57z" />
    <glyph glyph-name="Oslash" unicode="&#xd8;" horiz-adv-x="815" 
d="M615 757l56 -32l-55 -94c106 -69 160 -169 160 -294c0 -208 -157 -354 -381 -354c-58 0 -96 7 -148 28l-57 -99l-54 37l54 91c-105 78 -151 169 -151 301c0 117 40 203 123 267c67 52 146 77 244 77c63 0 105 -7 150 -26zM262 160l243 412c-34 28 -61 38 -98 38
c-108 0 -177 -109 -177 -280c0 -67 9 -113 32 -170zM548 517l-245 -417c34 -33 65 -47 106 -47c106 0 175 111 175 284c0 69 -10 120 -36 180z" />
    <glyph glyph-name="Ugrave" unicode="&#xd9;" horiz-adv-x="760" 
d="M21 671h338v-58l-65 -4l-12 -15v-337c0 -28 2 -96 33 -132s83 -41 117 -41c36 0 76 5 104 35c23 24 38 69 38 157v318l-12 15l-71 4v58h252v-58l-64 -4l-13 -15v-331c0 -79 -12 -152 -60 -205c-37 -41 -98 -72 -217 -72c-74 0 -173 13 -233 81c-52 60 -52 126 -52 206
v321l-12 15l-71 4v58zM238 890h154l92 -156h-86z" />
    <glyph glyph-name="Uacute" unicode="&#xda;" horiz-adv-x="760" 
d="M21 671h338v-58l-65 -4l-12 -15v-337c0 -28 2 -96 33 -132s83 -41 117 -41c36 0 76 5 104 35c23 24 38 69 38 157v318l-12 15l-71 4v58h252v-58l-64 -4l-13 -15v-331c0 -79 -12 -152 -60 -205c-37 -41 -98 -72 -217 -72c-74 0 -173 13 -233 81c-52 60 -52 126 -52 206
v321l-12 15l-71 4v58zM464 890h154l-160 -156h-86z" />
    <glyph glyph-name="Ucircumflex" unicode="&#xdb;" horiz-adv-x="760" 
d="M21 671h338v-58l-65 -4l-12 -15v-337c0 -28 2 -96 33 -132s83 -41 117 -41c36 0 76 5 104 35c23 24 38 69 38 157v318l-12 15l-71 4v58h252v-58l-64 -4l-13 -15v-331c0 -79 -12 -152 -60 -205c-37 -41 -98 -72 -217 -72c-74 0 -173 13 -233 81c-52 60 -52 126 -52 206
v321l-12 15l-71 4v58zM365 890h110l110 -156h-98l-67 92l-67 -92h-98z" />
    <glyph glyph-name="Udieresis" unicode="&#xdc;" horiz-adv-x="760" 
d="M21 671h338v-58l-65 -4l-12 -15v-337c0 -28 2 -96 33 -132s83 -41 117 -41c36 0 76 5 104 35c23 24 38 69 38 157v318l-12 15l-71 4v58h252v-58l-64 -4l-13 -15v-331c0 -79 -12 -152 -60 -205c-37 -41 -98 -72 -217 -72c-74 0 -173 13 -233 81c-52 60 -52 126 -52 206
v321l-12 15l-71 4v58zM230 820c0 42 34 76 76 76s76 -34 76 -76s-34 -76 -76 -76s-76 34 -76 76zM458 820c0 42 34 76 76 76s76 -34 76 -76s-34 -76 -76 -76s-76 34 -76 76z" />
    <glyph glyph-name="Yacute" unicode="&#xdd;" horiz-adv-x="671" 
d="M-10 671h324v-58l-58 -4l-10 -15l130 -234l125 226l-8 18l-60 9v58h240v-58l-61 -9l-182 -312v-214l16 -15l71 -5v-58h-349v58l68 5l16 15v177l-194 348l-68 10v58zM414 890h154l-160 -156h-86z" />
    <glyph glyph-name="Thorn" unicode="&#xde;" horiz-adv-x="655" 
d="M28 671h350v-58l-73 -4l-16 -15v-43h62c191 0 281 -66 281 -206c0 -145 -101 -226 -284 -226c-18 0 -31 1 -59 3v-41l15 -19l74 -4v-58h-350v58l64 4l19 19v513l-13 15l-70 4v58zM289 482v-292c111 0 155 41 155 147c0 97 -43 146 -128 146c-5 0 -17 0 -27 -1z" />
    <glyph glyph-name="germandbls" unicode="&#xdf;" horiz-adv-x="714" 
d="M84 71v357c0 197 116 316 309 316c142 0 230 -75 230 -195c0 -21 -2 -41 -7 -71c-13 1 -19 1 -27 1c-68 0 -103 -25 -103 -73c0 -28 12 -44 53 -67c76 -45 95 -58 120 -84c23 -23 35 -56 35 -93c0 -106 -86 -170 -227 -170c-50 0 -86 5 -151 19v155h72l8 -100
c21 -8 31 -10 48 -10c52 0 88 28 88 70c0 34 -22 58 -78 87c-66 32 -79 41 -100 63c-21 21 -33 52 -33 85c0 63 41 109 113 126c8 47 11 71 11 92c0 56 -34 94 -84 94c-73 0 -110 -72 -110 -213v-460h-231v53l54 5z" />
    <glyph glyph-name="agrave" unicode="&#xe0;" horiz-adv-x="619" 
d="M236 448v-104h-119c-33 0 -45 7 -49 11c-10 8 -11 19 -11 28c0 21 11 58 75 89c54 26 119 36 183 36c53 0 124 -8 171 -51c44 -41 44 -87 44 -161v-225l11 -13l55 -5v-53h-221l-14 56c-25 -16 -57 -34 -84 -46c-28 -12 -60 -23 -99 -23c-42 0 -80 15 -105 39
c-23 22 -40 58 -40 98c0 31 9 81 59 116c40 28 95 41 136 51c49 12 101 23 135 30v29c0 22 -4 55 -30 76c-23 19 -70 23 -97 22zM363 105v150c-58 -8 -86 -18 -93 -21c-24 -9 -58 -29 -58 -77c0 -28 13 -46 24 -55c13 -10 31 -16 53 -16c23 0 50 9 74 19zM126 748h149
l98 -190h-86z" />
    <glyph glyph-name="aacute" unicode="&#xe1;" horiz-adv-x="619" 
d="M236 448v-104h-119c-33 0 -45 7 -49 11c-10 8 -11 19 -11 28c0 21 11 58 75 89c54 26 119 36 183 36c53 0 124 -8 171 -51c44 -41 44 -87 44 -161v-225l11 -13l55 -5v-53h-221l-14 56c-25 -16 -57 -34 -84 -46c-28 -12 -60 -23 -99 -23c-42 0 -80 15 -105 39
c-23 22 -40 58 -40 98c0 31 9 81 59 116c40 28 95 41 136 51c49 12 101 23 135 30v29c0 22 -4 55 -30 76c-23 19 -70 23 -97 22zM363 105v150c-58 -8 -86 -18 -93 -21c-24 -9 -58 -29 -58 -77c0 -28 13 -46 24 -55c13 -10 31 -16 53 -16c23 0 50 9 74 19zM356 748h149
l-161 -190h-86z" />
    <glyph glyph-name="acircumflex" unicode="&#xe2;" horiz-adv-x="619" 
d="M236 448v-104h-119c-33 0 -45 7 -49 11c-10 8 -11 19 -11 28c0 21 11 58 75 89c54 26 119 36 183 36c53 0 124 -8 171 -51c44 -41 44 -87 44 -161v-225l11 -13l55 -5v-53h-221l-14 56c-25 -16 -57 -34 -84 -46c-28 -12 -60 -23 -99 -23c-42 0 -80 15 -105 39
c-23 22 -40 58 -40 98c0 31 9 81 59 116c40 28 95 41 136 51c49 12 101 23 135 30v29c0 22 -4 55 -30 76c-23 19 -70 23 -97 22zM363 105v150c-58 -8 -86 -18 -93 -21c-24 -9 -58 -29 -58 -77c0 -28 13 -46 24 -55c13 -10 31 -16 53 -16c23 0 50 9 74 19zM253 748h112
l110 -190h-101l-65 109l-65 -109h-101z" />
    <glyph glyph-name="atilde" unicode="&#xe3;" horiz-adv-x="619" 
d="M236 448v-104h-119c-33 0 -45 7 -49 11c-10 8 -11 19 -11 28c0 21 11 58 75 89c54 26 119 36 183 36c53 0 124 -8 171 -51c44 -41 44 -87 44 -161v-225l11 -13l55 -5v-53h-221l-14 56c-25 -16 -57 -34 -84 -46c-28 -12 -60 -23 -99 -23c-42 0 -80 15 -105 39
c-23 22 -40 58 -40 98c0 31 9 81 59 116c40 28 95 41 136 51c49 12 101 23 135 30v29c0 22 -4 55 -30 76c-23 19 -70 23 -97 22zM363 105v150c-58 -8 -86 -18 -93 -21c-24 -9 -58 -29 -58 -77c0 -28 13 -46 24 -55c13 -10 31 -16 53 -16c23 0 50 9 74 19zM418 737h65v-21
c0 -30 -4 -61 -15 -84c-17 -35 -45 -48 -79 -48c-3 0 -18 0 -38 5c-22 5 -41 14 -63 25c-17 8 -32 15 -45 15c-12 0 -23 -5 -30 -20c-1 -2 -6 -14 -6 -34v-7h-67c-3 32 0 71 11 98c15 36 43 55 86 55c15 0 30 -2 46 -8l43 -18c22 -10 38 -19 57 -19c8 0 20 2 28 16
c6 12 7 35 7 45z" />
    <glyph glyph-name="adieresis" unicode="&#xe4;" horiz-adv-x="619" 
d="M236 448v-104h-119c-33 0 -45 7 -49 11c-10 8 -11 19 -11 28c0 21 11 58 75 89c54 26 119 36 183 36c53 0 124 -8 171 -51c44 -41 44 -87 44 -161v-225l11 -13l55 -5v-53h-221l-14 56c-25 -16 -57 -34 -84 -46c-28 -12 -60 -23 -99 -23c-42 0 -80 15 -105 39
c-23 22 -40 58 -40 98c0 31 9 81 59 116c40 28 95 41 136 51c49 12 101 23 135 30v29c0 22 -4 55 -30 76c-23 19 -70 23 -97 22zM363 105v150c-58 -8 -86 -18 -93 -21c-24 -9 -58 -29 -58 -77c0 -28 13 -46 24 -55c13 -10 31 -16 53 -16c23 0 50 9 74 19zM195 729
c40 0 76 -33 76 -81c0 -44 -31 -80 -76 -80c-44 0 -76 36 -76 80c0 46 35 81 76 81zM423 729c40 0 76 -33 76 -81c0 -44 -31 -80 -76 -80c-44 0 -76 36 -76 80c0 46 35 81 76 81z" />
    <glyph glyph-name="aring" unicode="&#xe5;" horiz-adv-x="619" 
d="M236 448v-104h-119c-33 0 -45 7 -49 11c-10 8 -11 19 -11 28c0 21 11 58 75 89c54 26 119 36 183 36c53 0 124 -8 171 -51c44 -41 44 -87 44 -161v-225l11 -13l55 -5v-53h-221l-14 56c-25 -16 -57 -34 -84 -46c-28 -12 -60 -23 -99 -23c-42 0 -80 15 -105 39
c-23 22 -40 58 -40 98c0 31 9 81 59 116c40 28 95 41 136 51c49 12 101 23 135 30v29c0 22 -4 55 -30 76c-23 19 -70 23 -97 22zM363 105v150c-58 -8 -86 -18 -93 -21c-24 -9 -58 -29 -58 -77c0 -28 13 -46 24 -55c13 -10 31 -16 53 -16c23 0 50 9 74 19zM189 666
c0 66 54 120 120 120s120 -54 120 -120s-54 -120 -120 -120s-120 54 -120 120zM249 666c0 -33 27 -60 60 -60s60 27 60 60s-27 60 -60 60s-60 -27 -60 -60z" />
    <glyph glyph-name="ae" unicode="&#xe6;" horiz-adv-x="843" 
d="M222 448v-104h-110c-39 0 -57 12 -57 39c0 68 105 125 229 125c71 0 118 -15 170 -53c60 40 98 53 151 53c82 0 147 -40 182 -111c20 -42 25 -72 26 -150h-313v-102c53 -40 98 -56 154 -56c51 0 88 12 156 52v-92c-76 -41 -134 -57 -211 -57c-83 0 -144 20 -218 72
c-79 -53 -142 -77 -205 -77c-88 0 -143 54 -143 140c0 66 34 110 109 139c46 19 74 27 198 55v29c0 47 -19 78 -56 91c-17 6 -22 7 -62 7zM340 105v150c-59 -14 -68 -17 -87 -27c-32 -16 -44 -36 -44 -70c0 -43 26 -72 65 -72c20 0 37 5 66 19zM497 311h146
c0 93 -19 128 -70 128c-54 0 -74 -34 -76 -128z" />
    <glyph glyph-name="ccedilla" unicode="&#xe7;" horiz-adv-x="540" 
d="M349 322v132c-46 -5 -75 -29 -93 -52c-34 -44 -36 -107 -36 -133c0 -45 9 -84 31 -119c33 -51 79 -64 116 -64c11 0 28 1 51 7c33 9 79 29 107 44v-89c-17 -8 -54 -25 -99 -38c-41 -12 -76 -17 -112 -18v-44h12c23 0 45 -5 59 -16c17 -13 28 -38 28 -66
c0 -30 -12 -53 -31 -70c-21 -19 -53 -32 -98 -32c-38 0 -78 10 -87 12v58c18 -2 22 -3 32 -5c13 -2 32 -4 41 -4c10 0 25 2 34 9c7 5 12 14 12 24c0 9 -4 16 -12 21c-9 6 -19 7 -29 7c-9 0 -17 -1 -22 -2v110c-46 5 -99 23 -144 68c-40 40 -73 100 -73 181
c0 80 31 144 76 188c33 32 101 77 216 77c74 0 121 -20 150 -43c35 -28 43 -60 43 -84c0 -31 -13 -49 -25 -60c-13 -12 -35 -23 -67 -23c-34 0 -63 14 -80 24z" />
    <glyph glyph-name="egrave" unicode="&#xe8;" horiz-adv-x="585" 
d="M552 141v-92c-29 -14 -56 -25 -86 -34c-48 -15 -91 -23 -150 -23c-52 0 -130 8 -192 57c-43 33 -88 94 -88 197c0 109 49 170 87 201c40 33 100 61 190 61c73 0 144 -21 192 -82c44 -56 50 -124 50 -165v-14h-345c1 -41 15 -86 36 -112c33 -41 81 -47 118 -47
c41 0 76 7 111 19c24 8 54 22 77 34zM214 310h163c-2 76 -16 101 -22 109c-17 23 -39 26 -55 26c-23 0 -42 -5 -59 -26c-20 -25 -25 -61 -27 -109zM123 748h149l98 -190h-86z" />
    <glyph glyph-name="eacute" unicode="&#xe9;" horiz-adv-x="585" 
d="M552 141v-92c-29 -14 -56 -25 -86 -34c-48 -15 -91 -23 -150 -23c-52 0 -130 8 -192 57c-43 33 -88 94 -88 197c0 109 49 170 87 201c40 33 100 61 190 61c73 0 144 -21 192 -82c44 -56 50 -124 50 -165v-14h-345c1 -41 15 -86 36 -112c33 -41 81 -47 118 -47
c41 0 76 7 111 19c24 8 54 22 77 34zM214 310h163c-2 76 -16 101 -22 109c-17 23 -39 26 -55 26c-23 0 -42 -5 -59 -26c-20 -25 -25 -61 -27 -109zM353 748h149l-161 -190h-86z" />
    <glyph glyph-name="ecircumflex" unicode="&#xea;" horiz-adv-x="585" 
d="M552 141v-92c-29 -14 -56 -25 -86 -34c-48 -15 -91 -23 -150 -23c-52 0 -130 8 -192 57c-43 33 -88 94 -88 197c0 109 49 170 87 201c40 33 100 61 190 61c73 0 144 -21 192 -82c44 -56 50 -124 50 -165v-14h-345c1 -41 15 -86 36 -112c33 -41 81 -47 118 -47
c41 0 76 7 111 19c24 8 54 22 77 34zM214 310h163c-2 76 -16 101 -22 109c-17 23 -39 26 -55 26c-23 0 -42 -5 -59 -26c-20 -25 -25 -61 -27 -109zM250 748h112l110 -190h-101l-65 109l-65 -109h-101z" />
    <glyph glyph-name="edieresis" unicode="&#xeb;" horiz-adv-x="585" 
d="M552 141v-92c-29 -14 -56 -25 -86 -34c-48 -15 -91 -23 -150 -23c-52 0 -130 8 -192 57c-43 33 -88 94 -88 197c0 109 49 170 87 201c40 33 100 61 190 61c73 0 144 -21 192 -82c44 -56 50 -124 50 -165v-14h-345c1 -41 15 -86 36 -112c33 -41 81 -47 118 -47
c41 0 76 7 111 19c24 8 54 22 77 34zM214 310h163c-2 76 -16 101 -22 109c-17 23 -39 26 -55 26c-23 0 -42 -5 -59 -26c-20 -25 -25 -61 -27 -109zM192 729c40 0 76 -33 76 -81c0 -44 -31 -80 -76 -80c-44 0 -76 36 -76 80c0 46 35 81 76 81zM420 729c40 0 76 -33 76 -81
c0 -44 -31 -80 -76 -80c-44 0 -76 36 -76 80c0 46 35 81 76 81z" />
    <glyph glyph-name="igrave" unicode="&#xec;" horiz-adv-x="355" 
d="M205 507h58v-436l13 -13l61 -5v-53h-312v53l59 5l12 13v329h-65v48zM-5 748h149l98 -190h-86z" />
    <glyph glyph-name="iacute" unicode="&#xed;" horiz-adv-x="355" 
d="M205 507h58v-436l13 -13l61 -5v-53h-312v53l59 5l12 13v329h-65v48zM225 748h149l-161 -190h-86z" />
    <glyph glyph-name="icircumflex" unicode="&#xee;" horiz-adv-x="355" 
d="M205 507h58v-436l13 -13l61 -5v-53h-312v53l59 5l12 13v329h-65v48zM122 748h112l110 -190h-101l-65 109l-65 -109h-101z" />
    <glyph glyph-name="idieresis" unicode="&#xef;" horiz-adv-x="355" 
d="M205 507h58v-436l13 -13l61 -5v-53h-312v53l59 5l12 13v329h-65v48zM64 729c40 0 76 -33 76 -81c0 -44 -31 -80 -76 -80c-44 0 -76 36 -76 80c0 46 35 81 76 81zM292 729c40 0 76 -33 76 -81c0 -44 -31 -80 -76 -80c-44 0 -76 36 -76 80c0 46 35 81 76 81z" />
    <glyph glyph-name="eth" unicode="&#xf0;" horiz-adv-x="645" 
d="M301 569l-118 -66l-27 47l108 58l-31 31h-85l-5 43l163 63h35l66 -67l108 57l30 -45l-102 -58c64 -79 77 -96 101 -139c43 -77 64 -153 64 -231c0 -172 -103 -270 -284 -270c-179 0 -287 94 -287 249c0 149 101 245 257 245c20 0 45 -1 71 -4c-26 40 -46 67 -64 87z
M397 417c-26 8 -42 11 -58 11c-75 0 -117 -68 -117 -190c0 -121 34 -181 103 -181c70 0 101 61 101 199c0 75 -7 114 -29 161z" />
    <glyph glyph-name="ntilde" unicode="&#xf1;" horiz-adv-x="677" 
d="M32 0v53l52 5l11 13v329h-70v48l179 59h58v-65c34 19 79 40 111 51c28 10 50 15 82 15c41 0 85 -9 114 -56c17 -28 27 -68 27 -127v-254l11 -13l54 -5v-53h-283v53l39 5l12 13v213c0 27 -1 68 -24 91s-62 24 -93 24c-19 0 -31 0 -50 -3v-325l13 -13l42 -5v-53h-285z
M447 737h65v-21c0 -30 -4 -61 -15 -84c-17 -35 -45 -48 -79 -48c-3 0 -18 0 -38 5c-22 5 -41 14 -63 25c-17 8 -32 15 -45 15c-12 0 -23 -5 -30 -20c-1 -2 -6 -14 -6 -34v-7h-67c-3 32 0 71 11 98c15 36 43 55 86 55c15 0 30 -2 46 -8l43 -18c22 -10 38 -19 57 -19
c8 0 20 2 28 16c6 12 7 35 7 45z" />
    <glyph glyph-name="ograve" unicode="&#xf2;" horiz-adv-x="648" 
d="M333 508c55 0 129 -8 190 -57c55 -44 89 -110 89 -204c0 -84 -28 -144 -74 -186c-47 -43 -117 -69 -214 -69c-61 0 -150 10 -215 70c-49 45 -73 106 -73 185c0 78 22 147 82 197c38 32 105 64 215 64zM325 445c-35 0 -61 -15 -79 -52c-9 -18 -23 -57 -23 -143
c0 -79 11 -119 22 -142c13 -27 36 -53 80 -53c48 0 70 31 81 58c8 18 19 55 19 134c0 97 -17 136 -25 151c-15 28 -37 47 -75 47zM141 748h149l98 -190h-86z" />
    <glyph glyph-name="oacute" unicode="&#xf3;" horiz-adv-x="648" 
d="M333 508c55 0 129 -8 190 -57c55 -44 89 -110 89 -204c0 -84 -28 -144 -74 -186c-47 -43 -117 -69 -214 -69c-61 0 -150 10 -215 70c-49 45 -73 106 -73 185c0 78 22 147 82 197c38 32 105 64 215 64zM325 445c-35 0 -61 -15 -79 -52c-9 -18 -23 -57 -23 -143
c0 -79 11 -119 22 -142c13 -27 36 -53 80 -53c48 0 70 31 81 58c8 18 19 55 19 134c0 97 -17 136 -25 151c-15 28 -37 47 -75 47zM371 748h149l-161 -190h-86z" />
    <glyph glyph-name="ocircumflex" unicode="&#xf4;" horiz-adv-x="648" 
d="M333 508c55 0 129 -8 190 -57c55 -44 89 -110 89 -204c0 -84 -28 -144 -74 -186c-47 -43 -117 -69 -214 -69c-61 0 -150 10 -215 70c-49 45 -73 106 -73 185c0 78 22 147 82 197c38 32 105 64 215 64zM325 445c-35 0 -61 -15 -79 -52c-9 -18 -23 -57 -23 -143
c0 -79 11 -119 22 -142c13 -27 36 -53 80 -53c48 0 70 31 81 58c8 18 19 55 19 134c0 97 -17 136 -25 151c-15 28 -37 47 -75 47zM268 748h112l110 -190h-101l-65 109l-65 -109h-101z" />
    <glyph glyph-name="otilde" unicode="&#xf5;" horiz-adv-x="648" 
d="M333 508c55 0 129 -8 190 -57c55 -44 89 -110 89 -204c0 -84 -28 -144 -74 -186c-47 -43 -117 -69 -214 -69c-61 0 -150 10 -215 70c-49 45 -73 106 -73 185c0 78 22 147 82 197c38 32 105 64 215 64zM325 445c-35 0 -61 -15 -79 -52c-9 -18 -23 -57 -23 -143
c0 -79 11 -119 22 -142c13 -27 36 -53 80 -53c48 0 70 31 81 58c8 18 19 55 19 134c0 97 -17 136 -25 151c-15 28 -37 47 -75 47zM433 737h65v-21c0 -30 -4 -61 -15 -84c-17 -35 -45 -48 -79 -48c-3 0 -18 0 -38 5c-22 5 -41 14 -63 25c-17 8 -32 15 -45 15
c-12 0 -23 -5 -30 -20c-1 -2 -6 -14 -6 -34v-7h-67c-3 32 0 71 11 98c15 36 43 55 86 55c15 0 30 -2 46 -8l43 -18c22 -10 38 -19 57 -19c8 0 20 2 28 16c6 12 7 35 7 45z" />
    <glyph glyph-name="odieresis" unicode="&#xf6;" horiz-adv-x="648" 
d="M333 508c55 0 129 -8 190 -57c55 -44 89 -110 89 -204c0 -84 -28 -144 -74 -186c-47 -43 -117 -69 -214 -69c-61 0 -150 10 -215 70c-49 45 -73 106 -73 185c0 78 22 147 82 197c38 32 105 64 215 64zM325 445c-35 0 -61 -15 -79 -52c-9 -18 -23 -57 -23 -143
c0 -79 11 -119 22 -142c13 -27 36 -53 80 -53c48 0 70 31 81 58c8 18 19 55 19 134c0 97 -17 136 -25 151c-15 28 -37 47 -75 47zM210 729c40 0 76 -33 76 -81c0 -44 -31 -80 -76 -80c-44 0 -76 36 -76 80c0 46 35 81 76 81zM438 729c40 0 76 -33 76 -81
c0 -44 -31 -80 -76 -80c-44 0 -76 36 -76 80c0 46 35 81 76 81z" />
    <glyph glyph-name="divide" unicode="&#xf7;" horiz-adv-x="833" 
d="M418 551c36 0 66 -31 66 -68s-30 -66 -67 -66c-38 0 -67 29 -67 66s31 68 68 68zM709 339v-82h-585v82h585zM418 179c35 0 65 -31 65 -67c0 -37 -29 -66 -67 -66c-37 0 -66 29 -66 65c0 38 30 68 68 68z" />
    <glyph glyph-name="oslash" unicode="&#xf8;" horiz-adv-x="648" 
d="M470 581l50 -27l-43 -76c90 -43 135 -120 135 -230c0 -165 -106 -256 -298 -256c-44 0 -72 4 -107 15l-52 -92l-50 33l49 80c-83 58 -118 123 -118 223c0 162 109 257 295 257c38 0 64 -3 90 -10zM223 149l157 276c-16 15 -31 20 -56 20c-73 0 -108 -62 -108 -194
c0 -34 2 -56 7 -102zM415 373l-162 -286c22 -23 41 -32 71 -32c75 0 108 60 108 195c0 52 -4 80 -17 123z" />
    <glyph glyph-name="ugrave" unicode="&#xf9;" horiz-adv-x="662" 
d="M187 507h58v-290c0 -48 6 -78 21 -95c20 -22 56 -24 77 -24c7 0 28 0 63 3v299h-63v48l172 59h58v-436l10 -13l59 -5v-53h-236v55c-22 -13 -58 -32 -84 -42c-32 -13 -69 -21 -102 -21c-69 0 -101 34 -117 58c-24 36 -25 67 -25 132v218h-62v48zM148 748h149l98 -190h-86z
" />
    <glyph glyph-name="uacute" unicode="&#xfa;" horiz-adv-x="662" 
d="M187 507h58v-290c0 -48 6 -78 21 -95c20 -22 56 -24 77 -24c7 0 28 0 63 3v299h-63v48l172 59h58v-436l10 -13l59 -5v-53h-236v55c-22 -13 -58 -32 -84 -42c-32 -13 -69 -21 -102 -21c-69 0 -101 34 -117 58c-24 36 -25 67 -25 132v218h-62v48zM378 748h149l-161 -190
h-86z" />
    <glyph glyph-name="ucircumflex" unicode="&#xfb;" horiz-adv-x="662" 
d="M187 507h58v-290c0 -48 6 -78 21 -95c20 -22 56 -24 77 -24c7 0 28 0 63 3v299h-63v48l172 59h58v-436l10 -13l59 -5v-53h-236v55c-22 -13 -58 -32 -84 -42c-32 -13 -69 -21 -102 -21c-69 0 -101 34 -117 58c-24 36 -25 67 -25 132v218h-62v48zM275 748h112l110 -190
h-101l-65 109l-65 -109h-101z" />
    <glyph glyph-name="udieresis" unicode="&#xfc;" horiz-adv-x="662" 
d="M187 507h58v-290c0 -48 6 -78 21 -95c20 -22 56 -24 77 -24c7 0 28 0 63 3v299h-63v48l172 59h58v-436l10 -13l59 -5v-53h-236v55c-22 -13 -58 -32 -84 -42c-32 -13 -69 -21 -102 -21c-69 0 -101 34 -117 58c-24 36 -25 67 -25 132v218h-62v48zM217 729
c40 0 76 -33 76 -81c0 -44 -31 -80 -76 -80c-44 0 -76 36 -76 80c0 46 35 81 76 81zM445 729c40 0 76 -33 76 -81c0 -44 -31 -80 -76 -80c-44 0 -76 36 -76 80c0 46 35 81 76 81z" />
    <glyph glyph-name="yacute" unicode="&#xfd;" horiz-adv-x="567" 
d="M-8 493h300v-51l-51 -9l-9 -11l103 -258l99 258l-10 11l-54 9v51h213v-51l-55 -10l-194 -453c-16 -37 -37 -75 -67 -111c-51 -61 -112 -91 -162 -91c-30 0 -53 12 -70 28c-23 22 -29 47 -29 66s6 43 28 62c21 19 47 25 53 26l85 -81c40 26 65 66 79 94l-198 458l-61 12
v51zM367 748h149l-161 -190h-86z" />
    <glyph glyph-name="thorn" unicode="&#xfe;" horiz-adv-x="663" 
d="M22 -220v53l57 5l11 13v786h-70v48l187 58h50v-303c90 53 128 68 176 68c110 0 194 -104 194 -241c0 -160 -115 -267 -287 -267c-21 0 -48 2 -83 5v-154l13 -13l66 -5l-2 -53h-312zM257 395v-333c25 -1 27 -1 34 -1c96 0 150 67 150 183c0 101 -45 156 -126 156
c-14 0 -26 -1 -58 -5z" />
    <glyph glyph-name="ydieresis" unicode="&#xff;" horiz-adv-x="567" 
d="M-8 493h300v-51l-51 -9l-9 -11l103 -258l99 258l-10 11l-54 9v51h213v-51l-55 -10l-194 -453c-16 -37 -37 -75 -67 -111c-51 -61 -112 -91 -162 -91c-30 0 -53 12 -70 28c-23 22 -29 47 -29 66s6 43 28 62c21 19 47 25 53 26l85 -81c40 26 65 66 79 94l-198 458l-61 12
v51zM216 729c40 0 76 -33 76 -81c0 -44 -31 -80 -76 -80c-44 0 -76 36 -76 80c0 46 35 81 76 81zM444 729c40 0 76 -33 76 -81c0 -44 -31 -80 -76 -80c-44 0 -76 36 -76 80c0 46 35 81 76 81z" />
    <glyph glyph-name="Amacron" unicode="&#x100;" horiz-adv-x="701" 
d="M278 676h144l232 -610l61 -8v-58h-324v58l68 5l8 13l-53 149h-213l-50 -148l10 -12l64 -7v-58h-241v58l65 4zM304 513l-79 -221h160zM169 862h361v-83h-361v83z" />
    <glyph glyph-name="amacron" unicode="&#x101;" horiz-adv-x="619" 
d="M236 448v-104h-119c-33 0 -45 7 -49 11c-10 8 -11 19 -11 28c0 21 11 58 75 89c54 26 119 36 183 36c53 0 124 -8 171 -51c44 -41 44 -87 44 -161v-225l11 -13l55 -5v-53h-221l-14 56c-25 -16 -57 -34 -84 -46c-28 -12 -60 -23 -99 -23c-42 0 -80 15 -105 39
c-23 22 -40 58 -40 98c0 31 9 81 59 116c40 28 95 41 136 51c49 12 101 23 135 30v29c0 22 -4 55 -30 76c-23 19 -70 23 -97 22zM363 105v150c-58 -8 -86 -18 -93 -21c-24 -9 -58 -29 -58 -77c0 -28 13 -46 24 -55c13 -10 31 -16 53 -16c23 0 50 9 74 19zM128 683h361v-83
h-361v83z" />
    <glyph glyph-name="Abreve" unicode="&#x102;" horiz-adv-x="701" 
d="M278 676h144l232 -610l61 -8v-58h-324v58l68 5l8 13l-53 149h-213l-50 -148l10 -12l64 -7v-58h-241v58l65 4zM304 513l-79 -221h160zM190 890h62c0 -12 3 -29 8 -40c16 -35 56 -37 86 -37c45 0 87 2 102 37c5 11 7 28 6 40h62v-12c0 -21 -2 -62 -22 -92
c-29 -43 -81 -52 -143 -52c-56 0 -110 9 -139 52c-19 28 -22 63 -22 89v15z" />
    <glyph glyph-name="abreve" unicode="&#x103;" horiz-adv-x="619" 
d="M236 448v-104h-119c-33 0 -45 7 -49 11c-10 8 -11 19 -11 28c0 21 11 58 75 89c54 26 119 36 183 36c53 0 124 -8 171 -51c44 -41 44 -87 44 -161v-225l11 -13l55 -5v-53h-221l-14 56c-25 -16 -57 -34 -84 -46c-28 -12 -60 -23 -99 -23c-42 0 -80 15 -105 39
c-23 22 -40 58 -40 98c0 31 9 81 59 116c40 28 95 41 136 51c49 12 101 23 135 30v29c0 22 -4 55 -30 76c-23 19 -70 23 -97 22zM363 105v150c-58 -8 -86 -18 -93 -21c-24 -9 -58 -29 -58 -77c0 -28 13 -46 24 -55c13 -10 31 -16 53 -16c23 0 50 9 74 19zM149 730l62 -2
c0 -12 3 -33 8 -45c15 -35 56 -37 86 -37c44 0 88 2 102 37c5 12 6 33 6 45l62 2v-19c0 -21 -2 -62 -22 -92c-29 -43 -81 -52 -143 -52c-56 0 -110 9 -139 52c-19 28 -22 63 -22 89v22z" />
    <glyph glyph-name="Aogonek" unicode="&#x104;" horiz-adv-x="701" 
d="M278 676h144l232 -610l61 -8v-58h-37c-11 -11 -26 -30 -34 -44c-7 -13 -13 -31 -13 -47c0 -14 3 -29 17 -40c12 -10 26 -11 37 -11c10 0 21 1 30 3v-85c-26 -6 -48 -8 -62 -8c-29 0 -59 6 -79 23c-19 16 -30 39 -30 72s10 55 25 80c12 19 26 38 44 57h-222v58l68 5l8 13
l-53 149h-213l-50 -148l10 -12l64 -7v-58h-241v58l65 4zM304 513l-79 -221h160z" />
    <glyph glyph-name="aogonek" unicode="&#x105;" horiz-adv-x="619" 
d="M236 448v-104h-119c-33 0 -45 7 -49 11c-10 8 -11 19 -11 28c0 21 11 58 75 89c54 26 119 36 183 36c53 0 124 -8 171 -51c44 -41 44 -87 44 -161v-225l11 -13l55 -5v-53h-37c-15 -12 -25 -25 -34 -44c-7 -15 -13 -30 -13 -47c0 -14 3 -29 17 -40c12 -10 26 -11 37 -11
c10 0 21 1 30 3v-85c-26 -6 -48 -8 -62 -8c-29 0 -59 6 -79 23c-19 16 -30 39 -30 72s10 55 25 80c14 22 29 41 44 57h-119l-14 56c-25 -16 -57 -34 -84 -46c-28 -12 -60 -23 -99 -23c-42 0 -80 15 -105 39c-23 22 -40 58 -40 98c0 31 9 81 59 116c40 28 95 41 136 51
c49 12 101 23 135 30v29c0 22 -4 55 -30 76c-23 19 -70 23 -97 22zM363 105v150c-58 -8 -86 -18 -93 -21c-24 -9 -58 -29 -58 -77c0 -28 13 -46 24 -55c13 -10 31 -16 53 -16c23 0 50 9 74 19z" />
    <glyph glyph-name="Cacute" unicode="&#x106;" horiz-adv-x="669" 
d="M638 211v-187c-90 -31 -162 -38 -215 -38c-90 0 -189 13 -276 95c-81 76 -108 173 -108 253c0 99 44 220 166 295c48 30 116 55 223 55c72 0 142 -14 210 -40v-181h-92l-24 123l-17 16c-12 3 -30 6 -52 6c-80 0 -127 -39 -144 -56c-47 -46 -75 -122 -75 -215
c0 -78 19 -149 57 -198c29 -36 81 -77 162 -77c18 0 41 3 52 4l16 15l25 130h92zM454 890h154l-160 -156h-86z" />
    <glyph glyph-name="cacute" unicode="&#x107;" horiz-adv-x="540" 
d="M349 322v132c-46 -5 -75 -29 -93 -52c-34 -44 -36 -107 -36 -133c0 -45 9 -84 31 -119c33 -51 79 -64 116 -64c11 0 28 1 51 7c33 9 79 29 107 44v-89c-45 -22 -83 -33 -99 -38c-39 -11 -77 -18 -128 -18c-53 0 -126 7 -189 70c-40 40 -73 100 -73 181
c0 80 31 144 76 188c33 32 101 77 216 77c74 0 121 -20 150 -43c35 -28 43 -60 43 -84c0 -31 -13 -49 -25 -60c-13 -12 -35 -23 -67 -23c-34 0 -63 14 -80 24zM357 748h149l-161 -190h-86z" />
    <glyph glyph-name="Ccircumflex" unicode="&#x108;" horiz-adv-x="669" 
d="M638 211v-187c-90 -31 -162 -38 -215 -38c-90 0 -189 13 -276 95c-81 76 -108 173 -108 253c0 99 44 220 166 295c48 30 116 55 223 55c72 0 142 -14 210 -40v-181h-92l-24 123l-17 16c-12 3 -30 6 -52 6c-80 0 -127 -39 -144 -56c-47 -46 -75 -122 -75 -215
c0 -78 19 -149 57 -198c29 -36 81 -77 162 -77c18 0 41 3 52 4l16 15l25 130h92zM355 890h110l110 -156h-98l-67 92l-67 -92h-98z" />
    <glyph glyph-name="ccircumflex" unicode="&#x109;" horiz-adv-x="540" 
d="M349 322v132c-46 -5 -75 -29 -93 -52c-34 -44 -36 -107 -36 -133c0 -45 9 -84 31 -119c33 -51 79 -64 116 -64c11 0 28 1 51 7c33 9 79 29 107 44v-89c-45 -22 -83 -33 -99 -38c-39 -11 -77 -18 -128 -18c-53 0 -126 7 -189 70c-40 40 -73 100 -73 181
c0 80 31 144 76 188c33 32 101 77 216 77c74 0 121 -20 150 -43c35 -28 43 -60 43 -84c0 -31 -13 -49 -25 -60c-13 -12 -35 -23 -67 -23c-34 0 -63 14 -80 24zM264 748h112l110 -190h-101l-65 109l-65 -109h-101z" />
    <glyph glyph-name="Ccaron" unicode="&#x10c;" horiz-adv-x="669" 
d="M638 211v-187c-90 -31 -162 -38 -215 -38c-90 0 -189 13 -276 95c-81 76 -108 173 -108 253c0 99 44 220 166 295c48 30 116 55 223 55c72 0 142 -14 210 -40v-181h-92l-24 123l-17 16c-12 3 -30 6 -52 6c-80 0 -127 -39 -144 -56c-47 -46 -75 -122 -75 -215
c0 -78 19 -149 57 -198c29 -36 81 -77 162 -77c18 0 41 3 52 4l16 15l25 130h92zM465 734h-110l-110 156h98l67 -92l67 92h98z" />
    <glyph glyph-name="ccaron" unicode="&#x10d;" horiz-adv-x="540" 
d="M349 322v132c-46 -5 -75 -29 -93 -52c-34 -44 -36 -107 -36 -133c0 -45 9 -84 31 -119c33 -51 79 -64 116 -64c11 0 28 1 51 7c33 9 79 29 107 44v-89c-45 -22 -83 -33 -99 -38c-39 -11 -77 -18 -128 -18c-53 0 -126 7 -189 70c-40 40 -73 100 -73 181
c0 80 31 144 76 188c33 32 101 77 216 77c74 0 121 -20 150 -43c35 -28 43 -60 43 -84c0 -31 -13 -49 -25 -60c-13 -12 -35 -23 -67 -23c-34 0 -63 14 -80 24zM154 747h101l65 -109l65 109h101l-110 -190h-112z" />
    <glyph glyph-name="Dcaron" unicode="&#x10e;" horiz-adv-x="782" 
d="M28 671h348c77 0 177 -11 257 -76c79 -63 110 -154 110 -261c0 -129 -48 -202 -94 -245c-41 -38 -123 -89 -273 -89h-348v58l67 4l16 19v513l-16 15l-67 4v58zM289 67h41c63 0 121 14 164 72c44 59 49 143 49 199c0 46 -3 133 -48 193c-49 65 -116 73 -165 73h-41v-537z
M425 734h-110l-110 156h98l67 -92l67 92h98z" />
    <glyph glyph-name="dcaron" unicode="&#x10f;" horiz-adv-x="784" 
d="M409 637h-72v48l181 58h58v-672l13 -13l57 -5v-53h-237v61c-27 -19 -63 -39 -89 -50c-22 -9 -50 -19 -83 -19c-46 0 -97 14 -141 65c-37 44 -60 106 -60 182c0 101 40 165 83 204c40 36 101 65 181 65c27 0 69 -3 109 -10v139zM409 101v325c-31 13 -52 15 -65 15
c-40 0 -63 -12 -84 -38c-25 -32 -40 -80 -40 -145c0 -58 14 -88 21 -102c28 -51 73 -60 115 -60c17 0 37 2 53 5zM616 488v49c18 3 39 12 53 25c26 23 29 58 29 74h-60c-11 9 -22 23 -22 48c0 19 9 37 21 48s31 18 55 18c34 0 55 -14 65 -24c17 -16 27 -41 27 -71
c0 -43 -22 -86 -54 -115s-77 -46 -114 -52z" />
    <glyph glyph-name="Dcroat" unicode="&#x110;" horiz-adv-x="782" 
d="M28 671h348c233 0 367 -123 367 -336c0 -214 -133 -335 -367 -335h-348v58l67 4l16 19v234h-92v74h92v205l-16 15l-67 4v58zM289 67h41c143 0 213 88 213 267c0 182 -69 270 -213 270h-41v-215h122v-74h-122v-248z" />
    <glyph glyph-name="dcroat" unicode="&#x111;" horiz-adv-x="664" 
d="M409 637h-72v48l181 58h58v-146h101v-70h-101v-456l13 -13l57 -5v-53h-237v61c-27 -19 -63 -39 -89 -50c-22 -9 -50 -19 -83 -19c-45 0 -97 14 -141 65c-37 43 -60 107 -60 182c0 85 30 149 83 196c41 36 100 63 181 63c27 0 69 -3 109 -10v49h-200v60h200v40zM409 101
v315c-31 13 -52 15 -65 15c-33 0 -60 -8 -84 -36c-21 -24 -40 -66 -40 -137c0 -37 6 -75 21 -102c28 -51 73 -60 115 -60c17 0 37 2 53 5z" />
    <glyph glyph-name="Emacron" unicode="&#x112;" horiz-adv-x="643" 
d="M28 0v58l67 4l16 19v513l-16 15l-67 4v58h550v-167h-86l-16 88l-14 11h-177v-221h105l15 14l10 72h71v-246h-71l-10 72l-15 14h-105v-240h208l14 16l16 110h86v-194h-581zM140 862h361v-83h-361v83z" />
    <glyph glyph-name="emacron" unicode="&#x113;" horiz-adv-x="585" 
d="M552 141v-92c-29 -14 -56 -25 -86 -34c-48 -15 -91 -23 -150 -23c-52 0 -130 8 -192 57c-43 33 -88 94 -88 197c0 109 49 170 87 201c40 33 100 61 190 61c73 0 144 -21 192 -82c44 -56 50 -124 50 -165v-14h-345c1 -41 15 -86 36 -112c33 -41 81 -47 118 -47
c41 0 76 7 111 19c24 8 54 22 77 34zM214 310h163c-2 76 -16 101 -22 109c-17 23 -39 26 -55 26c-23 0 -42 -5 -59 -26c-20 -25 -25 -61 -27 -109zM125 683h361v-83h-361v83z" />
    <glyph glyph-name="Edotaccent" unicode="&#x116;" horiz-adv-x="643" 
d="M28 0v58l67 4l16 19v513l-16 15l-67 4v58h550v-167h-86l-16 88l-14 11h-177v-221h105l15 14l10 72h71v-246h-71l-10 72l-15 14h-105v-240h208l14 16l16 110h86v-194h-581zM241 815c0 44 36 80 80 80s80 -36 80 -80s-36 -80 -80 -80s-80 36 -80 80z" />
    <glyph glyph-name="edotaccent" unicode="&#x117;" horiz-adv-x="585" 
d="M552 141v-92c-29 -14 -56 -25 -86 -34c-48 -15 -91 -23 -150 -23c-52 0 -130 8 -192 57c-43 33 -88 94 -88 197c0 109 49 170 87 201c40 33 100 61 190 61c73 0 144 -21 192 -82c44 -56 50 -124 50 -165v-14h-345c1 -41 15 -86 36 -112c33 -41 81 -47 118 -47
c41 0 76 7 111 19c24 8 54 22 77 34zM214 310h163c-2 76 -16 101 -22 109c-17 23 -39 26 -55 26c-23 0 -42 -5 -59 -26c-20 -25 -25 -61 -27 -109zM306 730c21 0 41 -8 56 -25c9 -10 20 -28 20 -56s-11 -46 -20 -56c-15 -17 -35 -25 -56 -25s-41 8 -56 25
c-9 10 -20 28 -20 56s11 46 20 56c15 17 35 25 56 25z" />
    <glyph glyph-name="Eogonek" unicode="&#x118;" horiz-adv-x="643" 
d="M28 0v58l67 4l16 19v513l-16 15l-67 4v58h550v-167h-86l-16 88l-14 11h-177v-221h105l15 14l10 72h71v-246h-71l-10 72l-15 14h-105v-240h208l14 16l16 110h86v-194h-37c-15 -12 -25 -25 -34 -44c-7 -15 -13 -30 -13 -47c0 -14 3 -29 17 -40c12 -10 26 -11 37 -11
c10 0 21 1 30 3v-85c-26 -6 -48 -8 -62 -8c-29 0 -59 6 -79 23c-19 16 -30 39 -30 72s10 55 25 80c14 22 29 41 44 57h-479z" />
    <glyph glyph-name="eogonek" unicode="&#x119;" horiz-adv-x="585" 
d="M552 141v-92c-30 -15 -79 -36 -145 -49c-20 -18 -30 -37 -34 -44c-6 -11 -13 -28 -13 -47c0 -14 3 -29 17 -40c12 -10 26 -11 37 -11c10 0 21 1 30 3v-85c-26 -6 -48 -8 -62 -8c-29 0 -59 6 -79 23c-19 16 -30 39 -30 72s10 55 25 80c13 21 25 36 37 49
c-86 -2 -157 15 -211 57c-43 34 -88 94 -88 197c0 109 49 170 87 201c40 33 100 61 190 61c73 0 144 -21 192 -82c44 -56 50 -124 50 -165v-14h-345c1 -41 15 -86 36 -112c33 -41 81 -47 118 -47c41 0 76 7 111 19c24 8 54 22 77 34zM214 310h163c-2 76 -16 101 -22 109
c-17 23 -39 26 -55 26c-23 0 -42 -5 -59 -26c-20 -25 -25 -61 -27 -109z" />
    <glyph glyph-name="Ecaron" unicode="&#x11a;" horiz-adv-x="643" 
d="M28 0v58l67 4l16 19v513l-16 15l-67 4v58h550v-167h-86l-16 88l-14 11h-177v-221h105l15 14l10 72h71v-246h-71l-10 72l-15 14h-105v-240h208l14 16l16 110h86v-194h-581zM376 734h-110l-110 156h98l67 -92l67 92h98z" />
    <glyph glyph-name="ecaron" unicode="&#x11b;" horiz-adv-x="585" 
d="M552 141v-92c-29 -14 -56 -25 -86 -34c-48 -15 -91 -23 -150 -23c-52 0 -130 8 -192 57c-43 33 -88 94 -88 197c0 109 49 170 87 201c40 33 100 61 190 61c73 0 144 -21 192 -82c44 -56 50 -124 50 -165v-14h-345c1 -41 15 -86 36 -112c33 -41 81 -47 118 -47
c41 0 76 7 111 19c24 8 54 22 77 34zM214 310h163c-2 76 -16 101 -22 109c-17 23 -39 26 -55 26c-23 0 -42 -5 -59 -26c-20 -25 -25 -61 -27 -109zM140 747h101l65 -109l65 109h101l-110 -190h-112z" />
    <glyph glyph-name="Gcircumflex" unicode="&#x11c;" horiz-adv-x="766" 
d="M397 338h345v-57l-63 -5l-16 -14v-228c-65 -25 -147 -46 -238 -46c-74 0 -169 12 -252 71c-119 86 -134 212 -134 277c0 132 60 222 136 275c57 40 139 70 255 70c75 0 156 -13 233 -36v-182h-92l-22 121l-18 16c-27 6 -40 9 -61 9c-83 0 -138 -33 -171 -67
c-36 -37 -71 -101 -71 -204c0 -121 48 -217 147 -258c35 -14 75 -21 117 -19v201l-17 14l-78 5v57zM365 890h110l110 -156h-98l-67 92l-67 -92h-98z" />
    <glyph glyph-name="gcircumflex" unicode="&#x11d;" horiz-adv-x="613" 
d="M461 472h158v-66h-110c17 -27 20 -53 20 -71c0 -69 -42 -107 -65 -123c-46 -32 -119 -43 -175 -43c-18 0 -33 1 -49 3c-2 -6 -4 -17 -4 -30s2 -24 4 -30l41 -4c91 -9 167 -20 218 -43c59 -26 71 -64 71 -95c0 -43 -18 -91 -76 -129c-81 -54 -198 -58 -233 -58
c-93 0 -146 20 -175 38c-48 29 -61 70 -61 104c0 37 15 63 37 79c20 14 48 21 70 21c-8 14 -18 36 -18 59c0 26 10 41 22 55c11 13 25 26 42 37c-25 8 -63 26 -86 46c-32 28 -44 64 -44 106c0 69 33 112 75 138c44 28 108 39 162 39c18 0 48 -2 67 -5c35 -5 80 -18 109 -28z
M293 448c-30 0 -45 -21 -52 -33c-15 -26 -18 -57 -18 -80c0 -32 5 -57 14 -76c8 -17 23 -40 54 -40c14 0 39 5 56 39c13 26 16 59 16 83c0 23 -2 51 -15 73c-17 31 -42 34 -55 34zM278 -4l-82 12c-9 -27 -10 -45 -10 -55c0 -29 10 -53 32 -74c23 -22 51 -35 89 -35
c36 0 60 12 76 28c18 18 22 36 22 54s-5 40 -36 52c-20 8 -56 13 -91 18zM234 748h112l110 -190h-101l-65 109l-65 -109h-101z" />
    <glyph glyph-name="Gbreve" unicode="&#x11e;" horiz-adv-x="766" 
d="M397 338h345v-57l-63 -5l-16 -14v-228c-65 -25 -147 -46 -238 -46c-74 0 -169 12 -252 71c-119 86 -134 212 -134 277c0 132 60 222 136 275c57 40 139 70 255 70c75 0 156 -13 233 -36v-182h-92l-22 121l-18 16c-27 6 -40 9 -61 9c-83 0 -138 -33 -171 -67
c-36 -37 -71 -101 -71 -204c0 -121 48 -217 147 -258c35 -14 75 -21 117 -19v201l-17 14l-78 5v57zM260 890h62c0 -12 3 -29 8 -40c16 -35 56 -37 86 -37c45 0 87 2 102 37c5 11 7 28 6 40h62v-12c0 -21 -2 -62 -22 -92c-29 -43 -81 -52 -143 -52c-56 0 -110 9 -139 52
c-19 28 -22 63 -22 89v15z" />
    <glyph glyph-name="gbreve" unicode="&#x11f;" horiz-adv-x="613" 
d="M461 472h158v-66h-110c17 -27 20 -53 20 -71c0 -69 -42 -107 -65 -123c-46 -32 -119 -43 -175 -43c-18 0 -33 1 -49 3c-2 -6 -4 -17 -4 -30s2 -24 4 -30l41 -4c91 -9 167 -20 218 -43c59 -26 71 -64 71 -95c0 -43 -18 -91 -76 -129c-81 -54 -198 -58 -233 -58
c-93 0 -146 20 -175 38c-48 29 -61 70 -61 104c0 37 15 63 37 79c20 14 48 21 70 21c-8 14 -18 36 -18 59c0 26 10 41 22 55c11 13 25 26 42 37c-25 8 -63 26 -86 46c-32 28 -44 64 -44 106c0 69 33 112 75 138c44 28 108 39 162 39c18 0 48 -2 67 -5c35 -5 80 -18 109 -28z
M293 448c-30 0 -45 -21 -52 -33c-15 -26 -18 -57 -18 -80c0 -32 5 -57 14 -76c8 -17 23 -40 54 -40c14 0 39 5 56 39c13 26 16 59 16 83c0 23 -2 51 -15 73c-17 31 -42 34 -55 34zM278 -4l-82 12c-9 -27 -10 -45 -10 -55c0 -29 10 -53 32 -74c23 -22 51 -35 89 -35
c36 0 60 12 76 28c18 18 22 36 22 54s-5 40 -36 52c-20 8 -56 13 -91 18zM130 730l62 -2c0 -12 3 -33 8 -45c15 -35 56 -37 86 -37c44 0 88 2 102 37c5 12 6 33 6 45l62 2v-19c0 -21 -2 -62 -22 -92c-29 -43 -81 -52 -143 -52c-56 0 -110 9 -139 52c-19 28 -22 63 -22 89v22
z" />
    <glyph glyph-name="Gcommaaccent" unicode="&#x122;" horiz-adv-x="766" 
d="M397 338h345v-57l-63 -5l-16 -14v-228c-65 -25 -147 -46 -238 -46c-74 0 -169 12 -252 71c-119 86 -134 212 -134 277c0 132 60 222 136 275c57 40 139 70 255 70c75 0 156 -13 233 -36v-182h-92l-22 121l-18 16c-27 6 -40 9 -61 9c-83 0 -138 -33 -171 -67
c-36 -37 -71 -101 -71 -204c0 -121 48 -217 147 -258c35 -14 75 -21 117 -19v201l-17 14l-78 5v57zM344 -312v49c18 3 39 12 53 25c26 23 29 58 29 74h-60c-11 9 -22 23 -22 48c0 19 9 37 21 48s31 18 55 18c34 0 55 -14 65 -24c17 -16 27 -41 27 -71
c0 -43 -22 -86 -54 -115s-77 -46 -114 -52z" />
    <glyph glyph-name="gcommaaccent" unicode="&#x123;" horiz-adv-x="613" 
d="M461 472h158v-66h-110c17 -27 20 -53 20 -71c0 -69 -42 -107 -65 -123c-46 -32 -119 -43 -175 -43c-18 0 -33 1 -49 3c-2 -6 -4 -17 -4 -30s2 -24 4 -30l41 -4c91 -9 167 -20 218 -43c59 -26 71 -64 71 -95c0 -43 -18 -91 -76 -129c-81 -54 -198 -58 -233 -58
c-93 0 -146 20 -175 38c-48 29 -61 70 -61 104c0 37 15 63 37 79c20 14 48 21 70 21c-8 14 -18 36 -18 59c0 26 10 41 22 55c11 13 25 26 42 37c-25 8 -63 26 -86 46c-32 28 -44 64 -44 106c0 69 33 112 75 138c44 28 108 39 162 39c18 0 48 -2 67 -5c35 -5 80 -18 109 -28z
M293 448c-30 0 -45 -21 -52 -33c-15 -26 -18 -57 -18 -80c0 -32 5 -57 14 -76c8 -17 23 -40 54 -40c14 0 39 5 56 39c13 26 16 59 16 83c0 23 -2 51 -15 73c-17 31 -42 34 -55 34zM278 -4l-82 12c-9 -27 -10 -45 -10 -55c0 -29 10 -53 32 -74c23 -22 51 -35 89 -35
c36 0 60 12 76 28c18 18 22 36 22 54s-5 40 -36 52c-20 8 -56 13 -91 18zM379 820v-49c-18 -3 -39 -12 -53 -25c-26 -23 -29 -58 -29 -74h60c11 -9 22 -23 22 -48c0 -19 -9 -37 -21 -48s-31 -18 -55 -18c-34 0 -55 14 -65 24c-17 16 -27 41 -27 71c0 43 22 86 54 115
s77 46 114 52z" />
    <glyph glyph-name="Hcircumflex" unicode="&#x124;" horiz-adv-x="819" 
d="M28 671h332v-58l-60 -4l-16 -15v-205h251v205l-16 15l-60 4v58h332v-58l-62 -4l-16 -15v-513l16 -19l62 -4v-58h-332v58l60 4l16 19v234h-251v-234l16 -19l60 -4v-58h-332v58l61 4l17 19v513l-17 15l-61 4v58zM354 890h110l110 -156h-98l-67 92l-67 -92h-98z" />
    <glyph glyph-name="hcircumflex" unicode="&#x125;" horiz-adv-x="674" 
d="M200 743h58v-301c36 20 90 45 133 57c24 7 43 9 61 9c47 0 86 -14 110 -49c27 -38 31 -93 31 -134v-254l11 -13l54 -5v-53h-283v53l40 5l11 13v213c0 29 -1 68 -24 91s-68 24 -93 24c-20 0 -34 -1 -51 -3v-325l14 -13l42 -5v-53h-286v53l51 5l12 13v566h-71v48zM135 920
h110l110 -156h-98l-67 92l-67 -92h-98z" />
    <glyph glyph-name="Imacron" unicode="&#x12a;" horiz-adv-x="412" 
d="M28 0v58l72 4l16 19v513l-16 15l-72 4v58h356v-58l-74 -4l-16 -15v-513l16 -19l74 -4v-58h-356zM25 862h361v-83h-361v83z" />
    <glyph glyph-name="imacron" unicode="&#x12b;" horiz-adv-x="355" 
d="M205 507h58v-436l13 -13l61 -5v-53h-312v53l59 5l12 13v329h-65v48zM-3 683h361v-83h-361v83z" />
    <glyph glyph-name="Iogonek" unicode="&#x12e;" horiz-adv-x="412" 
d="M28 0v58l72 4l16 19v513l-16 15l-72 4v58h356v-58l-74 -4l-16 -15v-513l16 -19l74 -4v-58h-37c-15 -12 -25 -25 -34 -44c-7 -15 -13 -30 -13 -47c0 -14 3 -29 17 -40c12 -10 26 -11 37 -11c10 0 21 1 30 3v-85c-26 -6 -48 -8 -62 -8c-29 0 -59 6 -79 23
c-19 16 -30 39 -30 72s10 55 25 80c14 22 29 41 44 57h-254z" />
    <glyph glyph-name="iogonek" unicode="&#x12f;" horiz-adv-x="354" 
d="M204 507h58v-436l13 -13l61 -5v-53h-37c-11 -11 -26 -30 -34 -44c-7 -13 -13 -31 -13 -47c0 -14 3 -29 17 -40c12 -10 26 -11 37 -11c10 0 21 1 30 3v-85c-26 -6 -48 -8 -62 -8c-29 0 -59 6 -79 23c-19 16 -30 39 -30 72s10 55 25 80c12 19 26 38 44 57h-210v53l59 5
l12 13v329h-65v48zM88 648c0 51 41 92 92 92s92 -41 92 -92s-41 -92 -92 -92s-92 41 -92 92z" />
    <glyph glyph-name="Idotaccent" unicode="&#x130;" horiz-adv-x="412" 
d="M28 0v58l72 4l16 19v513l-16 15l-72 4v58h356v-58l-74 -4l-16 -15v-513l16 -19l74 -4v-58h-356zM126 815c0 44 36 80 80 80s80 -36 80 -80s-36 -80 -80 -80s-80 36 -80 80z" />
    <glyph glyph-name="dotlessi" unicode="&#x131;" horiz-adv-x="355" 
d="M205 507h58v-436l13 -13l61 -5v-53h-312v53l59 5l12 13v329h-65v48z" />
    <glyph glyph-name="Jcircumflex" unicode="&#x134;" horiz-adv-x="530" 
d="M160 671h349v-57l-62 -5l-17 -15v-325c0 -88 -14 -170 -70 -222c-58 -54 -143 -59 -194 -59c-30 0 -78 2 -154 24v192h92l23 -136l13 -13c31 1 59 14 75 31c32 34 37 100 37 184v324l-17 15l-75 4v58zM275 890h110l110 -156h-98l-67 92l-67 -92h-98z" />
    <glyph glyph-name="Kcommaaccent" unicode="&#x136;" horiz-adv-x="730" 
d="M28 0v58l67 4l16 19v513l-16 15l-67 4v58h335v-58l-58 -4l-16 -15v-251h22l222 253l-5 12l-60 5v58h250v-58l-76 -5l-179 -204l209 -340l74 -6v-58h-257v39l-153 250h-47v-208l16 -19l58 -4v-58h-335zM314 -312v49c18 3 39 12 53 25c26 23 29 58 29 74h-60
c-11 9 -22 23 -22 48c0 19 9 37 21 48s31 18 55 18c34 0 55 -14 65 -24c17 -16 27 -41 27 -71c0 -43 -22 -86 -54 -115s-77 -46 -114 -52z" />
    <glyph glyph-name="kcommaaccent" unicode="&#x137;" horiz-adv-x="631" 
d="M31 0v53l49 5l13 13v566h-73v48l194 58h46v-480h28l141 162l-7 10l-46 5v53h227v-53l-71 -8l-96 -108l149 -266l59 -5v-53h-236v45l-102 181h-46v-155l9 -13l55 -5v-53h-293zM239 -312v49c18 3 39 12 53 25c26 23 29 58 29 74h-60c-11 9 -22 23 -22 48c0 19 9 37 21 48
s31 18 55 18c34 0 55 -14 65 -24c17 -16 27 -41 27 -71c0 -43 -22 -86 -54 -115s-77 -46 -114 -52z" />
    <glyph glyph-name="Lacute" unicode="&#x139;" horiz-adv-x="599" 
d="M28 0v58l60 4l19 19v513l-13 15l-66 4v58h341v-58l-67 -4l-17 -15v-526h169l12 16l16 127h98v-211h-552zM264 890h154l-160 -156h-86z" />
    <glyph glyph-name="lacute" unicode="&#x13a;" horiz-adv-x="351" 
d="M20 0v53l58 5l13 13v566h-69v48l186 58h50v-672l14 -13l61 -5v-53h-313zM204 920h154l-160 -156h-86z" />
    <glyph glyph-name="Lcommaaccent" unicode="&#x13b;" horiz-adv-x="599" 
d="M28 0v58l60 4l19 19v513l-13 15l-66 4v58h341v-58l-67 -4l-17 -15v-526h169l12 16l16 127h98v-211h-552zM223 -312v49c18 3 39 12 53 25c26 23 29 58 29 74h-60c-11 9 -22 23 -22 48c0 19 9 37 21 48s31 18 55 18c34 0 55 -14 65 -24c17 -16 27 -41 27 -71
c0 -43 -22 -86 -54 -115s-77 -46 -114 -52z" />
    <glyph glyph-name="lcommaaccent" unicode="&#x13c;" horiz-adv-x="351" 
d="M20 0v53l58 5l13 13v566h-69v48l186 58h50v-672l14 -13l61 -5v-53h-313zM100 -312v49c18 3 39 12 53 25c26 23 29 58 29 74h-60c-11 9 -22 23 -22 48c0 19 9 37 21 48s31 18 55 18c34 0 55 -14 65 -24c17 -16 27 -41 27 -71c0 -43 -22 -86 -54 -115s-77 -46 -114 -52z
" />
    <glyph glyph-name="Lcaron" unicode="&#x13d;" horiz-adv-x="599" 
d="M28 0v58l60 4l19 19v513l-13 15l-66 4v58h341v-58l-67 -4l-17 -15v-526h169l12 16l16 127h98v-211h-552zM426 422v49c18 3 39 12 53 25c26 23 29 58 29 74h-60c-11 9 -22 23 -22 48c0 19 9 37 21 48s31 18 55 18c34 0 55 -14 65 -24c17 -16 27 -41 27 -71
c0 -43 -22 -86 -54 -115s-77 -46 -114 -52z" />
    <glyph glyph-name="lcaron" unicode="&#x13e;" horiz-adv-x="471" 
d="M20 0v53l58 5l13 13v566h-69v48l186 58h50v-672l14 -13l61 -5v-53h-313zM303 488v49c18 3 39 12 53 25c26 23 29 58 29 74h-60c-11 9 -22 23 -22 48c0 19 9 37 21 48s31 18 55 18c34 0 55 -14 65 -24c17 -16 27 -41 27 -71c0 -43 -22 -86 -54 -115s-77 -46 -114 -52z" />
    <glyph glyph-name="Lslash" unicode="&#x141;" horiz-adv-x="606" 
d="M35 671h341v-58l-67 -4l-17 -15v-147l105 69l37 -52l-142 -91v-304h170l12 17l14 125h99v-211h-552v58l60 4l19 19v183l-71 -49l-29 53l100 69v257l-13 15l-66 4v58z" />
    <glyph glyph-name="lslash" unicode="&#x142;" horiz-adv-x="371" 
d="M224 743h51v-282l77 53l35 -51l-112 -77v-315l14 -13l61 -5v-53h-313v53l58 5l13 13v206l-68 -48l-32 51l100 68v289h-69v48z" />
    <glyph glyph-name="Nacute" unicode="&#x143;" horiz-adv-x="779" 
d="M23 0v58l61 4l19 19v513l-13 15l-67 4v58h282v-27l287 -445v395l-18 15l-65 4v58h253v-58l-59 -4l-19 -15v-594h-159l-331 510v-429l14 -19l67 -6v-56h-252zM433 890h154l-160 -156h-86z" />
    <glyph glyph-name="nacute" unicode="&#x144;" horiz-adv-x="677" 
d="M32 0v53l52 5l11 13v329h-70v48l179 59h58v-65c34 19 79 40 111 51c28 10 50 15 82 15c41 0 85 -9 114 -56c17 -28 27 -68 27 -127v-254l11 -13l54 -5v-53h-283v53l39 5l12 13v213c0 27 -1 68 -24 91s-62 24 -93 24c-19 0 -31 0 -50 -3v-325l13 -13l42 -5v-53h-285z
M385 748h149l-161 -190h-86z" />
    <glyph glyph-name="Ncommaaccent" unicode="&#x145;" horiz-adv-x="779" 
d="M23 0v58l61 4l19 19v513l-13 15l-67 4v58h282v-27l287 -445v395l-18 15l-65 4v58h253v-58l-59 -4l-19 -15v-594h-159l-331 510v-429l14 -19l67 -6v-56h-252zM313 -312v49c18 3 39 12 53 25c26 23 29 58 29 74h-60c-11 9 -22 23 -22 48c0 19 9 37 21 48s31 18 55 18
c34 0 55 -14 65 -24c17 -16 27 -41 27 -71c0 -43 -22 -86 -54 -115s-77 -46 -114 -52z" />
    <glyph glyph-name="ncommaaccent" unicode="&#x146;" horiz-adv-x="677" 
d="M32 0v53l52 5l11 13v329h-70v48l179 59h58v-65c34 19 79 40 111 51c28 10 50 15 82 15c41 0 85 -9 114 -56c17 -28 27 -68 27 -127v-254l11 -13l54 -5v-53h-283v53l39 5l12 13v213c0 27 -1 68 -24 91s-62 24 -93 24c-19 0 -31 0 -50 -3v-325l13 -13l42 -5v-53h-285z
M262 -312v49c18 3 39 12 53 25c26 23 29 58 29 74h-60c-11 9 -22 23 -22 48c0 19 9 37 21 48s31 18 55 18c34 0 55 -14 65 -24c17 -16 27 -41 27 -71c0 -43 -22 -86 -54 -115s-77 -46 -114 -52z" />
    <glyph glyph-name="Ncaron" unicode="&#x147;" horiz-adv-x="779" 
d="M23 0v58l61 4l19 19v513l-13 15l-67 4v58h282v-27l287 -445v395l-18 15l-65 4v58h253v-58l-59 -4l-19 -15v-594h-159l-331 510v-429l14 -19l67 -6v-56h-252zM444 734h-110l-110 156h98l67 -92l67 92h98z" />
    <glyph glyph-name="ncaron" unicode="&#x148;" horiz-adv-x="677" 
d="M32 0v53l52 5l11 13v329h-70v48l179 59h58v-65c34 19 79 40 111 51c28 10 50 15 82 15c41 0 85 -9 114 -56c17 -28 27 -68 27 -127v-254l11 -13l54 -5v-53h-283v53l39 5l12 13v213c0 27 -1 68 -24 91s-62 24 -93 24c-19 0 -31 0 -50 -3v-325l13 -13l42 -5v-53h-285z
M172 747h101l65 -109l65 109h101l-110 -190h-112z" />
    <glyph glyph-name="Omacron" unicode="&#x14c;" horiz-adv-x="815" 
d="M411 685c80 0 159 -19 230 -71c93 -69 135 -173 135 -278c0 -98 -36 -198 -121 -268c-63 -52 -151 -85 -254 -85c-94 0 -177 28 -238 77c-66 53 -124 145 -124 278c0 72 18 191 124 272c55 42 138 75 248 75zM406 609c-33 0 -75 -12 -110 -58c-38 -51 -57 -131 -57 -219
c0 -103 26 -172 59 -215c34 -44 75 -58 111 -58c31 0 73 11 107 54c42 54 60 141 60 227c0 105 -26 170 -53 207c-40 55 -89 62 -117 62zM226 862h361v-83h-361v83z" />
    <glyph glyph-name="omacron" unicode="&#x14d;" horiz-adv-x="648" 
d="M333 508c55 0 129 -8 190 -57c55 -44 89 -110 89 -204c0 -84 -28 -144 -74 -186c-47 -43 -117 -69 -214 -69c-61 0 -150 10 -215 70c-49 45 -73 106 -73 185c0 78 22 147 82 197c38 32 105 64 215 64zM325 445c-35 0 -61 -15 -79 -52c-9 -18 -23 -57 -23 -143
c0 -79 11 -119 22 -142c13 -27 36 -53 80 -53c48 0 70 31 81 58c8 18 19 55 19 134c0 97 -17 136 -25 151c-15 28 -37 47 -75 47zM143 683h361v-83h-361v83z" />
    <glyph glyph-name="Obreve" unicode="&#x14e;" horiz-adv-x="815" 
d="M411 685c80 0 159 -19 230 -71c93 -69 135 -173 135 -278c0 -98 -36 -198 -121 -268c-63 -52 -151 -85 -254 -85c-94 0 -177 28 -238 77c-66 53 -124 145 -124 278c0 72 18 191 124 272c55 42 138 75 248 75zM406 609c-33 0 -75 -12 -110 -58c-38 -51 -57 -131 -57 -219
c0 -103 26 -172 59 -215c34 -44 75 -58 111 -58c31 0 73 11 107 54c42 54 60 141 60 227c0 105 -26 170 -53 207c-40 55 -89 62 -117 62zM247 890h62c0 -12 3 -29 8 -40c16 -35 56 -37 86 -37c45 0 87 2 102 37c5 11 7 28 6 40h62v-12c0 -21 -2 -62 -22 -92
c-29 -43 -81 -52 -143 -52c-56 0 -110 9 -139 52c-19 28 -22 63 -22 89v15z" />
    <glyph glyph-name="obreve" unicode="&#x14f;" horiz-adv-x="648" 
d="M333 508c55 0 129 -8 190 -57c55 -44 89 -110 89 -204c0 -84 -28 -144 -74 -186c-47 -43 -117 -69 -214 -69c-61 0 -150 10 -215 70c-49 45 -73 106 -73 185c0 78 22 147 82 197c38 32 105 64 215 64zM325 445c-35 0 -61 -15 -79 -52c-9 -18 -23 -57 -23 -143
c0 -79 11 -119 22 -142c13 -27 36 -53 80 -53c48 0 70 31 81 58c8 18 19 55 19 134c0 97 -17 136 -25 151c-15 28 -37 47 -75 47zM164 730l62 -2c0 -12 3 -33 8 -45c15 -35 56 -37 86 -37c44 0 88 2 102 37c5 12 6 33 6 45l62 2v-19c0 -21 -2 -62 -22 -92
c-29 -43 -81 -52 -143 -52c-56 0 -110 9 -139 52c-19 28 -22 63 -22 89v22z" />
    <glyph glyph-name="Ohungarumlaut" unicode="&#x150;" horiz-adv-x="815" 
d="M411 685c80 0 159 -19 230 -71c93 -69 135 -173 135 -278c0 -98 -36 -198 -121 -268c-63 -52 -151 -85 -254 -85c-94 0 -177 28 -238 77c-66 53 -124 145 -124 278c0 72 18 191 124 272c55 42 138 75 248 75zM406 609c-33 0 -75 -12 -110 -58c-38 -51 -57 -131 -57 -219
c0 -103 26 -172 59 -215c34 -44 75 -58 111 -58c31 0 73 11 107 54c42 54 60 141 60 227c0 105 -26 170 -53 207c-40 55 -89 62 -117 62zM368 890h136l-152 -156h-74zM554 890h154l-179 -156h-86z" />
    <glyph glyph-name="ohungarumlaut" unicode="&#x151;" horiz-adv-x="648" 
d="M333 508c55 0 129 -8 190 -57c55 -44 89 -110 89 -204c0 -84 -28 -144 -74 -186c-47 -43 -117 -69 -214 -69c-61 0 -150 10 -215 70c-49 45 -73 106 -73 185c0 78 22 147 82 197c38 32 105 64 215 64zM325 445c-35 0 -61 -15 -79 -52c-9 -18 -23 -57 -23 -143
c0 -79 11 -119 22 -142c13 -27 36 -53 80 -53c48 0 70 31 81 58c8 18 19 55 19 134c0 97 -17 136 -25 151c-15 28 -37 47 -75 47zM251 748h131l-152 -190h-74zM431 748h149l-180 -190h-85z" />
    <glyph glyph-name="OE" unicode="&#x152;" horiz-adv-x="1069" 
d="M551 603v68h453v-167h-81l-13 78l-21 22h-175v-222h106l15 15l7 71h70v-246h-70l-8 70l-17 20h-103v-245h206l14 16l18 111h84v-194h-484v75c-66 -65 -121 -89 -205 -89c-183 0 -308 143 -308 351s129 347 322 347c86 0 139 -22 190 -81zM393 605
c-96 0 -159 -107 -159 -270c0 -161 66 -270 163 -270c95 0 157 108 157 272c0 167 -61 268 -161 268z" />
    <glyph glyph-name="oe" unicode="&#x153;" horiz-adv-x="940" 
d="M910 247h-335c3 -54 12 -81 32 -109c26 -33 63 -50 112 -50c65 0 119 15 188 53v-92c-84 -41 -149 -57 -227 -57s-127 17 -182 61c-65 -47 -108 -61 -194 -61c-167 0 -268 97 -268 257c0 161 104 259 275 259c83 0 142 -20 191 -63c50 42 110 63 181 63
c101 0 175 -47 208 -133c14 -38 19 -72 19 -128zM310 445c-64 0 -96 -64 -96 -196s31 -194 97 -194c65 0 95 60 95 191c0 138 -29 199 -96 199zM579 310h155c-2 100 -21 135 -72 135c-56 0 -81 -41 -83 -135z" />
    <glyph glyph-name="Racute" unicode="&#x154;" horiz-adv-x="736" 
d="M28 671h367c53 0 109 -5 157 -31c37 -20 80 -58 80 -136c0 -49 -17 -101 -76 -135c-32 -18 -77 -31 -112 -35v-2c40 -5 77 -22 100 -43c37 -33 57 -89 79 -147c9 -24 21 -53 45 -68c20 -13 62 -17 87 -15v-59c-16 -1 -76 -6 -116 -6c-39 0 -90 4 -126 22
c-46 23 -59 56 -64 71c-9 25 -12 39 -29 94c-33 103 -77 110 -129 110h-9v-210l16 -19l66 -4v-58h-336v58l64 4l16 19v513l-16 15l-64 4v58zM282 603v-244c51 -1 97 2 130 31c30 26 37 61 37 93c0 35 -9 67 -36 91c-29 26 -61 29 -85 29h-46zM394 890h154l-160 -156h-86z
" />
    <glyph glyph-name="racute" unicode="&#x155;" horiz-adv-x="493" 
d="M34 0v53l55 5l11 13v329h-75v48l184 59h58l-9 -114c20 22 32 33 53 51c26 23 45 39 81 59c7 1 13 2 25 2s25 0 38 -4c15 -4 25 -11 31 -15l-28 -193h-71c-6 16 -16 33 -29 45c-19 18 -46 26 -91 21v-288l13 -13l75 -5v-53h-321zM327 748h149l-161 -190h-86z" />
    <glyph glyph-name="Rcommaaccent" unicode="&#x156;" horiz-adv-x="736" 
d="M28 671h367c53 0 109 -5 157 -31c37 -20 80 -58 80 -136c0 -49 -17 -101 -76 -135c-32 -18 -77 -31 -112 -35v-2c40 -5 77 -22 100 -43c37 -33 57 -89 79 -147c9 -24 21 -53 45 -68c20 -13 62 -17 87 -15v-59c-16 -1 -76 -6 -116 -6c-39 0 -90 4 -126 22
c-46 23 -59 56 -64 71c-9 25 -12 39 -29 94c-33 103 -77 110 -129 110h-9v-210l16 -19l66 -4v-58h-336v58l64 4l16 19v513l-16 15l-64 4v58zM282 603v-244c51 -1 97 2 130 31c30 26 37 61 37 93c0 35 -9 67 -36 91c-29 26 -61 29 -85 29h-46zM292 -312v49c18 3 39 12 53 25
c26 23 29 58 29 74h-60c-11 9 -22 23 -22 48c0 19 9 37 21 48s31 18 55 18c34 0 55 -14 65 -24c17 -16 27 -41 27 -71c0 -43 -22 -86 -54 -115s-77 -46 -114 -52z" />
    <glyph glyph-name="rcommaaccent" unicode="&#x157;" horiz-adv-x="493" 
d="M34 0v53l55 5l11 13v329h-75v48l184 59h58l-9 -114c20 22 32 33 53 51c26 23 45 39 81 59c7 1 13 2 25 2s25 0 38 -4c15 -4 25 -11 31 -15l-28 -193h-71c-6 16 -16 33 -29 45c-19 18 -46 26 -91 21v-288l13 -13l75 -5v-53h-321zM124 -312v49c18 3 39 12 53 25
c26 23 29 58 29 74h-60c-11 9 -22 23 -22 48c0 19 9 37 21 48s31 18 55 18c34 0 55 -14 65 -24c17 -16 27 -41 27 -71c0 -43 -22 -86 -54 -115s-77 -46 -114 -52z" />
    <glyph glyph-name="Rcaron" unicode="&#x158;" horiz-adv-x="736" 
d="M28 671h367c53 0 109 -5 157 -31c37 -20 80 -58 80 -136c0 -49 -17 -101 -76 -135c-32 -18 -77 -31 -112 -35v-2c40 -5 77 -22 100 -43c37 -33 57 -89 79 -147c9 -24 21 -53 45 -68c20 -13 62 -17 87 -15v-59c-16 -1 -76 -6 -116 -6c-39 0 -90 4 -126 22
c-46 23 -59 56 -64 71c-9 25 -12 39 -29 94c-33 103 -77 110 -129 110h-9v-210l16 -19l66 -4v-58h-336v58l64 4l16 19v513l-16 15l-64 4v58zM282 603v-244c51 -1 97 2 130 31c30 26 37 61 37 93c0 35 -9 67 -36 91c-29 26 -61 29 -85 29h-46zM405 734h-110l-110 156h98
l67 -92l67 92h98z" />
    <glyph glyph-name="rcaron" unicode="&#x159;" horiz-adv-x="493" 
d="M34 0v53l55 5l11 13v329h-75v48l184 59h58l-9 -114c20 22 32 33 53 51c26 23 45 39 81 59c7 1 13 2 25 2s25 0 38 -4c15 -4 25 -11 31 -15l-28 -193h-71c-6 16 -16 33 -29 45c-19 18 -46 26 -91 21v-288l13 -13l75 -5v-53h-321zM114 747h101l65 -109l65 109h101
l-110 -190h-112z" />
    <glyph glyph-name="Sacute" unicode="&#x15a;" horiz-adv-x="616" 
d="M59 24v185h92l24 -123l14 -15c20 -3 50 -5 71 -5c27 0 57 3 86 18c27 14 45 36 45 73c0 16 -4 30 -15 45c-21 28 -57 41 -94 56l-50 20c-26 10 -85 37 -121 77c-29 33 -44 72 -44 119c0 60 22 115 77 157c61 46 135 53 192 53c29 0 99 -3 205 -40v-169h-92l-21 111
l-12 12c-19 8 -33 9 -59 9c-32 0 -60 -3 -87 -22c-20 -14 -35 -35 -35 -69c0 -32 17 -52 47 -70c18 -11 38 -18 81 -37l46 -20c39 -17 79 -37 109 -67c20 -21 44 -55 44 -118c0 -73 -33 -119 -60 -145c-31 -29 -97 -73 -228 -73c-27 0 -102 3 -215 38zM374 890h154
l-160 -156h-86z" />
    <glyph glyph-name="sacute" unicode="&#x15b;" horiz-adv-x="523" 
d="M462 482v-153h-72l-13 79l-13 14c-18 9 -42 18 -74 18c-15 0 -34 -1 -51 -12s-24 -26 -24 -45c0 -11 3 -20 10 -29c12 -14 32 -24 60 -35l46 -18c71 -28 110 -50 131 -75c18 -21 24 -42 24 -68c0 -38 -12 -74 -44 -105c-40 -40 -108 -65 -196 -65c-23 0 -54 2 -76 5
c-39 5 -103 18 -128 23v167h73l11 -91l11 -13c29 -14 66 -25 100 -25c27 0 49 7 63 19c12 11 17 24 17 41c0 11 -2 20 -11 31c-10 12 -26 21 -53 32l-50 21c-33 14 -93 46 -119 71c-22 21 -36 47 -36 81c0 37 13 83 66 118s114 40 163 40c62 0 110 -10 185 -26zM308 748h149
l-161 -190h-86z" />
    <glyph glyph-name="Scircumflex" unicode="&#x15c;" horiz-adv-x="616" 
d="M59 24v185h92l24 -123l14 -15c20 -3 50 -5 71 -5c27 0 57 3 86 18c27 14 45 36 45 73c0 16 -4 30 -15 45c-21 28 -57 41 -94 56l-50 20c-26 10 -85 37 -121 77c-29 33 -44 72 -44 119c0 60 22 115 77 157c61 46 135 53 192 53c29 0 99 -3 205 -40v-169h-92l-21 111
l-12 12c-19 8 -33 9 -59 9c-32 0 -60 -3 -87 -22c-20 -14 -35 -35 -35 -69c0 -32 17 -52 47 -70c18 -11 38 -18 81 -37l46 -20c39 -17 79 -37 109 -67c20 -21 44 -55 44 -118c0 -73 -33 -119 -60 -145c-31 -29 -97 -73 -228 -73c-27 0 -102 3 -215 38zM275 890h110l110 -156
h-98l-67 92l-67 -92h-98z" />
    <glyph glyph-name="scircumflex" unicode="&#x15d;" horiz-adv-x="523" 
d="M462 482v-153h-72l-13 79l-13 14c-18 9 -42 18 -74 18c-15 0 -34 -1 -51 -12s-24 -26 -24 -45c0 -11 3 -20 10 -29c12 -14 32 -24 60 -35l46 -18c71 -28 110 -50 131 -75c18 -21 24 -42 24 -68c0 -38 -12 -74 -44 -105c-40 -40 -108 -65 -196 -65c-23 0 -54 2 -76 5
c-39 5 -103 18 -128 23v167h73l11 -91l11 -13c29 -14 66 -25 100 -25c27 0 49 7 63 19c12 11 17 24 17 41c0 11 -2 20 -11 31c-10 12 -26 21 -53 32l-50 21c-33 14 -93 46 -119 71c-22 21 -36 47 -36 81c0 37 13 83 66 118s114 40 163 40c62 0 110 -10 185 -26zM214 748h112
l110 -190h-101l-65 109l-65 -109h-101z" />
    <glyph glyph-name="Scedilla" unicode="&#x15e;" horiz-adv-x="616" 
d="M59 24v185h92l24 -123l14 -15c20 -3 50 -5 71 -5c27 0 57 3 86 18c27 14 45 36 45 73c0 16 -4 30 -15 45c-21 28 -57 41 -94 56l-50 20c-26 10 -85 37 -121 77c-29 33 -44 72 -44 119c0 60 22 115 77 157c61 46 135 53 192 53c29 0 99 -3 205 -40v-169h-92l-21 111
l-12 12c-19 8 -33 9 -59 9c-32 0 -60 -3 -87 -22c-20 -14 -35 -35 -35 -69c0 -32 17 -52 47 -70c18 -11 38 -18 81 -37l46 -20c39 -17 79 -37 109 -67c20 -21 44 -55 44 -118c0 -73 -33 -119 -60 -145c-44 -42 -119 -71 -194 -72v-39h12c23 0 45 -5 59 -16
c17 -13 28 -38 28 -66c0 -30 -12 -53 -31 -70c-21 -19 -53 -32 -98 -32c-38 0 -78 10 -87 12v58c18 -2 22 -3 32 -5c13 -2 32 -4 41 -4c10 0 25 2 34 9c7 5 12 14 12 24c0 9 -4 16 -12 21c-9 6 -19 7 -29 7c-9 0 -17 -1 -22 -2v103c-64 4 -140 22 -188 37z" />
    <glyph glyph-name="Scedilla" unicode="&#xf6c1;" horiz-adv-x="616" 
d="M59 24v185h92l24 -123l14 -15c20 -3 50 -5 71 -5c27 0 57 3 86 18c27 14 45 36 45 73c0 16 -4 30 -15 45c-21 28 -57 41 -94 56l-50 20c-26 10 -85 37 -121 77c-29 33 -44 72 -44 119c0 60 22 115 77 157c61 46 135 53 192 53c29 0 99 -3 205 -40v-169h-92l-21 111
l-12 12c-19 8 -33 9 -59 9c-32 0 -60 -3 -87 -22c-20 -14 -35 -35 -35 -69c0 -32 17 -52 47 -70c18 -11 38 -18 81 -37l46 -20c39 -17 79 -37 109 -67c20 -21 44 -55 44 -118c0 -73 -33 -119 -60 -145c-44 -42 -119 -71 -194 -72v-39h12c23 0 45 -5 59 -16
c17 -13 28 -38 28 -66c0 -30 -12 -53 -31 -70c-21 -19 -53 -32 -98 -32c-38 0 -78 10 -87 12v58c18 -2 22 -3 32 -5c13 -2 32 -4 41 -4c10 0 25 2 34 9c7 5 12 14 12 24c0 9 -4 16 -12 21c-9 6 -19 7 -29 7c-9 0 -17 -1 -22 -2v103c-64 4 -140 22 -188 37z" />
    <glyph glyph-name="scedilla" unicode="&#x15f;" horiz-adv-x="523" 
d="M462 482v-153h-72l-13 79l-13 14c-18 9 -42 18 -74 18c-15 0 -34 -1 -51 -12s-24 -26 -24 -45c0 -11 3 -20 10 -29c12 -14 32 -24 60 -35l46 -18c71 -28 110 -50 131 -75c18 -21 24 -42 24 -68c0 -38 -12 -74 -44 -105c-37 -36 -101 -62 -166 -64v-41h12
c23 0 45 -5 59 -16c17 -13 28 -38 28 -66c0 -30 -12 -53 -31 -70c-21 -19 -53 -32 -98 -32c-38 0 -78 10 -87 12v58c18 -2 22 -3 32 -5c13 -2 32 -4 41 -4c10 0 25 2 34 9c7 5 12 14 12 24c0 9 -4 16 -12 21c-9 6 -19 7 -29 7c-9 0 -17 -1 -22 -2v105c-39 2 -82 7 -173 27
v167h73l11 -91l11 -13c29 -14 66 -25 100 -25c27 0 49 7 63 19c12 11 17 24 17 41c0 11 -2 20 -11 31c-10 12 -26 21 -53 32l-50 21c-33 14 -93 46 -119 71c-22 21 -36 47 -36 81c0 37 13 83 66 118s114 40 163 40c62 0 110 -10 185 -26z" />
    <glyph glyph-name="scedilla" unicode="&#xf6c2;" horiz-adv-x="523" 
d="M462 482v-153h-72l-13 79l-13 14c-18 9 -42 18 -74 18c-15 0 -34 -1 -51 -12s-24 -26 -24 -45c0 -11 3 -20 10 -29c12 -14 32 -24 60 -35l46 -18c71 -28 110 -50 131 -75c18 -21 24 -42 24 -68c0 -38 -12 -74 -44 -105c-37 -36 -101 -62 -166 -64v-41h12
c23 0 45 -5 59 -16c17 -13 28 -38 28 -66c0 -30 -12 -53 -31 -70c-21 -19 -53 -32 -98 -32c-38 0 -78 10 -87 12v58c18 -2 22 -3 32 -5c13 -2 32 -4 41 -4c10 0 25 2 34 9c7 5 12 14 12 24c0 9 -4 16 -12 21c-9 6 -19 7 -29 7c-9 0 -17 -1 -22 -2v105c-39 2 -82 7 -173 27
v167h73l11 -91l11 -13c29 -14 66 -25 100 -25c27 0 49 7 63 19c12 11 17 24 17 41c0 11 -2 20 -11 31c-10 12 -26 21 -53 32l-50 21c-33 14 -93 46 -119 71c-22 21 -36 47 -36 81c0 37 13 83 66 118s114 40 163 40c62 0 110 -10 185 -26z" />
    <glyph glyph-name="Scaron" unicode="&#x160;" horiz-adv-x="616" 
d="M59 24v185h92l24 -123l14 -15c20 -3 50 -5 71 -5c27 0 57 3 86 18c27 14 45 36 45 73c0 16 -4 30 -15 45c-21 28 -57 41 -94 56l-50 20c-26 10 -85 37 -121 77c-29 33 -44 72 -44 119c0 60 22 115 77 157c61 46 135 53 192 53c29 0 99 -3 205 -40v-169h-92l-21 111
l-12 12c-19 8 -33 9 -59 9c-32 0 -60 -3 -87 -22c-20 -14 -35 -35 -35 -69c0 -32 17 -52 47 -70c18 -11 38 -18 81 -37l46 -20c39 -17 79 -37 109 -67c20 -21 44 -55 44 -118c0 -73 -33 -119 -60 -145c-31 -29 -97 -73 -228 -73c-27 0 -102 3 -215 38zM385 734h-110
l-110 156h98l67 -92l67 92h98z" />
    <glyph glyph-name="scaron" unicode="&#x161;" horiz-adv-x="523" 
d="M462 482v-153h-72l-13 79l-13 14c-18 9 -42 18 -74 18c-15 0 -34 -1 -51 -12s-24 -26 -24 -45c0 -11 3 -20 10 -29c12 -14 32 -24 60 -35l46 -18c71 -28 110 -50 131 -75c18 -21 24 -42 24 -68c0 -38 -12 -74 -44 -105c-40 -40 -108 -65 -196 -65c-23 0 -54 2 -76 5
c-39 5 -103 18 -128 23v167h73l11 -91l11 -13c29 -14 66 -25 100 -25c27 0 49 7 63 19c12 11 17 24 17 41c0 11 -2 20 -11 31c-10 12 -26 21 -53 32l-50 21c-33 14 -93 46 -119 71c-22 21 -36 47 -36 81c0 37 13 83 66 118s114 40 163 40c62 0 110 -10 185 -26zM104 747h101
l65 -109l65 109h101l-110 -190h-112z" />
    <glyph glyph-name="Tcedilla" unicode="&#x162;" horiz-adv-x="641" 
d="M13 671h614v-201h-84l-21 121l-18 12h-95v-522l19 -19l67 -4v-58h-147v-52h12c23 0 45 -5 59 -16c17 -13 28 -38 28 -66c0 -30 -12 -53 -31 -70c-21 -19 -53 -32 -98 -32c-38 0 -78 10 -87 12v58c18 -2 22 -3 32 -5c13 -2 32 -4 41 -4c10 0 25 2 34 9c7 5 12 14 12 24
c0 9 -4 16 -12 21c-9 6 -19 7 -29 7c-9 0 -17 -1 -22 -2v116h-142v58l67 4l19 19v522h-97l-17 -12l-20 -121h-84v201z" />
    <glyph glyph-name="tcedilla" unicode="&#x163;" horiz-adv-x="408" 
d="M86 407h-72v46l86 54l63 116h90v-142h152v-74h-152v-233c0 -14 0 -48 16 -66c17 -19 51 -21 74 -21c22 0 33 1 62 6v-58c-80 -31 -123 -38 -156 -41v-46h12c23 0 45 -5 59 -16c17 -13 28 -38 28 -66c0 -30 -12 -53 -31 -70c-21 -19 -53 -32 -98 -32c-38 0 -78 10 -87 12
v58c18 -2 22 -3 32 -5c13 -2 32 -4 41 -4c10 0 25 2 34 9c7 5 12 14 12 24c0 9 -4 16 -12 21c-9 6 -19 7 -29 7c-9 0 -17 -1 -22 -2v110c-34 5 -70 23 -86 47c-16 25 -16 60 -16 107v259z" />
    <glyph glyph-name="Tcaron" unicode="&#x164;" horiz-adv-x="641" 
d="M13 671h614v-201h-84l-21 121l-18 12h-95v-522l19 -19l67 -4v-58h-350v58l67 4l19 19v522h-97l-17 -12l-20 -121h-84v201zM375 734h-110l-110 156h98l67 -92l67 92h98z" />
    <glyph glyph-name="tcaron" unicode="&#x165;" horiz-adv-x="482" 
d="M86 407h-72v46l86 54l63 116h90v-142h152v-74h-152v-233c0 -14 0 -48 16 -66c17 -19 51 -21 74 -21c22 0 33 1 62 6v-58c-33 -13 -83 -29 -117 -36c-22 -4 -50 -7 -68 -7c-60 0 -102 24 -118 49s-16 60 -16 107v259zM314 518v49c18 3 39 12 53 25c26 23 29 58 29 74h-60
c-11 9 -22 23 -22 48c0 19 9 37 21 48s31 18 55 18c34 0 55 -14 65 -24c17 -16 27 -41 27 -71c0 -43 -22 -86 -54 -115s-77 -46 -114 -52z" />
    <glyph glyph-name="Umacron" unicode="&#x16a;" horiz-adv-x="760" 
d="M21 671h338v-58l-65 -4l-12 -15v-337c0 -28 2 -96 33 -132s83 -41 117 -41c36 0 76 5 104 35c23 24 38 69 38 157v318l-12 15l-71 4v58h252v-58l-64 -4l-13 -15v-331c0 -79 -12 -152 -60 -205c-37 -41 -98 -72 -217 -72c-74 0 -173 13 -233 81c-52 60 -52 126 -52 206
v321l-12 15l-71 4v58zM239 862h361v-83h-361v83z" />
    <glyph glyph-name="umacron" unicode="&#x16b;" horiz-adv-x="662" 
d="M187 507h58v-290c0 -48 6 -78 21 -95c20 -22 56 -24 77 -24c7 0 28 0 63 3v299h-63v48l172 59h58v-436l10 -13l59 -5v-53h-236v55c-22 -13 -58 -32 -84 -42c-32 -13 -69 -21 -102 -21c-69 0 -101 34 -117 58c-24 36 -25 67 -25 132v218h-62v48zM150 683h361v-83h-361v83z
" />
    <glyph glyph-name="Ubreve" unicode="&#x16c;" horiz-adv-x="760" 
d="M21 671h338v-58l-65 -4l-12 -15v-337c0 -28 2 -96 33 -132s83 -41 117 -41c36 0 76 5 104 35c23 24 38 69 38 157v318l-12 15l-71 4v58h252v-58l-64 -4l-13 -15v-331c0 -79 -12 -152 -60 -205c-37 -41 -98 -72 -217 -72c-74 0 -173 13 -233 81c-52 60 -52 126 -52 206
v321l-12 15l-71 4v58zM260 890h62c0 -12 3 -29 8 -40c16 -35 56 -37 86 -37c45 0 87 2 102 37c5 11 7 28 6 40h62v-12c0 -21 -2 -62 -22 -92c-29 -43 -81 -52 -143 -52c-56 0 -110 9 -139 52c-19 28 -22 63 -22 89v15z" />
    <glyph glyph-name="ubreve" unicode="&#x16d;" horiz-adv-x="662" 
d="M187 507h58v-290c0 -48 6 -78 21 -95c20 -22 56 -24 77 -24c7 0 28 0 63 3v299h-63v48l172 59h58v-436l10 -13l59 -5v-53h-236v55c-22 -13 -58 -32 -84 -42c-32 -13 -69 -21 -102 -21c-69 0 -101 34 -117 58c-24 36 -25 67 -25 132v218h-62v48zM171 730l62 -2
c0 -12 3 -33 8 -45c15 -35 56 -37 86 -37c44 0 88 2 102 37c5 12 6 33 6 45l62 2v-19c0 -21 -2 -62 -22 -92c-29 -43 -81 -52 -143 -52c-56 0 -110 9 -139 52c-19 28 -22 63 -22 89v22z" />
    <glyph glyph-name="Uring" unicode="&#x16e;" horiz-adv-x="760" 
d="M21 671h338v-58l-65 -4l-12 -15v-337c0 -28 2 -96 33 -132s83 -41 117 -41c36 0 76 5 104 35c23 24 38 69 38 157v318l-12 15l-71 4v58h252v-58l-64 -4l-13 -15v-331c0 -79 -12 -152 -60 -205c-37 -41 -98 -72 -217 -72c-74 0 -173 13 -233 81c-52 60 -52 126 -52 206
v321l-12 15l-71 4v58zM300 842c0 66 54 120 120 120s120 -54 120 -120s-54 -120 -120 -120s-120 54 -120 120zM360 842c0 -33 27 -60 60 -60s60 27 60 60s-27 60 -60 60s-60 -27 -60 -60z" />
    <glyph glyph-name="uring" unicode="&#x16f;" horiz-adv-x="662" 
d="M187 507h58v-290c0 -48 6 -78 21 -95c20 -22 56 -24 77 -24c7 0 28 0 63 3v299h-63v48l172 59h58v-436l10 -13l59 -5v-53h-236v55c-22 -13 -58 -32 -84 -42c-32 -13 -69 -21 -102 -21c-69 0 -101 34 -117 58c-24 36 -25 67 -25 132v218h-62v48zM211 666
c0 66 54 120 120 120s120 -54 120 -120s-54 -120 -120 -120s-120 54 -120 120zM271 666c0 -33 27 -60 60 -60s60 27 60 60s-27 60 -60 60s-60 -27 -60 -60z" />
    <glyph glyph-name="Uhungarumlaut" unicode="&#x170;" horiz-adv-x="760" 
d="M21 671h338v-58l-65 -4l-12 -15v-337c0 -28 2 -96 33 -132s83 -41 117 -41c36 0 76 5 104 35c23 24 38 69 38 157v318l-12 15l-71 4v58h252v-58l-64 -4l-13 -15v-331c0 -79 -12 -152 -60 -205c-37 -41 -98 -72 -217 -72c-74 0 -173 13 -233 81c-52 60 -52 126 -52 206
v321l-12 15l-71 4v58zM368 890h136l-152 -156h-74zM554 890h154l-179 -156h-86z" />
    <glyph glyph-name="uhungarumlaut" unicode="&#x171;" horiz-adv-x="662" 
d="M187 507h58v-290c0 -48 6 -78 21 -95c20 -22 56 -24 77 -24c7 0 28 0 63 3v299h-63v48l172 59h58v-436l10 -13l59 -5v-53h-236v55c-22 -13 -58 -32 -84 -42c-32 -13 -69 -21 -102 -21c-69 0 -101 34 -117 58c-24 36 -25 67 -25 132v218h-62v48zM317 748h131l-152 -190
h-74zM497 748h149l-180 -190h-85z" />
    <glyph glyph-name="Uogonek" unicode="&#x172;" horiz-adv-x="760" 
d="M21 671h338v-58l-65 -4l-12 -15v-337c0 -28 2 -96 33 -132s83 -41 117 -41c36 0 76 5 104 35c23 24 38 69 38 157v318l-12 15l-71 4v58h252v-58l-64 -4l-13 -15v-331c0 -79 -12 -152 -60 -205c-22 -24 -63 -58 -149 -68c-6 -7 -15 -17 -23 -34c-7 -14 -13 -30 -13 -47
c0 -14 3 -29 17 -40c12 -10 26 -11 37 -11c10 0 21 1 30 3v-85c-26 -6 -48 -8 -62 -8c-29 0 -59 6 -79 23c-19 15 -30 39 -30 72s10 55 25 80c3 5 13 20 31 43c-72 -3 -177 15 -234 81c-52 60 -52 126 -52 206v321l-12 15l-71 4v58z" />
    <glyph glyph-name="uogonek" unicode="&#x173;" horiz-adv-x="662" 
d="M187 507h58v-290c0 -48 6 -78 21 -95c20 -22 56 -24 77 -24c7 0 28 0 63 3v299h-63v48l172 59h58v-436l10 -13l59 -5v-53h-37c-11 -11 -26 -30 -34 -44c-7 -13 -13 -31 -13 -47c0 -14 3 -29 17 -40c12 -10 26 -11 37 -11c10 0 21 1 30 3v-85c-26 -6 -48 -8 -62 -8
c-29 0 -59 6 -79 23c-19 16 -30 39 -30 72s10 55 25 80c12 19 26 38 44 57h-134v55c-22 -13 -58 -32 -84 -42c-32 -13 -69 -21 -102 -21c-69 0 -101 34 -117 58c-24 36 -25 67 -25 132v218h-62v48z" />
    <glyph glyph-name="Ydieresis" unicode="&#x178;" horiz-adv-x="671" 
d="M-10 671h324v-58l-58 -4l-10 -15l130 -234l125 226l-8 18l-60 9v58h240v-58l-61 -9l-182 -312v-214l16 -15l71 -5v-58h-349v58l68 5l16 15v177l-194 348l-68 10v58zM180 820c0 42 34 76 76 76s76 -34 76 -76s-34 -76 -76 -76s-76 34 -76 76zM408 820c0 42 34 76 76 76
s76 -34 76 -76s-34 -76 -76 -76s-76 34 -76 76z" />
    <glyph glyph-name="Zacute" unicode="&#x179;" horiz-adv-x="634" 
d="M59 671h517v-69l-337 -534h223l12 14l17 126h92v-208h-539v69l337 534h-198l-19 -13l-17 -118h-88v199zM361 890h154l-160 -156h-86z" />
    <glyph glyph-name="zacute" unicode="&#x17a;" horiz-adv-x="556" 
d="M49 0v75l261 354h-149l-12 -14l-11 -87h-83v165h447v-68l-265 -361h166l17 17l11 99h88v-180h-470zM325 748h149l-161 -190h-86z" />
    <glyph glyph-name="Zdotaccent" unicode="&#x17b;" horiz-adv-x="634" 
d="M59 671h517v-69l-337 -534h223l12 14l17 126h92v-208h-539v69l337 534h-198l-19 -13l-17 -118h-88v199zM237 815c0 44 36 80 80 80s80 -36 80 -80s-36 -80 -80 -80s-80 36 -80 80z" />
    <glyph glyph-name="zdotaccent" unicode="&#x17c;" horiz-adv-x="556" 
d="M49 0v75l261 354h-149l-12 -14l-11 -87h-83v165h447v-68l-265 -361h166l17 17l11 99h88v-180h-470zM278 730c21 0 41 -8 56 -25c9 -10 20 -28 20 -56s-11 -46 -20 -56c-15 -17 -35 -25 -56 -25s-41 8 -56 25c-9 10 -20 28 -20 56s11 46 20 56c15 17 35 25 56 25z" />
    <glyph glyph-name="Zcaron" unicode="&#x17d;" horiz-adv-x="634" 
d="M59 671h517v-69l-337 -534h223l12 14l17 126h92v-208h-539v69l337 534h-198l-19 -13l-17 -118h-88v199zM372 734h-110l-110 156h98l67 -92l67 92h98z" />
    <glyph glyph-name="zcaron" unicode="&#x17e;" horiz-adv-x="556" 
d="M49 0v75l261 354h-149l-12 -14l-11 -87h-83v165h447v-68l-265 -361h166l17 17l11 99h88v-180h-470zM112 747h101l65 -109l65 109h101l-110 -190h-112z" />
    <glyph glyph-name="Schwa" unicode="&#x18f;" horiz-adv-x="758" 
d="M95 468v181c106 22 186 36 274 36c98 0 159 -20 222 -72c106 -87 128 -208 128 -282c0 -114 -50 -201 -102 -253c-82 -82 -177 -95 -262 -95c-50 0 -161 4 -241 99c-64 77 -83 197 -71 283h486c1 55 -15 141 -57 190c-39 46 -88 56 -135 56c-39 0 -78 -6 -109 -14
l-19 -16l-22 -113h-92zM529 291h-314c-2 -48 7 -109 25 -146c28 -58 79 -86 127 -86c25 0 80 8 120 73c27 44 41 108 42 159z" />
    <glyph glyph-name="florin" unicode="&#x192;" horiz-adv-x="637" 
d="M107 299v71h109c0 76 5 112 22 158c37 98 124 156 232 156c72 0 115 -33 115 -87c0 -41 -22 -65 -83 -91l-105 119c-12 -31 -17 -79 -17 -150v-31l3 -74h157v-71h-155v-63c0 -134 -6 -181 -29 -229c-41 -85 -139 -149 -228 -149c-70 0 -121 37 -121 88c0 41 26 70 81 91
l105 -113c22 40 23 80 23 185v190h-109z" />
    <glyph glyph-name="Icaron" unicode="&#x1cf;" horiz-adv-x="412" 
d="M28 0v58l72 4l16 19v513l-16 15l-72 4v58h356v-58l-74 -4l-16 -15v-513l16 -19l74 -4v-58h-356zM261 734h-110l-110 156h98l67 -92l67 92h98z" />
    <glyph glyph-name="icaron" unicode="&#x1d0;" horiz-adv-x="355" 
d="M205 507h58v-436l13 -13l61 -5v-53h-312v53l59 5l12 13v329h-65v48zM12 747h101l65 -109l65 109h101l-110 -190h-112z" />
    <glyph glyph-name="eturn" unicode="&#x1dd;" horiz-adv-x="585" 
d="M43 359v92c31 14 59 25 90 34c49 15 93 23 150 23c58 0 127 -9 184 -57c40 -34 82 -94 82 -197c0 -96 -37 -160 -87 -201c-40 -33 -100 -61 -190 -61c-73 0 -144 21 -192 82c-44 56 -50 124 -50 165v34h343c1 34 -10 73 -29 98c-29 37 -70 41 -103 41
c-42 0 -80 -7 -117 -19c-24 -8 -57 -22 -81 -34zM373 210h-167c0 -28 3 -60 9 -84c14 -59 44 -71 72 -71c26 0 59 10 75 72c7 28 10 60 11 83z" />
    <glyph glyph-name="Gcaron" unicode="&#x1e6;" horiz-adv-x="766" 
d="M397 338h345v-57l-63 -5l-16 -14v-228c-65 -25 -147 -46 -238 -46c-74 0 -169 12 -252 71c-119 86 -134 212 -134 277c0 132 60 222 136 275c57 40 139 70 255 70c75 0 156 -13 233 -36v-182h-92l-22 121l-18 16c-27 6 -40 9 -61 9c-83 0 -138 -33 -171 -67
c-36 -37 -71 -101 -71 -204c0 -121 48 -217 147 -258c35 -14 75 -21 117 -19v201l-17 14l-78 5v57zM475 734h-110l-110 156h98l67 -92l67 92h98z" />
    <glyph glyph-name="gcaron" unicode="&#x1e7;" horiz-adv-x="613" 
d="M461 472h158v-66h-110c17 -27 20 -53 20 -71c0 -69 -42 -107 -65 -123c-46 -32 -119 -43 -175 -43c-18 0 -33 1 -49 3c-2 -6 -4 -17 -4 -30s2 -24 4 -30l41 -4c91 -9 167 -20 218 -43c59 -26 71 -64 71 -95c0 -43 -18 -91 -76 -129c-81 -54 -198 -58 -233 -58
c-93 0 -146 20 -175 38c-48 29 -61 70 -61 104c0 37 15 63 37 79c20 14 48 21 70 21c-8 14 -18 36 -18 59c0 26 10 41 22 55c11 13 25 26 42 37c-25 8 -63 26 -86 46c-32 28 -44 64 -44 106c0 69 33 112 75 138c44 28 108 39 162 39c18 0 48 -2 67 -5c35 -5 80 -18 109 -28z
M293 448c-30 0 -45 -21 -52 -33c-15 -26 -18 -57 -18 -80c0 -32 5 -57 14 -76c8 -17 23 -40 54 -40c14 0 39 5 56 39c13 26 16 59 16 83c0 23 -2 51 -15 73c-17 31 -42 34 -55 34zM278 -4l-82 12c-9 -27 -10 -45 -10 -55c0 -29 10 -53 32 -74c23 -22 51 -35 89 -35
c36 0 60 12 76 28c18 18 22 36 22 54s-5 40 -36 52c-20 8 -56 13 -91 18zM124 747h101l65 -109l65 109h101l-110 -190h-112z" />
    <glyph glyph-name="Scommaaccent" unicode="&#x218;" horiz-adv-x="616" 
d="M59 24v185h92l24 -123l14 -15c20 -3 50 -5 71 -5c27 0 57 3 86 18c27 14 45 36 45 73c0 16 -4 30 -15 45c-21 28 -57 41 -94 56l-50 20c-26 10 -85 37 -121 77c-29 33 -44 72 -44 119c0 60 22 115 77 157c61 46 135 53 192 53c29 0 99 -3 205 -40v-169h-92l-21 111
l-12 12c-19 8 -33 9 -59 9c-32 0 -60 -3 -87 -22c-20 -14 -35 -35 -35 -69c0 -32 17 -52 47 -70c18 -11 38 -18 81 -37l46 -20c39 -17 79 -37 109 -67c20 -21 44 -55 44 -118c0 -73 -33 -119 -60 -145c-31 -29 -97 -73 -228 -73c-27 0 -102 3 -215 38zM214 -312v49
c18 3 39 12 53 25c26 23 29 58 29 74h-60c-11 9 -22 23 -22 48c0 19 9 37 21 48s31 18 55 18c34 0 55 -14 65 -24c17 -16 27 -41 27 -71c0 -43 -22 -86 -54 -115s-77 -46 -114 -52z" />
    <glyph glyph-name="scommaaccent" unicode="&#x219;" horiz-adv-x="523" 
d="M462 482v-153h-72l-13 79l-13 14c-18 9 -42 18 -74 18c-15 0 -34 -1 -51 -12s-24 -26 -24 -45c0 -11 3 -20 10 -29c12 -14 32 -24 60 -35l46 -18c71 -28 110 -50 131 -75c18 -21 24 -42 24 -68c0 -38 -12 -74 -44 -105c-40 -40 -108 -65 -196 -65c-23 0 -54 2 -76 5
c-39 5 -103 18 -128 23v167h73l11 -91l11 -13c29 -14 66 -25 100 -25c27 0 49 7 63 19c12 11 17 24 17 41c0 11 -2 20 -11 31c-10 12 -26 21 -53 32l-50 21c-33 14 -93 46 -119 71c-22 21 -36 47 -36 81c0 37 13 83 66 118s114 40 163 40c62 0 110 -10 185 -26zM174 -312v49
c18 3 39 12 53 25c26 23 29 58 29 74h-60c-11 9 -22 23 -22 48c0 19 9 37 21 48s31 18 55 18c34 0 55 -14 65 -24c17 -16 27 -41 27 -71c0 -43 -22 -86 -54 -115s-77 -46 -114 -52z" />
    <glyph glyph-name="Tcommaaccent" unicode="&#x21a;" horiz-adv-x="641" 
d="M13 671h614v-201h-84l-21 121l-18 12h-95v-522l19 -19l67 -4v-58h-350v58l67 4l19 19v522h-97l-17 -12l-20 -121h-84v201zM244 -312v49c18 3 39 12 53 25c26 23 29 58 29 74h-60c-11 9 -22 23 -22 48c0 19 9 37 21 48s31 18 55 18c34 0 55 -14 65 -24
c17 -16 27 -41 27 -71c0 -43 -22 -86 -54 -115s-77 -46 -114 -52z" />
    <glyph glyph-name="tcommaaccent" unicode="&#x21b;" horiz-adv-x="408" 
d="M86 407h-72v46l86 54l63 116h90v-142h152v-74h-152v-233c0 -14 0 -48 16 -66c17 -19 51 -21 74 -21c22 0 33 1 62 6v-58c-33 -13 -83 -29 -117 -36c-22 -4 -50 -7 -68 -7c-60 0 -102 24 -118 49s-16 60 -16 107v259zM144 -312v49c18 3 39 12 53 25c26 23 29 58 29 74h-60
c-11 9 -22 23 -22 48c0 19 9 37 21 48s31 18 55 18c34 0 55 -14 65 -24c17 -16 27 -41 27 -71c0 -43 -22 -86 -54 -115s-77 -46 -114 -52z" />
    <glyph glyph-name="Ecedilla" unicode="&#x228;" horiz-adv-x="643" 
d="M28 0v58l67 4l16 19v513l-16 15l-67 4v58h550v-167h-86l-16 88l-14 11h-177v-221h105l15 14l10 72h71v-246h-71l-10 72l-15 14h-105v-240h208l14 16l16 110h86v-194h-236v-52h12c23 0 45 -5 59 -16c17 -13 28 -38 28 -66c0 -30 -12 -53 -31 -70c-21 -19 -53 -32 -98 -32
c-38 0 -78 10 -87 12v58c18 -2 22 -3 32 -5c13 -2 32 -4 41 -4c10 0 25 2 34 9c7 5 12 14 12 24c0 9 -4 16 -12 21c-9 6 -19 7 -29 7c-9 0 -17 -1 -22 -2v116h-284z" />
    <glyph glyph-name="ecedilla" unicode="&#x229;" horiz-adv-x="585" 
d="M552 141v-92c-30 -15 -56 -24 -86 -34c-44 -14 -79 -21 -125 -23v-44h12c23 0 45 -5 59 -16c17 -13 28 -38 28 -66c0 -30 -12 -53 -31 -70c-21 -19 -53 -32 -98 -32c-38 0 -78 10 -87 12v58c18 -2 22 -3 32 -5c13 -2 32 -4 41 -4c10 0 25 2 34 9c7 5 12 14 12 24
c0 9 -4 16 -12 21c-9 6 -19 7 -29 7c-9 0 -17 -1 -22 -2v110c-52 3 -112 21 -156 55c-43 33 -88 94 -88 197c0 109 49 170 87 201c40 33 100 61 190 61c73 0 144 -21 192 -82c44 -56 50 -124 50 -165v-14h-345c1 -41 15 -86 36 -112c33 -41 81 -47 118 -47c41 0 76 7 111 19
c24 8 54 22 77 34zM214 310h163c-2 76 -16 101 -22 109c-17 23 -39 26 -55 26c-23 0 -42 -5 -59 -26c-20 -25 -25 -61 -27 -109z" />
    <glyph glyph-name="schwa" unicode="&#x259;" horiz-adv-x="585" 
d="M43 359v92c31 14 59 25 90 34c49 15 93 23 150 23c58 0 127 -9 184 -57c40 -34 82 -94 82 -197c0 -96 -37 -160 -87 -201c-40 -33 -100 -61 -190 -61c-73 0 -144 21 -192 82c-44 56 -50 124 -50 165v34h343c1 34 -10 73 -29 98c-29 37 -70 41 -103 41
c-42 0 -80 -7 -117 -19c-24 -8 -57 -22 -81 -34zM373 210h-167c0 -28 3 -60 9 -84c14 -59 44 -71 72 -71c26 0 59 10 75 72c7 28 10 60 11 83z" />
    <glyph glyph-name="afii57929" unicode="&#x2bc;" horiz-adv-x="492" 
d="M356 488v49c18 3 39 12 53 25c26 23 29 58 29 74h-60c-11 9 -22 23 -22 48c0 19 9 37 21 48s31 18 55 18c34 0 55 -14 65 -24c17 -16 27 -41 27 -71c0 -43 -22 -86 -54 -115s-77 -46 -114 -52z" />
    <glyph glyph-name="circumflex" unicode="&#x2c6;" 
d="M194 748h112l110 -190h-101l-65 109l-65 -109h-101z" />
    <glyph glyph-name="caron" unicode="&#x2c7;" 
d="M84 747h101l65 -109l65 109h101l-110 -190h-112z" />
    <glyph glyph-name="breve" unicode="&#x2d8;" 
d="M90 730l62 -2c0 -12 3 -33 8 -45c15 -35 56 -37 86 -37c44 0 88 2 102 37c5 12 6 33 6 45l62 2v-19c0 -21 -2 -62 -22 -92c-29 -43 -81 -52 -143 -52c-56 0 -110 9 -139 52c-19 28 -22 63 -22 89v22z" />
    <glyph glyph-name="dotaccent" unicode="&#x2d9;" 
d="M250 730c21 0 41 -8 56 -25c9 -10 20 -28 20 -56s-11 -46 -20 -56c-15 -17 -35 -25 -56 -25s-41 8 -56 25c-9 10 -20 28 -20 56s11 46 20 56c15 17 35 25 56 25z" />
    <glyph glyph-name="ring" unicode="&#x2da;" 
d="M130 666c0 66 54 120 120 120s120 -54 120 -120s-54 -120 -120 -120s-120 54 -120 120zM190 666c0 -33 27 -60 60 -60s60 27 60 60s-27 60 -60 60s-60 -27 -60 -60z" />
    <glyph glyph-name="ogonek" unicode="&#x2db;" 
d="M239 0h65c-15 -12 -25 -25 -34 -44c-7 -15 -13 -30 -13 -47c0 -14 3 -29 17 -40c12 -10 26 -11 37 -11c10 0 21 1 30 3v-85c-26 -6 -48 -8 -62 -8c-29 0 -59 6 -79 23c-19 16 -30 39 -30 72s10 55 25 80c12 19 26 38 44 57z" />
    <glyph glyph-name="tilde" unicode="&#x2dc;" 
d="M359 737h65v-21c0 -30 -4 -61 -15 -84c-17 -35 -45 -48 -79 -48c-3 0 -18 0 -38 5c-22 5 -41 14 -63 25c-17 8 -32 15 -45 15c-12 0 -23 -5 -30 -20c-1 -2 -6 -14 -6 -34v-7h-67c-3 32 0 71 11 98c15 36 43 55 86 55c15 0 30 -2 46 -8l43 -18c22 -10 38 -19 57 -19
c8 0 20 2 28 16c6 12 7 35 7 45z" />
    <glyph glyph-name="hungarumlaut" unicode="&#x2dd;" 
d="M177 748h131l-152 -190h-74zM357 748h149l-180 -190h-85z" />
    <glyph glyph-name="accent" unicode="&#x301;" horiz-adv-x="2" 
d="M-262 748h149l-161 -190h-86z" />
    <glyph glyph-name="accent" unicode="&#xf400;" horiz-adv-x="2" 
d="M-262 748h149l-161 -190h-86z" />
    <glyph glyph-name="Delta" unicode="&#x394;" horiz-adv-x="654" 
d="M-40 0l350 730h35l349 -730h-734zM82 162h348l-173 366z" />
    <glyph glyph-name="Delta" unicode="&#x2206;" horiz-adv-x="654" 
d="M-40 0l350 730h35l349 -730h-734zM82 162h348l-173 366z" />
    <glyph glyph-name="Omega" unicode="&#x3a9;" horiz-adv-x="768" 
d="M71 0l-57 198h38l19 -60h137v9c-45 17 -92 49 -123 90c-33 45 -51 105 -51 168c0 90 34 167 86 221c55 57 147 104 264 104s209 -47 264 -104c52 -54 86 -131 86 -221c0 -63 -18 -123 -51 -168c-31 -41 -78 -73 -123 -90v-9h137l19 60h38l-57 -198h-266
c29 66 48 129 61 198c11 56 22 134 22 231c0 70 -6 133 -33 188c-21 43 -49 68 -97 68s-76 -25 -97 -68c-27 -55 -33 -118 -33 -188c0 -97 11 -175 22 -231c13 -69 32 -132 61 -198h-266z" />
    <glyph glyph-name="Omega" unicode="&#x2126;" horiz-adv-x="768" 
d="M71 0l-57 198h38l19 -60h137v9c-45 17 -92 49 -123 90c-33 45 -51 105 -51 168c0 90 34 167 86 221c55 57 147 104 264 104s209 -47 264 -104c52 -54 86 -131 86 -221c0 -63 -18 -123 -51 -168c-31 -41 -78 -73 -123 -90v-9h137l19 60h38l-57 -198h-266
c29 66 48 129 61 198c11 56 22 134 22 231c0 70 -6 133 -33 188c-21 43 -49 68 -97 68s-76 -25 -97 -68c-27 -55 -33 -118 -33 -188c0 -97 11 -175 22 -231c13 -69 32 -132 61 -198h-266z" />
    <glyph glyph-name="pi" unicode="&#x3c0;" horiz-adv-x="738" 
d="M39 216h-35l16 65c7 30 19 64 44 93c43 50 99 58 148 58h512l-33 -155h-173v-89c0 -19 1 -39 2 -58c1 -14 1 -28 1 -42c0 -22 0 -67 -23 -90c-17 -17 -42 -18 -54 -18s-29 2 -42 15c-14 14 -16 32 -16 46c0 37 18 75 38 122c14 35 27 67 40 114h-183v-89
c0 -19 1 -39 2 -58c1 -14 1 -28 1 -42c0 -22 0 -67 -23 -90c-17 -17 -42 -18 -54 -18s-29 2 -42 15c-14 14 -16 32 -16 46c0 37 18 75 38 122c14 35 27 67 40 114h-106c-21 0 -47 -1 -65 -21c-9 -10 -15 -25 -17 -40z" />
    <glyph glyph-name="afii10023" unicode="&#x401;" horiz-adv-x="643" 
d="M28 0v58l67 4l16 19v513l-16 15l-67 4v58h550v-167h-86l-16 89l-14 11h-177v-222h105l15 14l10 72h71v-246h-71l-10 72l-15 14h-105v-241h208l14 16l16 111h86v-194h-581zM132 820c0 42 34 76 76 76s76 -34 76 -76s-34 -76 -76 -76s-76 34 -76 76zM360 820
c0 42 34 76 76 76s76 -34 76 -76s-34 -76 -76 -76s-76 34 -76 76z" />
    <glyph glyph-name="afii10051" unicode="&#x402;" horiz-adv-x="872" 
d="M13 671h635v-191h-84l-21 111l-18 12h-116v-241c63 15 114 23 167 23c37 0 140 -4 204 -58c45 -38 57 -82 57 -129c0 -46 -11 -107 -73 -156c-51 -40 -119 -54 -175 -54c-13 0 -54 1 -118 24v172h82l23 -116l13 -13c16 5 36 15 50 45c4 10 13 33 13 77c0 31 -4 70 -31 99
s-66 35 -99 35c-18 0 -62 -3 -113 -23v-288h-256v58l62 4l16 19v522h-97l-17 -12l-20 -121h-84v201z" />
    <glyph glyph-name="afii10052" unicode="&#x403;" horiz-adv-x="589" 
d="M28 0v58l64 4l16 19v513l-16 15l-64 4v58h546v-210h-98l-16 126l-12 16h-162v-522l19 -19l72 -4v-58h-349zM384 890h154l-160 -156h-86z" />
    <glyph glyph-name="afii10053" unicode="&#x404;" horiz-adv-x="676" 
d="M645 211v-187c-91 -31 -161 -38 -215 -38c-93 0 -193 11 -283 95c-81 76 -108 173 -108 253c0 121 62 233 166 295c60 36 136 55 230 55c59 0 131 -9 210 -40v-181h-92l-24 123l-17 16c-15 3 -33 6 -52 6c-85 0 -134 -38 -153 -56c-6 -5 -65 -63 -71 -168h265v-74h-265
c0 -61 18 -128 52 -171c22 -28 75 -77 172 -77c19 0 40 2 52 4l16 15l25 130h92z" />
    <glyph glyph-name="afii10054" unicode="&#x405;" horiz-adv-x="616" 
d="M59 24v185h92l24 -123l14 -15c20 -3 50 -5 71 -5c27 0 57 3 86 18c27 14 45 36 45 73c0 16 -4 30 -15 45c-21 28 -57 41 -94 56l-50 20c-26 10 -85 37 -121 77c-29 33 -44 72 -44 119c0 60 22 115 77 157c61 46 135 53 192 53c29 0 99 -3 205 -40v-169h-92l-21 111
l-12 12c-19 8 -33 9 -59 9c-32 0 -60 -3 -87 -22c-20 -14 -35 -35 -35 -69c0 -32 17 -52 47 -70c18 -11 38 -18 81 -37l46 -20c39 -17 79 -37 109 -67c20 -21 44 -55 44 -118c0 -73 -33 -119 -60 -145c-31 -29 -97 -73 -228 -73c-27 0 -102 3 -215 38z" />
    <glyph glyph-name="afii10055" unicode="&#x406;" horiz-adv-x="412" 
d="M28 0v58l72 4l16 19v513l-16 15l-72 4v58h356v-58l-74 -4l-16 -15v-513l16 -19l74 -4v-58h-356z" />
    <glyph glyph-name="afii10056" unicode="&#x407;" horiz-adv-x="412" 
d="M28 0v58l72 4l16 19v513l-16 15l-72 4v58h356v-58l-74 -4l-16 -15v-513l16 -19l74 -4v-58h-356zM26 820c0 42 34 76 76 76s76 -34 76 -76s-34 -76 -76 -76s-76 34 -76 76zM234 820c0 42 34 76 76 76s76 -34 76 -76s-34 -76 -76 -76s-76 34 -76 76z" />
    <glyph glyph-name="afii10057" unicode="&#x408;" horiz-adv-x="530" 
d="M160 671h349v-57l-62 -5l-17 -15v-325c0 -88 -14 -170 -70 -222c-58 -54 -143 -59 -194 -59c-30 0 -78 2 -154 24v192h92l23 -136l13 -13c31 1 59 14 75 31c32 34 37 100 37 184v324l-17 15l-75 4v58z" />
    <glyph glyph-name="afii10058" unicode="&#x409;" horiz-adv-x="1039" 
d="M154 671h574v-58l-67 -4l-17 -15v-190c35 4 76 6 106 6c55 0 124 -8 179 -49c49 -37 75 -90 75 -162c0 -47 -11 -104 -60 -145c-38 -32 -102 -54 -189 -54h-375v58l70 4l16 19v522h-122c-4 -97 -17 -221 -33 -300c-31 -151 -85 -238 -137 -280c-28 -23 -58 -35 -95 -35
c-23 0 -45 5 -62 17c-16 11 -33 32 -33 71c0 34 13 55 26 68c10 10 29 24 58 26l69 -60c32 42 66 103 89 225c16 82 25 184 28 255l-16 15l-84 8v58zM644 328v-258c12 -1 28 -2 46 -2c33 0 71 4 99 33c25 26 30 62 30 94c0 27 -3 79 -35 111c-25 24 -57 28 -85 28
c-21 0 -38 -2 -55 -6z" />
    <glyph glyph-name="afii10059" unicode="&#x40a;" horiz-adv-x="1107" 
d="M28 671h332v-58l-60 -4l-16 -15v-205h250v205l-16 15l-60 4v58h338v-58l-67 -4l-17 -15v-190c35 4 76 6 106 6c55 0 124 -8 179 -49c49 -37 75 -90 75 -162c0 -47 -11 -104 -60 -145c-38 -32 -102 -54 -189 -54h-365v58l60 4l16 19v234h-250v-234l16 -19l60 -4v-58h-332
v58l61 4l17 19v513l-17 15l-61 4v58zM712 328v-258c12 -1 28 -2 46 -2c33 0 71 4 99 33c25 26 30 62 30 94c0 27 -3 79 -35 111c-25 24 -57 28 -85 28c-21 0 -38 -2 -55 -6z" />
    <glyph glyph-name="afii10060" unicode="&#x40b;" horiz-adv-x="860" 
d="M13 671h635v-191h-84l-21 111l-18 12h-116v-241c60 16 108 23 150 23c121 0 169 -48 180 -60c37 -42 37 -89 37 -137v-107l17 -19l55 -4v-58h-198l-44 50v141c0 58 -14 81 -21 89c-9 11 -31 31 -81 31c-39 0 -74 -14 -95 -23v-207l17 -19l55 -4v-58h-328v58l62 4l16 19
v522h-97l-17 -12l-20 -121h-84v201z" />
    <glyph glyph-name="afii10061" unicode="&#x40c;" horiz-adv-x="740" 
d="M28 0v58l66 4l16 19v513l-16 15l-66 4v58h334v-58l-58 -4l-16 -15v-214h45c14 0 38 1 58 17c18 14 29 37 39 60l40 96c14 34 30 74 66 103c23 19 49 29 83 29c44 0 68 -16 82 -31c12 -13 23 -32 23 -60c0 -48 -31 -88 -80 -94l-82 70c-13 -19 -15 -29 -21 -43l-32 -81
c-22 -55 -44 -79 -74 -92v-2c29 -5 57 -17 87 -43c35 -31 56 -69 67 -94l62 -135l19 -16l70 -6v-58h-262v39l-78 189c-8 20 -19 44 -35 59c-17 16 -36 19 -50 19h-27v-225l16 -19l58 -4v-58h-334zM444 890h154l-160 -156h-86z" />
    <glyph glyph-name="afii10062" unicode="&#x40e;" horiz-adv-x="670" 
d="M80 197h92l18 -119l14 -12h10c20 0 42 10 57 23c19 16 34 43 42 65l-255 449l-68 10v58h324v-58l-58 -4l-10 -15l153 -274l105 266l-8 18l-64 9v58h240v-58l-61 -9l-177 -424c-39 -95 -75 -132 -95 -149c-36 -30 -80 -45 -134 -45c-22 0 -65 3 -125 26v185zM288 872v-86
c18 -5 37 -8 82 -8s64 3 82 8v86c19 16 40 24 70 24c60 0 84 -35 84 -68c0 -17 -5 -54 -56 -81c-23 -12 -70 -29 -180 -29s-157 17 -180 29c-51 27 -56 64 -56 81c0 33 24 68 84 68c30 0 51 -8 70 -24z" />
    <glyph glyph-name="afii10145" unicode="&#x40f;" horiz-adv-x="806" 
d="M28 671h332v-58l-60 -4l-16 -15v-526h238v526l-16 15l-60 4v58h332v-58l-62 -4l-16 -15v-513l16 -19l62 -4v-58h-293l-14 -16l-20 -184h-96l-20 184l-14 16h-293v58l61 4l17 19v513l-17 15l-61 4v58z" />
    <glyph glyph-name="afii10017" unicode="&#x410;" horiz-adv-x="701" 
d="M278 676h144l232 -610l61 -8v-58h-324v58l68 5l8 13l-53 149h-213l-50 -148l10 -12l64 -7v-58h-241v58l65 4zM304 513l-79 -221h160z" />
    <glyph glyph-name="afii10018" unicode="&#x411;" horiz-adv-x="680" 
d="M28 671h569v-201h-94l-16 121l-16 12h-186v-215c29 3 70 6 100 6c61 0 131 -8 184 -45c51 -35 76 -84 76 -154c0 -45 -11 -100 -60 -141c-38 -32 -102 -54 -189 -54h-368v58l63 4l16 19v513l-16 15l-63 4v58zM285 318v-249c18 -2 33 -2 46 -2c34 0 71 4 99 33
c27 27 30 60 30 93c0 30 -2 73 -37 105c-25 23 -55 26 -83 26c-21 0 -38 -2 -55 -6z" />
    <glyph glyph-name="afii10019" unicode="&#x412;" horiz-adv-x="686" 
d="M28 671h359c59 0 122 -9 163 -36c40 -26 62 -65 62 -120c0 -36 -9 -64 -36 -94c-34 -38 -73 -55 -114 -61v-2c27 -1 88 -8 131 -40c27 -20 56 -53 56 -125c0 -68 -27 -113 -69 -144c-63 -47 -153 -49 -185 -49h-367v58l63 4l16 19v513l-16 15l-63 4v58zM281 607v-227
c66 -6 105 12 124 34c17 20 25 52 25 84c0 27 -5 62 -33 85c-26 21 -63 24 -90 24h-26zM281 312v-247c53 -4 118 -4 155 37c26 29 28 68 28 87c0 37 -9 76 -47 100c-35 22 -88 23 -104 23h-32z" />
    <glyph glyph-name="afii10020" unicode="&#x413;" horiz-adv-x="589" 
d="M28 0v58l64 4l16 19v513l-16 15l-64 4v58h546v-210h-98l-16 126l-12 16h-162v-522l19 -19l72 -4v-58h-349z" />
    <glyph glyph-name="afii10021" unicode="&#x414;" horiz-adv-x="740" 
d="M148 671h564v-58l-62 -4l-16 -15v-514l12 -12h74v-248h-100l-26 164l-14 16h-442l-14 -16l-26 -164h-100v248h50c59 81 103 165 138 262c37 104 54 196 62 260l-16 15l-84 8v58zM154 68h302v535h-112c-11 -94 -36 -213 -74 -313c-32 -84 -74 -160 -116 -222z" />
    <glyph glyph-name="afii10022" unicode="&#x415;" horiz-adv-x="643" 
d="M28 0v58l67 4l16 19v513l-16 15l-67 4v58h550v-167h-86l-16 88l-14 11h-177v-221h105l15 14l10 72h71v-246h-71l-10 72l-15 14h-105v-240h208l14 16l16 110h86v-194h-581z" />
    <glyph glyph-name="afii10024" unicode="&#x416;" horiz-adv-x="1020" 
d="M349 671h322v-58l-60 -4l-16 -15v-214h30c17 0 35 1 54 17s30 42 37 60l37 96c15 39 32 77 63 103c18 15 46 29 85 29c42 0 66 -16 79 -31c11 -12 22 -32 22 -60c0 -48 -31 -88 -80 -94l-80 70c-9 -16 -13 -26 -19 -43l-28 -81c-19 -56 -42 -79 -70 -92v-2
c24 -2 63 -10 99 -43c30 -27 47 -62 60 -94l53 -135l19 -16l70 -6v-58h-254v44l-66 184c-6 17 -17 43 -35 59c-15 14 -32 19 -50 19h-26v-225l16 -19l60 -4v-58h-322v58l60 4l16 19v225h-26c-18 0 -35 -5 -50 -19c-18 -16 -29 -42 -35 -59l-66 -184v-44h-254v58l70 6l19 16
l53 135c13 32 30 67 60 94c36 33 75 41 99 43v2c-28 13 -51 36 -70 92l-28 81c-6 17 -10 27 -19 43l-80 -70c-49 6 -80 46 -80 94c0 28 11 48 22 60c13 15 37 31 79 31c35 0 61 -10 85 -30c37 -30 49 -65 63 -102l37 -96c7 -18 18 -44 37 -60s37 -17 54 -17h30v214l-16 15
l-60 4v58z" />
    <glyph glyph-name="afii10025" unicode="&#x417;" horiz-adv-x="606" 
d="M186 300v84c11 -1 32 -2 50 -2c28 0 68 5 93 30c20 20 28 53 28 85c0 26 -5 60 -30 84s-58 27 -85 27c-24 0 -42 -2 -58 -6l-17 -16l-24 -123h-92v181c82 30 158 40 228 40c104 0 153 -20 175 -32c33 -17 85 -57 85 -137c0 -41 -15 -74 -46 -102
c-28 -25 -72 -45 -109 -53v-2c45 -1 100 -18 134 -47c21 -18 51 -55 51 -117c0 -48 -16 -111 -87 -156c-62 -39 -159 -52 -229 -52c-100 0 -183 25 -222 38v187h92l25 -130l16 -15c21 -3 38 -4 61 -4c40 0 86 4 118 31c37 30 41 75 41 99c0 23 -3 52 -24 77
c-28 33 -69 37 -97 37c-23 0 -52 -2 -77 -6z" />
    <glyph glyph-name="afii10026" unicode="&#x418;" horiz-adv-x="834" 
d="M28 671h332v-58l-60 -4l-16 -15v-369l266 341v28l-16 15l-60 4v58h332v-58l-62 -4l-16 -15v-513l16 -19l62 -4v-58h-332v58l60 4l16 19v377l-266 -341v-36l16 -19l60 -4v-58h-332v58l61 4l17 19v513l-17 15l-61 4v58z" />
    <glyph glyph-name="afii10027" unicode="&#x419;" horiz-adv-x="834" 
d="M28 671h332v-58l-60 -4l-16 -15v-369l266 341v28l-16 15l-60 4v58h332v-58l-62 -4l-16 -15v-513l16 -19l62 -4v-58h-332v58l60 4l16 19v377l-266 -341v-36l16 -19l60 -4v-58h-332v58l61 4l17 19v513l-17 15l-61 4v58zM335 872v-86c18 -5 37 -8 82 -8s64 3 82 8v86
c19 16 40 24 70 24c60 0 84 -35 84 -68c0 -17 -5 -54 -56 -81c-23 -12 -70 -29 -180 -29s-157 17 -180 29c-51 27 -56 64 -56 81c0 33 24 68 84 68c30 0 51 -8 70 -24z" />
    <glyph glyph-name="afii10028" unicode="&#x41a;" horiz-adv-x="740" 
d="M28 0v58l66 4l16 19v513l-16 15l-66 4v58h334v-58l-58 -4l-16 -15v-214h45c14 0 38 1 58 17c18 14 29 37 39 60l40 96c14 34 30 74 66 103c23 19 49 29 83 29c44 0 68 -16 82 -31c12 -13 23 -32 23 -60c0 -48 -31 -88 -80 -94l-82 70c-13 -19 -15 -29 -21 -43l-32 -81
c-22 -55 -44 -79 -74 -92v-2c29 -5 57 -17 87 -43c35 -31 56 -69 67 -94l62 -135l19 -16l70 -6v-58h-262v39l-78 189c-8 20 -19 44 -35 59c-17 16 -36 19 -50 19h-27v-225l16 -19l58 -4v-58h-334z" />
    <glyph glyph-name="afii10029" unicode="&#x41b;" horiz-adv-x="750" 
d="M154 671h568v-58l-62 -4l-16 -15v-513l16 -19l62 -4v-58h-342v58l70 4l16 19v522h-122c-4 -97 -17 -221 -33 -300c-31 -151 -85 -238 -137 -280c-28 -23 -58 -35 -95 -35c-23 0 -45 5 -62 17c-16 11 -33 32 -33 71c0 34 13 55 26 68c10 10 29 24 58 26l69 -60
c32 42 66 103 89 225c16 82 25 184 28 255l-16 15l-84 8v58z" />
    <glyph glyph-name="afii10030" unicode="&#x41c;" horiz-adv-x="973" 
d="M23 0v58l70 4l12 19v513l-12 15l-70 4v58h323v-29l138 -419l137 420v28h324v-58l-75 -4l-12 -15v-513l12 -19l75 -4v-58h-324v58l62 4l9 19v516h-2l-196 -597h-101l-196 597h-2v-516l12 -19l66 -4v-58h-250z" />
    <glyph glyph-name="afii10031" unicode="&#x41d;" horiz-adv-x="818" 
d="M28 671h332v-58l-60 -4l-16 -15v-205h250v205l-16 15l-60 4v58h332v-58l-62 -4l-16 -15v-513l16 -19l62 -4v-58h-332v58l60 4l16 19v234h-250v-234l16 -19l60 -4v-58h-332v58l61 4l17 19v513l-17 15l-61 4v58z" />
    <glyph glyph-name="afii10032" unicode="&#x41e;" horiz-adv-x="815" 
d="M411 685c80 0 159 -19 230 -71c93 -69 135 -173 135 -278c0 -98 -36 -198 -121 -268c-63 -52 -151 -85 -254 -85c-94 0 -177 28 -238 77c-66 53 -124 145 -124 278c0 72 18 191 124 272c55 42 138 75 248 75zM406 609c-33 0 -75 -12 -110 -58c-38 -51 -57 -131 -57 -219
c0 -103 26 -172 59 -215c34 -44 75 -58 111 -58c31 0 73 11 107 54c42 54 60 141 60 227c0 105 -26 170 -53 207c-40 55 -89 62 -117 62z" />
    <glyph glyph-name="afii10033" unicode="&#x41f;" horiz-adv-x="810" 
d="M28 671h754v-58l-62 -4l-16 -15v-513l16 -19l62 -4v-58h-332v58l60 4l16 19v522h-242v-522l16 -19l60 -4v-58h-332v58l61 4l17 19v513l-17 15l-61 4v58z" />
    <glyph glyph-name="afii10034" unicode="&#x420;" horiz-adv-x="649" 
d="M28 0v58l64 4l19 19v513l-13 15l-70 4v58h324c113 0 166 -23 189 -36c67 -37 91 -95 91 -167c0 -91 -39 -141 -70 -167c-51 -44 -132 -61 -214 -61c-20 0 -41 1 -59 3v-162l15 -19l74 -4v-58h-350zM289 603v-292h8c31 0 75 3 104 28c28 23 43 68 43 119
c0 36 -8 74 -24 99c-15 24 -43 46 -90 46h-41z" />
    <glyph glyph-name="afii10035" unicode="&#x421;" horiz-adv-x="669" 
d="M638 211v-187c-90 -31 -162 -38 -215 -38c-90 0 -189 13 -276 95c-81 76 -108 173 -108 253c0 99 44 220 166 295c48 30 116 55 223 55c72 0 142 -14 210 -40v-181h-92l-24 123l-17 16c-12 3 -30 6 -52 6c-80 0 -127 -39 -144 -56c-47 -46 -75 -122 -75 -215
c0 -78 19 -149 57 -198c29 -36 81 -77 162 -77c18 0 41 3 52 4l16 15l25 130h92z" />
    <glyph glyph-name="afii10036" unicode="&#x422;" horiz-adv-x="640" 
d="M13 671h614v-201h-84l-21 121l-18 12h-95v-522l19 -19l67 -4v-58h-350v58l67 4l19 19v522h-97l-17 -12l-20 -121h-84v201z" />
    <glyph glyph-name="afii10037" unicode="&#x423;" horiz-adv-x="670" 
d="M80 197h92l18 -119l14 -12h10c20 0 42 10 57 23c19 16 34 43 42 65l-255 449l-68 10v58h324v-58l-58 -4l-10 -15l153 -274l105 266l-8 18l-64 9v58h240v-58l-61 -9l-177 -424c-39 -95 -75 -132 -95 -149c-36 -30 -80 -45 -134 -45c-22 0 -65 3 -125 26v185z" />
    <glyph glyph-name="afii10038" unicode="&#x424;" horiz-adv-x="884" 
d="M267 0v58l67 4l19 19v37h-24c-70 0 -152 16 -211 60c-53 40 -85 97 -85 176c0 101 50 157 92 186c69 48 158 53 206 53h22v36l-19 19l-67 4v58h349v-58l-66 -4l-19 -19v-36h22c48 0 137 -5 206 -53c42 -29 92 -85 92 -186c0 -79 -32 -136 -85 -176
c-59 -44 -141 -60 -211 -60h-24v-37l19 -19l66 -4v-58h-349zM359 525h-18c-26 0 -64 -4 -94 -36c-18 -19 -40 -58 -40 -135c0 -55 11 -91 27 -114c31 -47 76 -54 107 -54h18v339zM525 525v-339h18c31 0 76 7 107 54c16 23 27 59 27 114c0 77 -22 116 -40 135
c-30 32 -68 36 -94 36h-18z" />
    <glyph glyph-name="afii10039" unicode="&#x425;" horiz-adv-x="713" 
d="M16 671h335v-58l-63 -4l-8 -11l104 -168l125 164l-9 15l-53 4v58h250v-58l-63 -4l-197 -242l200 -299l68 -10v-58h-337v58l60 4l7 15l-110 174l-131 -174l6 -15l64 -4v-58h-257v58l65 4l197 253l-190 294l-63 4v58z" />
    <glyph glyph-name="afii10040" unicode="&#x426;" horiz-adv-x="806" 
d="M28 671h332v-58l-60 -4l-16 -15v-526h238v526l-16 15l-60 4v58h332v-58l-62 -4l-16 -15v-514l12 -12h74v-248h-100l-26 164l-14 16h-618v58l61 4l17 19v513l-17 15l-61 4v58z" />
    <glyph glyph-name="afii10041" unicode="&#x427;" horiz-adv-x="754" 
d="M12 671h312v-58l-54 -4l-16 -15v-134c0 -58 14 -81 21 -89c13 -16 37 -31 81 -31c9 0 57 1 114 23v231l-17 15l-55 4v58h328v-58l-62 -4l-16 -15v-513l16 -19l62 -4v-58h-345v58l74 4l15 19v208c-78 -18 -130 -23 -169 -23c-81 0 -145 20 -180 60c-37 42 -37 89 -37 137
v131l-17 15l-55 4v58z" />
    <glyph glyph-name="afii10042" unicode="&#x428;" horiz-adv-x="1098" 
d="M28 671h312v-58l-48 -4l-16 -15v-526h188v526l-17 15l-47 4v58h298v-58l-48 -4l-16 -15v-526h188v526l-16 15l-48 4v58h312v-58l-62 -4l-16 -15v-513l16 -19l62 -4v-58h-1042v58l61 4l17 19v513l-17 15l-61 4v58z" />
    <glyph glyph-name="afii10043" unicode="&#x429;" horiz-adv-x="1098" 
d="M28 671h312v-58l-48 -4l-16 -15v-526h188v526l-17 15l-47 4v58h298v-58l-48 -4l-16 -15v-526h188v526l-16 15l-48 4v58h312v-58l-62 -4l-16 -15v-514l12 -12h74v-248h-100l-26 164l-14 16h-910v58l61 4l17 19v513l-17 15l-61 4v58z" />
    <glyph glyph-name="afii10044" unicode="&#x42a;" horiz-adv-x="804" 
d="M409 594v-190c35 4 76 6 106 6c55 0 124 -8 179 -49c49 -37 75 -90 75 -162c0 -47 -11 -104 -60 -145c-38 -32 -102 -54 -189 -54h-375v58l67 4l19 19v522h-91l-17 -12l-20 -130h-90v210h480v-58l-67 -4zM409 328v-258c12 -1 28 -2 46 -2c33 0 71 4 99 33
c25 26 30 62 30 94c0 27 -3 79 -35 111c-25 24 -57 28 -85 28c-21 0 -38 -2 -55 -6z" />
    <glyph glyph-name="afii10045" unicode="&#x42b;" horiz-adv-x="994" 
d="M28 671h341v-58l-67 -4l-17 -15v-190c34 4 76 6 106 6c52 0 117 -8 168 -49c26 -21 71 -69 71 -162c0 -78 -33 -123 -57 -145c-28 -25 -82 -54 -177 -54h-368v58l63 4l16 19v513l-16 15l-63 4v58zM285 328v-258c12 -1 28 -2 46 -2c31 0 69 4 96 33c24 26 29 63 29 94
c0 55 -14 91 -34 111c-24 25 -55 28 -82 28c-20 0 -38 -2 -55 -6zM634 0v58l60 4l16 19v513l-16 15l-60 4v58h332v-58l-62 -4l-16 -15v-513l16 -19l62 -4v-58h-332z" />
    <glyph glyph-name="afii10046" unicode="&#x42c;" horiz-adv-x="680" 
d="M28 671h341v-58l-67 -4l-17 -15v-190c35 4 76 6 106 6c55 0 124 -8 179 -49c49 -37 75 -90 75 -162c0 -47 -11 -104 -60 -145c-38 -32 -102 -54 -189 -54h-368v58l63 4l16 19v513l-16 15l-63 4v58zM285 328v-258c12 -1 28 -2 46 -2c33 0 71 4 99 33c25 26 30 62 30 94
c0 27 -3 79 -35 111c-25 24 -57 28 -85 28c-21 0 -38 -2 -55 -6z" />
    <glyph glyph-name="afii10047" unicode="&#x42d;" horiz-adv-x="676" 
d="M176 304v74h265c-3 61 -28 131 -72 174c-34 33 -85 56 -146 56c-22 0 -40 -3 -52 -6l-17 -16l-24 -123h-92v181c68 26 138 40 210 40c107 0 175 -25 223 -55c122 -75 166 -196 166 -295c0 -80 -27 -177 -108 -253c-87 -82 -186 -95 -276 -95c-51 0 -128 6 -222 38v187h92
l25 -130l16 -15c7 -1 36 -4 59 -4c82 0 135 39 165 77c33 42 52 107 54 165h-266z" />
    <glyph glyph-name="afii10048" unicode="&#x42e;" horiz-adv-x="1160" 
d="M28 0v58l61 4l17 19v513l-17 15l-61 4v58h332v-58l-60 -4l-16 -15v-208h128c12 127 82 197 116 224c25 20 103 75 238 75c104 0 177 -35 224 -71c89 -68 131 -176 131 -279c0 -96 -36 -198 -118 -267c-61 -52 -147 -85 -247 -85c-89 0 -170 28 -228 77
c-49 42 -112 126 -117 258h-127v-237l16 -19l60 -4v-58h-332zM761 609c-45 0 -78 -21 -104 -58c-48 -68 -53 -168 -53 -219c0 -54 6 -146 55 -215c24 -34 56 -58 105 -58c28 0 69 9 102 54c51 69 55 184 55 227c0 58 -6 144 -50 208c-24 35 -58 61 -110 61z" />
    <glyph glyph-name="afii10049" unicode="&#x42f;" horiz-adv-x="728" 
d="M700 671v-58l-62 -4l-16 -15v-513l16 -19l62 -4v-58h-338v58l66 4l16 19v210h-22c-22 0 -44 -2 -66 -21c-20 -18 -35 -53 -38 -60l-72 -171v-39h-250v58l66 4l18 19l53 110c28 58 47 80 53 87c16 18 43 38 81 48v2c-46 0 -96 15 -128 42c-24 20 -52 57 -52 119
c0 67 33 112 64 137c54 42 124 45 186 45h363zM444 359v244h-52c-30 0 -58 -3 -84 -25c-32 -28 -38 -67 -38 -95c0 -51 20 -81 41 -98c35 -28 81 -26 108 -26h25z" />
    <glyph glyph-name="afii10065" unicode="&#x430;" horiz-adv-x="619" 
d="M236 448v-104h-119c-33 0 -45 7 -49 11c-10 8 -11 19 -11 28c0 21 11 58 75 89c54 26 119 36 183 36c53 0 124 -8 171 -51c44 -41 44 -87 44 -161v-225l11 -13l55 -5v-53h-221l-14 56c-25 -16 -57 -34 -84 -46c-28 -12 -60 -23 -99 -23c-42 0 -80 15 -105 39
c-23 22 -40 58 -40 98c0 31 9 81 59 116c40 28 95 41 136 51c49 12 101 23 135 30v29c0 22 -4 55 -30 76c-23 19 -70 23 -97 22zM363 105v150c-58 -8 -86 -18 -93 -21c-24 -9 -58 -29 -58 -77c0 -28 13 -46 24 -55c13 -10 31 -16 53 -16c23 0 50 9 74 19z" />
    <glyph glyph-name="afii10066" unicode="&#x431;" horiz-adv-x="654" 
d="M522 746h70c0 -38 -12 -90 -39 -120c-46 -52 -129 -55 -172 -57l-43 -2c-102 -5 -155 -30 -185 -79c-19 -31 -28 -69 -28 -102h2c24 38 53 60 78 74c54 30 116 33 148 33c83 0 141 -23 180 -54c42 -33 85 -93 85 -200c0 -57 -13 -126 -74 -180c-63 -56 -151 -67 -214 -67
c-66 0 -152 9 -213 67c-65 62 -75 151 -75 225c0 83 12 254 93 341c66 71 149 78 225 81l69 3c58 3 73 9 77 12c6 3 15 11 16 25zM331 430c-35 0 -61 -15 -79 -50c-9 -17 -23 -53 -23 -137c0 -76 11 -115 22 -137c16 -34 41 -51 80 -51c43 0 66 22 81 56c8 18 19 54 19 129
c0 92 -17 131 -25 145c-15 28 -37 45 -75 45z" />
    <glyph glyph-name="afii10067" unicode="&#x432;" horiz-adv-x="614" 
d="M30 493h321c86 0 128 -11 155 -26c32 -18 52 -45 52 -89c0 -29 -9 -56 -33 -79c-18 -17 -45 -30 -75 -35v-2c32 -3 72 -15 95 -34c16 -13 39 -39 39 -85c0 -35 -11 -84 -67 -114c-18 -10 -63 -29 -161 -29h-326v53l54 5l11 13v351l-11 13l-54 5v53zM258 425v-135
c12 -1 29 -2 47 -2c19 0 53 0 72 23c8 9 15 25 15 49c0 16 -3 36 -19 51c-18 17 -42 18 -61 18s-38 -2 -54 -4zM258 224v-154c14 -3 33 -6 56 -6c18 0 49 2 69 22c14 15 21 38 21 61c0 29 -11 51 -25 63c-18 16 -44 18 -64 18c-21 0 -45 -3 -57 -4z" />
    <glyph glyph-name="afii10068" unicode="&#x433;" horiz-adv-x="488" 
d="M30 0v53l54 5l11 13v351l-13 13l-58 5v53h452v-180h-92l-15 99l-17 17h-90v-358l14 -13l74 -5v-53h-320z" />
    <glyph glyph-name="afii10069" unicode="&#x434;" horiz-adv-x="602" 
d="M95 493h477v-53l-54 -5l-11 -13v-348l12 -10h61v-216h-88l-19 135l-17 17h-340l-17 -17l-19 -135h-88v216h50c18 30 54 93 83 172c28 76 42 144 49 186l-11 13l-68 5v53zM134 64h206v367h-82c-10 -59 -28 -140 -52 -208c-19 -53 -45 -110 -72 -159z" />
    <glyph glyph-name="afii10070" unicode="&#x435;" horiz-adv-x="585" 
d="M552 141v-92c-29 -14 -56 -25 -86 -34c-48 -15 -91 -23 -150 -23c-52 0 -130 8 -192 57c-43 33 -88 94 -88 197c0 109 49 170 87 201c40 33 100 61 190 61c73 0 144 -21 192 -82c44 -56 50 -124 50 -165v-14h-345c1 -41 15 -86 36 -112c33 -41 81 -47 118 -47
c41 0 76 7 111 19c24 8 54 22 77 34zM214 310h163c-2 76 -16 101 -22 109c-17 23 -39 26 -55 26c-23 0 -42 -5 -59 -26c-20 -25 -25 -61 -27 -109z" />
    <glyph glyph-name="afii10072" unicode="&#x436;" horiz-adv-x="880" 
d="M310 0v53l41 5l13 13v151h-23c-9 0 -24 -1 -37 -12c-10 -8 -20 -23 -25 -37l-45 -128v-45h-224v53l50 5l13 10l53 111c10 20 24 40 48 56c32 21 67 24 77 25v2c-14 5 -33 15 -47 49l-24 59c-6 14 -9 24 -19 38l-69 -53c-25 1 -42 12 -52 24c-11 12 -18 31 -18 49
c0 20 9 42 22 54c14 13 36 22 63 22c38 0 63 -14 79 -27c24 -20 38 -48 46 -67l31 -71c11 -25 20 -36 27 -42c14 -11 28 -11 41 -11h33v136l-13 13l-41 5v53h260v-53l-41 -5l-13 -13v-136h33c13 0 27 0 41 11c7 6 16 17 27 42l31 71c8 19 22 47 46 67c16 13 41 27 79 27
c27 0 49 -9 63 -22c13 -12 22 -34 22 -54c0 -18 -7 -37 -18 -49c-10 -12 -27 -23 -52 -24l-69 53c-10 -14 -13 -24 -19 -38l-24 -59c-14 -34 -33 -44 -47 -49v-2c10 -1 45 -4 77 -25c24 -16 38 -36 48 -56l53 -111l13 -10l50 -5v-53h-224v45l-45 128c-5 14 -15 29 -25 37
c-13 11 -28 12 -37 12h-23v-151l13 -13l41 -5v-53h-260z" />
    <glyph glyph-name="afii10073" unicode="&#x437;" horiz-adv-x="530" 
d="M164 223v68c13 -1 33 -3 47 -3c13 0 49 1 70 19c18 16 22 39 22 57c0 19 -3 37 -17 53c-19 22 -44 25 -68 25c-21 0 -46 -2 -74 -20l-13 -14l-11 -79h-80v153c83 17 125 26 189 26c32 0 139 0 195 -38c27 -18 51 -50 51 -94c0 -33 -16 -59 -35 -76
c-18 -16 -47 -30 -75 -36v-2c35 -2 70 -14 93 -30c31 -22 42 -52 42 -86c0 -48 -21 -97 -90 -128c-50 -22 -131 -30 -190 -30c-22 0 -53 2 -76 5c-12 1 -58 7 -116 23v167h80l11 -91l11 -13c29 -18 53 -25 81 -25c12 0 46 1 71 19c24 18 31 42 31 67c0 21 -3 51 -30 71
c-19 14 -44 17 -62 17c-25 0 -52 -4 -57 -5z" />
    <glyph glyph-name="afii10074" unicode="&#x438;" horiz-adv-x="710" 
d="M30 0v53l54 5l11 13v351l-11 13l-54 5v53h292v-53l-47 -5l-13 -13v-234l186 211v23l-13 13l-47 5v53h292v-53l-54 -5l-11 -13v-351l11 -13l54 -5v-53h-292v53l47 5l13 13v236l-186 -211v-25l13 -13l47 -5v-53h-292z" />
    <glyph glyph-name="afii10075" unicode="&#x439;" horiz-adv-x="710" 
d="M30 0v53l54 5l11 13v351l-11 13l-54 5v53h292v-53l-47 -5l-13 -13v-234l186 211v23l-13 13l-47 5v53h292v-53l-54 -5l-11 -13v-351l11 -13l54 -5v-53h-292v53l47 5l13 13v236l-186 -211v-25l13 -13l47 -5v-53h-292zM279 711v-91c12 -3 32 -6 76 -6s64 3 76 6v91
c11 10 32 27 71 27c50 0 79 -31 79 -70c0 -34 -18 -60 -51 -79c-30 -18 -77 -33 -175 -33s-145 15 -175 33c-33 19 -51 45 -51 79c0 39 29 70 79 70c39 0 60 -17 71 -27z" />
    <glyph glyph-name="afii10076" unicode="&#x43a;" horiz-adv-x="640" 
d="M30 0v53l54 5l11 13v351l-11 13l-54 5v53h296v-53l-51 -5l-13 -13v-136h47c13 0 27 0 41 11c7 6 16 17 27 42l31 71c8 19 22 47 46 67c20 17 46 27 79 27c29 0 52 -9 66 -22c11 -10 23 -28 23 -57c0 -19 -5 -34 -18 -49s-32 -25 -56 -25l-69 53c-10 -13 -13 -22 -19 -36
l-24 -57c-13 -30 -28 -43 -47 -49v-2c10 -1 45 -4 77 -25c24 -16 38 -36 48 -56l53 -111l13 -10l50 -5v-53h-224v45l-45 128c-5 14 -15 29 -25 37s-25 12 -37 12h-37v-151l13 -13l51 -5v-53h-296z" />
    <glyph glyph-name="afii10077" unicode="&#x43b;" horiz-adv-x="606" 
d="M99 493h477v-53l-54 -5l-11 -13v-351l11 -13l54 -5v-53h-297v53l54 5l11 13v358h-86c-3 -71 -14 -163 -29 -229c-23 -103 -56 -146 -75 -165c-31 -32 -64 -43 -96 -43c-24 0 -48 8 -61 22c-11 12 -17 33 -17 52c0 23 8 41 20 53c6 6 21 20 46 23l64 -48
c17 25 33 56 47 135c15 85 20 161 21 193l-11 13l-68 5v53z" />
    <glyph glyph-name="afii10078" unicode="&#x43c;" horiz-adv-x="780" 
d="M30 493h274v-28l91 -279l91 279v28h264v-53l-54 -5l-11 -13v-351l11 -13l54 -5v-53h-271v53l42 5l13 13v345h-2l-136 -416h-83l-136 416h-2v-345l13 -13l42 -5v-53h-200v53l54 5l11 13v351l-11 13l-54 5v53z" />
    <glyph glyph-name="afii10079" unicode="&#x43d;" horiz-adv-x="696" 
d="M30 0v53l54 5l11 13v351l-11 13l-54 5v53h287v-53l-42 -5l-13 -13v-132h172v132l-13 13l-42 5v53h287v-53l-54 -5l-11 -13v-351l11 -13l54 -5v-53h-287v53l42 5l13 13v155h-172v-155l13 -13l42 -5v-53h-287z" />
    <glyph glyph-name="afii10080" unicode="&#x43e;" horiz-adv-x="648" 
d="M333 508c55 0 129 -8 190 -57c55 -44 89 -110 89 -204c0 -84 -28 -144 -74 -186c-47 -43 -117 -69 -214 -69c-61 0 -150 10 -215 70c-49 45 -73 106 -73 185c0 78 22 147 82 197c38 32 105 64 215 64zM325 445c-35 0 -61 -15 -79 -52c-9 -18 -23 -57 -23 -143
c0 -79 11 -119 22 -142c13 -27 36 -53 80 -53c48 0 70 31 81 58c8 18 19 55 19 134c0 97 -17 136 -25 151c-15 28 -37 47 -75 47z" />
    <glyph glyph-name="afii10081" unicode="&#x43f;" horiz-adv-x="688" 
d="M30 0v53l54 5l11 13v351l-11 13l-54 5v53h628v-53l-54 -5l-11 -13v-351l11 -13l54 -5v-53h-283v53l38 5l13 13v358h-164v-358l13 -13l38 -5v-53h-283z" />
    <glyph glyph-name="afii10082" unicode="&#x440;" horiz-adv-x="662" 
d="M22 -220v53l57 5l11 13v549h-70v48l185 59h52v-67c28 17 72 41 101 53c22 9 42 15 67 15c37 0 97 -9 145 -68c37 -45 56 -108 56 -173c0 -93 -37 -151 -70 -185c-54 -55 -132 -82 -214 -82c-49 0 -70 3 -85 5v-154l13 -13l66 -5v-53h-314zM257 395v-333c7 -1 15 -2 26 -2
c70 0 106 30 125 55c32 44 34 110 34 129c0 62 -17 96 -31 114c-24 30 -62 42 -97 42c-15 0 -43 -3 -57 -5z" />
    <glyph glyph-name="afii10083" unicode="&#x441;" horiz-adv-x="540" 
d="M349 322v132c-46 -5 -75 -29 -93 -52c-34 -44 -36 -107 -36 -133c0 -45 9 -84 31 -119c33 -51 79 -64 116 -64c11 0 28 1 51 7c33 9 79 29 107 44v-89c-45 -22 -83 -33 -99 -38c-39 -11 -77 -18 -128 -18c-53 0 -126 7 -189 70c-40 40 -73 100 -73 181
c0 80 31 144 76 188c33 32 101 77 216 77c74 0 121 -20 150 -43c35 -28 43 -60 43 -84c0 -31 -13 -49 -25 -60c-13 -12 -35 -23 -67 -23c-34 0 -63 14 -80 24z" />
    <glyph glyph-name="afii10084" unicode="&#x442;" horiz-adv-x="547" 
d="M115 0v53l61 5l14 13v358h-62l-17 -17l-11 -99h-88v180h523v-180h-88l-11 99l-17 17h-62v-358l14 -13l61 -5v-53h-317z" />
    <glyph glyph-name="afii10085" unicode="&#x443;" horiz-adv-x="567" 
d="M-8 493h300v-51l-51 -9l-9 -11l103 -258l99 258l-10 11l-54 9v51h213v-51l-55 -10l-194 -453c-16 -37 -37 -75 -67 -111c-51 -61 -112 -91 -162 -91c-30 0 -53 12 -70 28c-23 22 -29 47 -29 66s6 43 28 62c21 19 47 25 53 26l85 -81c40 26 65 66 79 94l-198 458l-61 12
v51z" />
    <glyph glyph-name="afii10086" unicode="&#x444;" horiz-adv-x="843" 
d="M263 -220v53l62 5l13 13v149c-93 -3 -182 14 -241 76c-48 51 -61 111 -61 162c0 83 29 150 75 190c67 59 175 66 227 65v144h-69v48l186 58h50v-250c52 1 160 -6 227 -65c46 -40 75 -107 75 -190c0 -51 -13 -111 -61 -162c-59 -62 -148 -79 -241 -76v-149l14 -13l61 -5
v-53h-317zM346 64v365c-49 1 -79 -21 -99 -48c-29 -41 -33 -97 -33 -141c0 -41 5 -87 27 -124c16 -27 46 -56 105 -52zM497 429v-365c59 -4 89 25 105 52c22 37 27 83 27 124c0 44 -4 100 -33 141c-20 27 -50 49 -99 48z" />
    <glyph glyph-name="afii10087" unicode="&#x445;" horiz-adv-x="593" 
d="M9 493h276v-46l-31 -7l-4 -12l80 -109l82 114l-42 9v51h194v-56l-58 -4l-129 -155l157 -217l50 -8v-53h-265v42l30 11l4 10l-88 121l-91 -126l41 -7v-51h-206v53l65 12l141 166l-150 202l-56 4v56z" />
    <glyph glyph-name="afii10088" unicode="&#x446;" horiz-adv-x="696" 
d="M30 0v53l54 5l11 13v351l-11 13l-54 5v53h287v-53l-42 -5l-13 -13v-358h164v358l-13 13l-42 5v53h287v-53l-54 -5l-11 -13v-348l12 -10h69v-216h-88l-19 135l-17 17h-520z" />
    <glyph glyph-name="afii10089" unicode="&#x447;" horiz-adv-x="636" 
d="M9 493h263v-53l-35 -5l-13 -12v-100c0 -14 2 -32 15 -47c9 -10 27 -20 56 -20c24 0 55 7 81 20v147l-13 12l-35 5v53h280v-53l-54 -5l-11 -13v-351l11 -13l54 -5v-53h-307v53l61 5l14 13v141c-56 -15 -94 -20 -137 -20s-97 5 -137 36s-45 66 -45 95v100l-13 12l-35 5v53z
" />
    <glyph glyph-name="afii10090" unicode="&#x448;" horiz-adv-x="956" 
d="M30 0v53l54 5l11 13v351l-11 13l-54 5v53h271v-53l-35 -5l-13 -12v-359h146v359l-13 12l-35 5v53h254v-53l-37 -5l-11 -12v-359h146v359l-13 12l-35 5v53h271v-53l-54 -5l-11 -13v-351l11 -13l54 -5v-53h-896z" />
    <glyph glyph-name="afii10091" unicode="&#x449;" horiz-adv-x="964" 
d="M30 0v53l54 5l11 13v351l-11 13l-54 5v53h271v-53l-35 -5l-13 -12v-359h146v359l-13 12l-35 5v53h254v-53l-37 -5l-11 -12v-359h146v359l-13 12l-35 5v53h271v-53l-54 -5l-11 -13v-348l12 -10h69v-216h-88l-19 135l-17 17h-788z" />
    <glyph glyph-name="afii10092" unicode="&#x44a;" horiz-adv-x="690" 
d="M115 0v53l61 5l14 13v358h-62l-17 -17l-9 -99h-90v180h420v-53l-61 -5l-14 -13v-126c20 2 58 6 89 6c52 0 119 -8 161 -43c29 -24 52 -63 52 -112c0 -38 -13 -86 -67 -116c-37 -21 -97 -31 -147 -31h-330zM357 232v-162c15 -4 30 -6 48 -6c20 0 49 2 68 22
c13 15 20 39 20 64c0 38 -14 59 -27 70c-18 15 -40 18 -59 18c-17 0 -34 -2 -50 -6z" />
    <glyph glyph-name="afii10093" unicode="&#x44b;" horiz-adv-x="880" 
d="M30 0v53l54 5l11 13v351l-11 13l-54 5v53h307v-53l-61 -5l-14 -13v-126c19 2 58 6 89 6c37 0 107 -4 153 -43c20 -17 50 -52 50 -112c0 -49 -19 -89 -64 -116c-44 -27 -99 -31 -140 -31h-320zM262 232v-162c15 -4 30 -6 48 -6c20 0 49 2 68 22c13 15 20 39 20 64
c0 38 -14 59 -27 70c-18 15 -40 18 -59 18c-17 0 -34 -2 -50 -6zM563 0v53l42 5l13 13v351l-13 13l-42 5v53h287v-53l-54 -5l-11 -13v-351l11 -13l54 -5v-53h-287z" />
    <glyph glyph-name="afii10094" unicode="&#x44c;" horiz-adv-x="595" 
d="M30 0v53l54 5l11 13v351l-11 13l-54 5v53h307v-53l-61 -5l-14 -13v-126c20 2 58 6 89 6c52 0 119 -8 161 -43c29 -24 52 -63 52 -112c0 -38 -13 -86 -67 -116c-37 -21 -97 -31 -147 -31h-320zM262 232v-162c15 -4 30 -6 48 -6c20 0 49 2 68 22c13 15 20 39 20 64
c0 38 -14 59 -27 70c-18 15 -40 18 -59 18c-17 0 -34 -2 -50 -6z" />
    <glyph glyph-name="afii10095" unicode="&#x44d;" horiz-adv-x="540" 
d="M150 286h169c0 34 -9 88 -31 118s-50 38 -79 38c-13 0 -37 -3 -65 -20l-13 -14l-11 -79h-80v153c74 16 121 26 178 26c72 0 140 -13 197 -61c38 -32 89 -94 89 -200c0 -103 -49 -164 -93 -197c-54 -41 -138 -62 -201 -62c-19 0 -53 3 -72 5c-50 6 -99 20 -110 23v167h80
l11 -91l11 -13c26 -19 49 -25 71 -25c52 0 82 30 96 56c16 29 24 74 22 112h-169v64z" />
    <glyph glyph-name="afii10096" unicode="&#x44e;" horiz-adv-x="940" 
d="M30 0v53l54 5l11 13v351l-11 13l-54 5v53h287v-53l-42 -5l-13 -13v-132h78c7 71 41 123 77 154s100 64 208 64c55 0 129 -8 190 -57c55 -44 89 -110 89 -204c0 -84 -28 -144 -74 -186c-37 -34 -103 -69 -214 -69c-59 0 -145 10 -208 70c-31 30 -67 85 -69 164h-77v-155
l13 -13l42 -5v-53h-287zM617 445c-35 0 -61 -15 -79 -52c-9 -18 -23 -57 -23 -143c0 -79 11 -119 22 -142c13 -27 36 -53 80 -53c48 0 70 31 81 58c8 18 19 55 19 134c0 97 -17 136 -25 151c-15 28 -37 47 -75 47z" />
    <glyph glyph-name="afii10097" unicode="&#x44f;" horiz-adv-x="620" 
d="M590 493v-53l-54 -5l-11 -13v-351l11 -13l54 -5v-53h-297v53l51 5l14 13v125h-30c-13 0 -28 -1 -42 -12c-9 -7 -18 -21 -24 -34l-45 -105v-45h-227v53l43 5l16 12l44 85c12 23 34 60 83 67v2c-29 2 -64 14 -87 33c-19 16 -42 46 -42 95c0 47 21 85 50 108
c38 30 86 33 132 33h361zM358 264v160c-20 4 -37 5 -54 5c-21 0 -41 -2 -59 -15c-26 -19 -31 -46 -31 -71c0 -22 4 -49 33 -68c21 -14 43 -15 64 -15s34 1 47 4z" />
    <glyph glyph-name="afii10071" unicode="&#x451;" horiz-adv-x="585" 
d="M552 141v-92c-29 -14 -56 -25 -86 -34c-48 -15 -91 -23 -150 -23c-52 0 -130 8 -192 57c-43 33 -88 94 -88 197c0 109 49 170 87 201c40 33 100 61 190 61c73 0 144 -21 192 -82c44 -56 50 -124 50 -165v-14h-345c1 -41 15 -86 36 -112c33 -41 81 -47 118 -47
c41 0 76 7 111 19c24 8 54 22 77 34zM214 310h163c-2 76 -16 101 -22 109c-17 23 -39 26 -55 26c-23 0 -42 -5 -59 -26c-20 -25 -25 -61 -27 -109zM199 729c40 0 76 -33 76 -81c0 -44 -31 -80 -76 -80c-44 0 -76 36 -76 80c0 46 35 81 76 81zM427 729c40 0 76 -33 76 -81
c0 -44 -31 -80 -76 -80c-44 0 -76 36 -76 80c0 46 35 81 76 81z" />
    <glyph glyph-name="afii10099" unicode="&#x452;" horiz-adv-x="660" 
d="M200 743h58v-153h200v-64h-200v-126c34 19 79 40 113 51c28 10 55 15 79 15c91 0 121 -60 133 -94c20 -57 24 -141 24 -201c0 -173 -35 -249 -66 -291c-45 -61 -121 -97 -207 -97c-15 0 -57 2 -86 21c-30 20 -36 48 -36 68c0 46 35 82 84 84l106 -124c8 38 11 68 14 118
c2 42 4 105 4 144c0 142 -8 203 -35 235c-23 27 -52 29 -74 29c-18 0 -34 -1 -53 -4v-283l14 -13l42 -5v-53h-286v53l51 5l12 13v455h-101v64h101v47h-71v48z" />
    <glyph glyph-name="afii10100" unicode="&#x453;" horiz-adv-x="488" 
d="M30 0v53l54 5l11 13v351l-13 13l-58 5v53h452v-180h-92l-15 99l-17 17h-90v-358l14 -13l74 -5v-53h-320zM291 748h149l-161 -190h-86z" />
    <glyph glyph-name="afii10101" unicode="&#x454;" horiz-adv-x="540" 
d="M439 222h-217c1 -29 10 -60 27 -84c23 -32 63 -56 118 -56c17 0 34 2 51 7c33 9 79 29 107 44v-89c-45 -22 -83 -33 -99 -38c-39 -11 -77 -18 -128 -18c-69 0 -133 14 -189 71c-48 50 -73 114 -73 184c0 80 31 144 76 188c71 68 163 77 227 77c27 0 96 -2 141 -29
c28 -17 41 -39 41 -66c0 -18 -6 -34 -21 -45c-16 -13 -42 -18 -63 -18c-12 0 -44 1 -78 16v78h-10c-26 0 -63 -4 -93 -42c-22 -28 -35 -75 -36 -116h219v-64z" />
    <glyph glyph-name="afii10102" unicode="&#x455;" horiz-adv-x="523" 
d="M462 482v-153h-72l-13 79l-13 14c-18 9 -42 18 -74 18c-15 0 -34 -1 -51 -12s-24 -26 -24 -45c0 -11 3 -20 10 -29c12 -14 32 -24 60 -35l46 -18c71 -28 110 -50 131 -75c18 -21 24 -42 24 -68c0 -38 -12 -74 -44 -105c-40 -40 -108 -65 -196 -65c-23 0 -54 2 -76 5
c-39 5 -103 18 -128 23v167h73l11 -91l11 -13c29 -14 66 -25 100 -25c27 0 49 7 63 19c12 11 17 24 17 41c0 11 -2 20 -11 31c-10 12 -26 21 -53 32l-50 21c-33 14 -93 46 -119 71c-22 21 -36 47 -36 81c0 37 13 83 66 118s114 40 163 40c62 0 110 -10 185 -26z" />
    <glyph glyph-name="afii10103" unicode="&#x456;" horiz-adv-x="354" 
d="M204 507h58v-436l13 -13l61 -5v-53h-312v53l59 5l12 13v329h-65v48zM88 648c0 51 41 92 92 92s92 -41 92 -92s-41 -92 -92 -92s-92 41 -92 92z" />
    <glyph glyph-name="afii10104" unicode="&#x457;" horiz-adv-x="354" 
d="M204 507h58v-436l13 -13l61 -5v-53h-312v53l59 5l12 13v329h-65v48zM86 729c40 0 76 -33 76 -81c0 -44 -31 -80 -76 -80c-44 0 -76 36 -76 80c0 46 35 81 76 81zM268 729c40 0 76 -33 76 -81c0 -44 -31 -80 -76 -80c-44 0 -76 36 -76 80c0 46 35 81 76 81z" />
    <glyph glyph-name="afii10105" unicode="&#x458;" horiz-adv-x="353" 
d="M111 400h-74v48l191 59h50v-395c0 -66 -8 -151 -48 -220c-50 -86 -131 -109 -201 -109c-16 0 -58 2 -87 21c-30 20 -36 48 -36 68c0 46 35 82 84 84l106 -124c12 65 15 121 15 192v376zM102 648c0 51 41 92 92 92s92 -41 92 -92s-41 -92 -92 -92s-92 41 -92 92z" />
    <glyph glyph-name="afii10106" unicode="&#x459;" horiz-adv-x="844" 
d="M99 493h487v-53l-61 -5l-14 -13v-126c20 2 58 6 89 6c52 0 119 -8 161 -43c29 -24 52 -63 52 -112c0 -38 -13 -86 -67 -116c-37 -21 -97 -31 -147 -31h-320v53l54 5l11 13v358h-86c-3 -71 -14 -163 -29 -229c-23 -103 -56 -146 -75 -165c-31 -32 -64 -43 -96 -43
c-24 0 -48 8 -61 22c-11 12 -17 33 -17 52c0 23 8 41 20 53c6 6 21 20 46 23l64 -48c17 25 33 56 47 135c15 85 20 161 21 193l-11 13l-68 5v53zM511 232v-162c15 -4 30 -6 48 -6c20 0 49 2 68 22c13 15 20 39 20 64c0 38 -14 59 -27 70c-18 15 -40 18 -59 18
c-17 0 -34 -2 -50 -6z" />
    <glyph glyph-name="afii10107" unicode="&#x45a;" horiz-adv-x="934" 
d="M30 0v53l54 5l11 13v351l-11 13l-54 5v53h287v-53l-42 -5l-13 -13v-132h172v132l-13 13l-42 5v53h297v-53l-61 -5l-14 -13v-126c20 2 58 6 89 6c52 0 119 -8 161 -43c29 -24 52 -63 52 -112c0 -38 -13 -86 -67 -116c-37 -21 -97 -31 -147 -31h-310v53l42 5l13 13v155
h-172v-155l13 -13l42 -5v-53h-287zM601 232v-162c15 -4 30 -6 48 -6c20 0 49 2 68 22c13 15 20 39 20 64c0 38 -14 59 -27 70c-18 15 -40 18 -59 18c-17 0 -34 -2 -50 -6z" />
    <glyph glyph-name="afii10108" unicode="&#x45b;" horiz-adv-x="674" 
d="M200 743h58v-153h200v-64h-200v-126c36 20 90 45 133 57c24 7 43 9 61 9c47 0 86 -14 110 -49c27 -38 31 -93 31 -134v-212l11 -13l54 -5v-53h-192l-40 46v195c0 30 -1 69 -24 92s-68 24 -93 24c-20 0 -34 -1 -51 -3v-283l14 -13l42 -5v-53h-286v53l51 5l12 13v455h-101
v64h101v47h-71v48z" />
    <glyph glyph-name="afii10109" unicode="&#x45c;" horiz-adv-x="640" 
d="M30 0v53l54 5l11 13v351l-11 13l-54 5v53h296v-53l-51 -5l-13 -13v-136h47c13 0 27 0 41 11c7 6 16 17 27 42l31 71c8 19 22 47 46 67c20 17 46 27 79 27c29 0 52 -9 66 -22c11 -10 23 -28 23 -57c0 -19 -5 -34 -18 -49s-32 -25 -56 -25l-69 53c-10 -13 -13 -22 -19 -36
l-24 -57c-13 -30 -28 -43 -47 -49v-2c10 -1 45 -4 77 -25c24 -16 38 -36 48 -56l53 -111l13 -10l50 -5v-53h-224v45l-45 128c-5 14 -15 29 -25 37s-25 12 -37 12h-37v-151l13 -13l51 -5v-53h-296zM397 748h149l-161 -190h-86z" />
    <glyph glyph-name="afii10110" unicode="&#x45e;" horiz-adv-x="567" 
d="M-8 493h300v-51l-51 -9l-9 -11l103 -258l99 258l-10 11l-54 9v51h213v-51l-55 -10l-194 -453c-16 -37 -37 -75 -67 -111c-51 -61 -112 -91 -162 -91c-30 0 -53 12 -70 28c-23 22 -29 47 -29 66s6 43 28 62c21 19 47 25 53 26l85 -81c40 26 65 66 79 94l-198 458l-61 12
v51zM254 711v-91c12 -3 32 -6 76 -6s64 3 76 6v91c11 10 32 27 71 27c50 0 79 -31 79 -70c0 -34 -18 -60 -51 -79c-30 -18 -77 -33 -175 -33s-145 15 -175 33c-33 19 -51 45 -51 79c0 39 29 70 79 70c39 0 60 -17 71 -27z" />
    <glyph glyph-name="afii10193" unicode="&#x45f;" horiz-adv-x="696" 
d="M30 0v53l54 5l11 13v351l-11 13l-54 5v53h287v-53l-42 -5l-13 -13v-358h172v358l-13 13l-42 5v53h287v-53l-54 -5l-11 -13v-351l11 -13l54 -5v-53h-245l-12 -14l-19 -156h-84l-19 156l-12 14h-245z" />
    <glyph glyph-name="afii10146" unicode="&#x462;" horiz-adv-x="804" 
d="M13 593h218v36l-19 19l-67 4v58h349v-58l-66 -4l-19 -19v-36h278v-173h-84l-21 93l-18 12h-155v-161c29 3 72 6 97 6c45 0 134 -7 189 -43c40 -26 74 -71 74 -142s-33 -112 -60 -134c-45 -36 -116 -51 -189 -51h-375v58l67 4l19 19v444h-91l-17 -12l-20 -130h-90v210z
M409 288v-218c13 -1 28 -2 46 -2c34 0 71 3 99 30c25 24 30 58 30 84c0 20 -3 62 -34 88c-25 21 -60 24 -86 24c-21 0 -38 -2 -55 -6z" />
    <glyph glyph-name="afii10194" unicode="&#x463;" horiz-adv-x="690" 
d="M115 0v53l61 5l14 13v358h-62l-17 -17l-9 -99h-90v180h178v144h-69v48l186 58h50v-250h218v-160h-88l-11 79l-17 17h-102v-143c19 2 59 6 89 6c51 0 119 -9 161 -40c32 -23 52 -57 52 -105c0 -38 -13 -86 -67 -116c-37 -21 -97 -31 -147 -31h-330zM357 222v-152
c15 -4 30 -6 48 -6c20 0 49 2 68 22c20 21 20 58 20 64c0 20 -5 45 -26 62c-19 15 -45 16 -60 16c-22 0 -40 -4 -50 -6z" />
    <glyph glyph-name="afii10147" unicode="&#x472;" horiz-adv-x="815" 
d="M411 685c80 0 159 -19 230 -71c93 -69 135 -173 135 -278c0 -98 -36 -198 -121 -268c-63 -52 -151 -85 -254 -85c-94 0 -177 28 -238 77c-66 53 -124 145 -124 278c0 72 18 191 124 272c55 42 138 75 248 75zM413 396l42 -21c39 -20 55 -24 66 -24c22 0 48 13 64 32
c-2 66 -27 127 -55 164c-42 55 -95 62 -124 62c-35 0 -80 -12 -117 -58c-39 -49 -57 -120 -58 -179c26 26 69 46 110 46c25 0 49 -11 72 -22zM417 277l-34 17c-38 19 -63 31 -86 31c-20 0 -46 -11 -66 -33c2 -66 26 -133 60 -175c36 -45 81 -58 118 -58c34 0 77 11 113 54
c37 44 64 121 63 196c-24 -26 -66 -51 -103 -51c-24 0 -46 10 -65 19z" />
    <glyph glyph-name="afii10195" unicode="&#x473;" horiz-adv-x="648" 
d="M333 508c55 0 129 -8 190 -57c55 -44 89 -110 89 -204c0 -84 -28 -144 -74 -186c-47 -43 -117 -69 -214 -69c-61 0 -150 10 -215 70c-49 45 -73 106 -73 185c0 78 22 147 82 197c38 32 105 64 215 64zM328 290l27 -16c10 -6 25 -15 38 -15c15 0 32 10 41 19
c0 31 -8 90 -26 121c-20 34 -50 46 -84 46c-38 0 -67 -15 -86 -51c-16 -29 -24 -80 -24 -117c17 16 43 30 66 30c17 0 34 -9 48 -17zM325 201l-22 13c-30 18 -43 20 -49 20c-13 0 -30 -9 -40 -20c1 -28 7 -73 23 -105c18 -35 46 -54 88 -54c40 0 70 17 89 59
c15 33 20 76 20 101c-18 -17 -46 -29 -67 -29c-16 0 -30 8 -42 15z" />
    <glyph glyph-name="afii10148" unicode="&#x474;" horiz-adv-x="776" 
d="M-20 671h327v-58l-61 -4l-11 -15l153 -413l104 284c21 58 52 138 109 183c34 26 69 35 100 35c12 0 40 -1 62 -17c16 -11 33 -32 33 -71c0 -34 -13 -55 -26 -68c-10 -10 -29 -24 -58 -26l-64 75c-26 -38 -44 -74 -62 -121l-171 -455h-134l-230 602l-71 11v58z" />
    <glyph glyph-name="afii10196" unicode="&#x475;" horiz-adv-x="636" 
d="M-8 493h301v-56l-55 -4l-9 -11l97 -260l49 123c25 63 51 130 96 173c28 27 61 43 103 43c31 0 52 -10 63 -22s17 -33 17 -52c0 -23 -8 -41 -20 -53c-6 -6 -21 -20 -46 -23l-64 56c-30 -43 -45 -80 -78 -162l-99 -245h-127l-167 433l-61 4v56z" />
    <glyph glyph-name="afii10050" unicode="&#x490;" horiz-adv-x="575" 
d="M28 0v58l64 4l16 19v513l-16 15l-64 4v58h406l12 16l16 126h98v-248h-50l-76 38h-148v-522l19 -19l72 -4v-58h-349z" />
    <glyph glyph-name="afii10098" unicode="&#x491;" horiz-adv-x="486" 
d="M30 0v53l54 5l11 13v351l-13 13l-58 5v53h344l12 14l11 107h83v-215h-44l-62 30h-106v-358l14 -13l61 -5v-53h-307z" />
    <glyph glyph-name="cyrGebar" unicode="&#x492;" horiz-adv-x="589" 
d="M28 0v58l64 4l16 19v214h-92v74h92v225l-16 15l-64 4v58h546v-210h-98l-16 126l-12 16h-162v-234h122v-74h-122v-214l19 -19l72 -4v-58h-349z" />
    <glyph glyph-name="cyrgebar" unicode="&#x493;" horiz-adv-x="488" 
d="M30 0v53l54 5l11 13v119h-100v70h100v162l-13 13l-58 5v53h452v-180h-92l-15 99l-17 17h-90v-169h120v-70h-120v-119l14 -13l74 -5v-53h-320z" />
    <glyph glyph-name="cyrGehook" unicode="&#x494;" horiz-adv-x="749" 
d="M28 0v58l64 4l16 19v513l-16 15l-64 4v58h586v-201h-98l-16 117l-12 16h-202v-221c63 15 114 23 167 23c93 0 162 -25 204 -64c45 -42 57 -92 57 -143c0 -46 -11 -107 -73 -156c-51 -40 -119 -54 -175 -54c-13 0 -54 1 -118 24v172h82l23 -116l13 -13c16 5 37 15 50 45
c9 21 13 52 13 82c0 37 -7 80 -31 109c-27 34 -65 40 -99 40s-75 -7 -113 -23v-308h-258z" />
    <glyph glyph-name="cyrgehook" unicode="&#x495;" horiz-adv-x="664" 
d="M30 0v53l54 5l11 13v351l-13 13l-58 5v53h482v-160h-92l-15 79l-17 17h-120v-225c34 19 79 40 113 51c29 10 53 15 83 15c39 0 73 -7 102 -33c31 -28 51 -73 51 -175c0 -101 -25 -167 -70 -209c-44 -42 -120 -70 -202 -70c-25 0 -61 4 -87 21c-30 20 -36 48 -36 68
c0 46 35 82 84 84l106 -124c8 24 11 44 14 74c2 25 4 64 4 90c0 46 0 120 -34 148c-19 15 -49 18 -75 18c-19 0 -35 -1 -53 -4v-87l14 -13l42 -5v-53h-288z" />
    <glyph glyph-name="cyrZhedesc" unicode="&#x496;" horiz-adv-x="1020" 
d="M349 671h322v-58l-60 -4l-16 -15v-214h30c17 0 35 1 54 17s30 42 37 60l37 96c15 39 32 77 63 103c18 15 46 29 85 29c42 0 66 -16 79 -31c11 -12 22 -32 22 -60c0 -48 -31 -88 -80 -94l-80 70c-9 -16 -13 -26 -19 -43l-28 -81c-19 -56 -42 -79 -70 -92v-2
c24 -2 63 -10 99 -43c30 -27 47 -62 60 -94l53 -135l20 -12h69v-248h-100l-26 164l-14 16h-114v44l-66 184c-6 17 -17 43 -35 59c-15 14 -32 19 -50 19h-26v-225l16 -19l60 -4v-58h-322v58l60 4l16 19v225h-26c-18 0 -35 -5 -50 -19c-18 -16 -29 -42 -35 -59l-66 -184v-44
h-254v58l70 6l19 16l53 135c13 32 30 67 60 94c36 33 75 41 99 43v2c-28 13 -51 36 -70 92l-28 81c-6 17 -10 27 -19 43l-80 -70c-49 6 -80 46 -80 94c0 28 11 48 22 60c13 15 37 31 79 31c35 0 61 -10 85 -30c37 -30 49 -65 63 -102l37 -96c7 -18 18 -44 37 -60
s37 -17 54 -17h30v214l-16 15l-60 4v58z" />
    <glyph glyph-name="cyrzhedesc" unicode="&#x497;" horiz-adv-x="880" 
d="M310 0v53l41 5l13 13v151h-23c-9 0 -24 -1 -37 -12c-10 -8 -20 -23 -25 -37l-45 -128v-45h-224v53l50 5l13 10l53 111c10 20 24 40 48 56c32 21 67 24 77 25v2c-14 5 -33 15 -47 49l-24 59c-6 14 -9 24 -19 38l-69 -53c-25 1 -42 12 -52 24c-11 12 -18 31 -18 49
c0 20 9 42 22 54c14 13 36 22 63 22c38 0 63 -14 79 -27c24 -20 38 -48 46 -67l31 -71c11 -25 20 -36 27 -42c14 -11 28 -11 41 -11h33v136l-13 13l-41 5v53h260v-53l-41 -5l-13 -13v-136h33c13 0 27 0 41 11c7 6 16 17 27 42l31 71c8 19 22 47 46 67c16 13 41 27 79 27
c27 0 49 -9 63 -22c13 -12 22 -34 22 -54c0 -18 -7 -37 -18 -49c-10 -12 -27 -23 -52 -24l-69 53c-10 -14 -13 -24 -19 -38l-24 -59c-14 -34 -33 -44 -47 -49v-2c10 -1 45 -4 77 -25c24 -16 38 -36 48 -56l50 -105l16 -10h50v-216h-88l-19 135l-17 17h-100v45l-45 128
c-5 14 -15 29 -25 37c-13 11 -28 12 -37 12h-23v-151l13 -13l41 -5v-53h-260z" />
    <glyph glyph-name="cyrZetail" unicode="&#x498;" horiz-adv-x="606" 
d="M186 300v84c11 -1 32 -2 50 -2c28 0 68 5 93 30c20 20 28 53 28 85c0 26 -5 60 -30 84s-58 27 -85 27c-24 0 -42 -2 -58 -6l-17 -16l-24 -123h-92v181c82 30 158 40 228 40c104 0 153 -20 175 -32c33 -17 85 -57 85 -137c0 -41 -15 -74 -46 -102
c-28 -25 -72 -45 -109 -53v-2c45 -1 100 -18 134 -47c21 -18 51 -55 51 -117c0 -48 -16 -111 -87 -156c-48 -30 -122 -46 -175 -50l19 -188h-136l19 188c-80 4 -152 27 -178 36v187h92l25 -130l16 -15c21 -3 38 -4 61 -4c40 0 86 4 118 31c37 30 41 75 41 99
c0 23 -3 52 -24 77c-28 33 -69 37 -97 37c-23 0 -52 -2 -77 -6z" />
    <glyph glyph-name="cyrzetail" unicode="&#x499;" horiz-adv-x="530" 
d="M164 223v68c13 -1 33 -3 47 -3c13 0 49 1 70 19c18 16 22 39 22 57c0 19 -3 37 -17 53c-19 22 -44 25 -68 25c-21 0 -46 -2 -74 -20l-13 -14l-11 -79h-80v153c83 17 125 26 189 26c32 0 139 0 195 -38c27 -18 51 -50 51 -94c0 -33 -16 -59 -35 -76
c-18 -16 -47 -30 -75 -36v-2c35 -2 70 -14 93 -30c31 -22 42 -52 42 -86c0 -48 -21 -98 -90 -128c-45 -20 -109 -27 -139 -29l18 -159h-122l18 160c-32 1 -83 6 -157 26v167h80l11 -91l11 -13c29 -18 53 -25 81 -25c12 0 46 1 71 19c24 18 31 42 31 67c0 21 -3 51 -30 71
c-19 14 -44 17 -62 17c-25 0 -52 -4 -57 -5z" />
    <glyph glyph-name="cyrKadesc" unicode="&#x49a;" horiz-adv-x="740" 
d="M28 0v58l66 4l16 19v513l-16 15l-66 4v58h334v-58l-58 -4l-16 -15v-214h45c14 0 38 1 58 17c18 14 29 37 39 60l40 96c14 34 30 74 66 103c23 19 49 29 83 29c44 0 68 -16 82 -31c12 -13 23 -32 23 -60c0 -48 -31 -88 -80 -94l-82 70c-13 -19 -15 -29 -21 -43l-32 -81
c-22 -55 -44 -79 -74 -92v-2c29 -5 57 -17 87 -43c35 -31 56 -69 67 -94l62 -135l20 -12h69v-248h-100l-26 164l-14 16h-122v39l-78 189c-8 20 -19 44 -35 59c-17 16 -36 19 -50 19h-27v-225l16 -19l58 -4v-58h-334z" />
    <glyph glyph-name="cyrkadesc" unicode="&#x49b;" horiz-adv-x="640" 
d="M30 0v53l54 5l11 13v351l-11 13l-54 5v53h296v-53l-51 -5l-13 -13v-136h47c13 0 27 0 41 11c7 6 16 17 27 42l31 71c8 19 22 47 46 67c20 17 46 27 79 27c29 0 52 -9 66 -22c11 -10 23 -28 23 -57c0 -19 -5 -34 -18 -49s-32 -25 -56 -25l-69 53c-10 -13 -13 -22 -19 -36
l-24 -57c-13 -30 -28 -43 -47 -49v-2c10 -1 45 -4 77 -25c24 -16 38 -36 48 -56l50 -105l16 -10h50v-216h-88l-19 135l-17 17h-100v45l-45 128c-5 14 -15 29 -25 37s-25 12 -37 12h-37v-151l13 -13l51 -5v-53h-296z" />
    <glyph glyph-name="cyrKavertbar" unicode="&#x49c;" horiz-adv-x="853" 
d="M28 0v58l66 4l16 19v513l-16 15l-66 4v58h334v-58l-58 -4l-16 -15v-214h80v136h78v-136c33 -1 54 14 58 17c18 14 29 37 39 60l40 96c14 34 30 74 66 103c23 19 49 29 83 29c44 0 68 -16 82 -31c12 -13 23 -32 23 -60c0 -48 -31 -88 -80 -94l-82 70
c-13 -19 -15 -29 -21 -43l-32 -81c-22 -55 -44 -79 -74 -92v-2c29 -5 57 -17 87 -43c35 -31 56 -69 67 -94l62 -135l19 -16l70 -6v-58h-262v39l-70 189c-7 18 -21 46 -34 59c-9 9 -23 17 -41 19v-142h-78v142h-80v-225l16 -19l58 -4v-58h-334z" />
    <glyph glyph-name="cyrkavertbar" unicode="&#x49d;" horiz-adv-x="710" 
d="M30 0v53l54 5l11 13v351l-11 13l-54 5v53h296v-53l-51 -5l-13 -13v-136h50v104h74v-104c8 0 21 1 33 11c13 11 21 27 28 42l31 71c8 19 22 47 46 67c20 17 46 27 79 27c29 0 52 -9 66 -22c11 -10 23 -28 23 -57c0 -19 -5 -34 -18 -49s-32 -25 -56 -25l-69 53
c-10 -13 -13 -22 -19 -36l-24 -57c-13 -30 -28 -43 -47 -49v-2c10 -1 45 -4 77 -25c24 -16 38 -36 48 -56l53 -111l13 -10l50 -5v-53h-224v45l-45 128c-8 24 -16 33 -20 37c-9 9 -19 11 -25 12v-122h-74v122h-50v-151l13 -13l51 -5v-53h-296z" />
    <glyph glyph-name="cyrKaback" unicode="&#x4a0;" horiz-adv-x="896" 
d="M149 0v58l66 4l16 19v522h-91l-17 -12l-20 -130h-90v210h470v-58l-58 -4l-16 -15v-214h45c14 0 38 1 58 17c18 14 29 37 39 60l40 96c14 34 30 74 66 103c23 19 49 29 83 29c44 0 68 -16 82 -31c12 -13 23 -32 23 -60c0 -48 -31 -88 -80 -94l-82 70
c-13 -19 -15 -29 -21 -43l-32 -81c-22 -55 -44 -79 -74 -92v-2c29 -5 57 -17 87 -43c35 -31 56 -69 67 -94l62 -135l19 -16l70 -6v-58h-262v39l-78 189c-8 20 -19 44 -35 59c-17 16 -36 19 -50 19h-27v-225l16 -19l58 -4v-58h-334z" />
    <glyph glyph-name="cyrkaback" unicode="&#x4a1;" horiz-adv-x="735" 
d="M115 0v53l61 5l14 13v358h-62l-17 -17l-9 -99h-90v180h409v-53l-51 -5l-13 -13v-136h47c13 0 27 0 41 11c7 6 16 17 27 42l31 71c8 19 22 47 46 67c20 17 46 27 79 27c29 0 52 -9 66 -22c11 -10 23 -28 23 -57c0 -19 -5 -34 -18 -49s-32 -25 -56 -25l-69 53
c-10 -13 -13 -22 -19 -36l-24 -57c-13 -30 -28 -43 -47 -49v-2c10 -1 45 -4 77 -25c24 -16 38 -36 48 -56l53 -111l13 -10l50 -5v-53h-224v45l-45 128c-5 14 -15 29 -25 37s-25 12 -37 12h-37v-151l13 -13l51 -5v-53h-306z" />
    <glyph glyph-name="cyrEndesc" unicode="&#x4a2;" horiz-adv-x="818" 
d="M28 671h332v-58l-60 -4l-16 -15v-205h250v205l-16 15l-60 4v58h332v-58l-62 -4l-16 -15v-514l12 -12h74v-248h-100l-26 164l-14 16h-200v58l60 4l16 19v234h-250v-234l16 -19l60 -4v-58h-332v58l61 4l17 19v513l-17 15l-61 4v58z" />
    <glyph glyph-name="cyrendesc" unicode="&#x4a3;" horiz-adv-x="704" 
d="M30 0v53l54 5l11 13v351l-11 13l-54 5v53h287v-53l-42 -5l-13 -13v-132h172v132l-13 13l-42 5v53h287v-53l-54 -5l-11 -13v-348l12 -10h69v-216h-88l-19 135l-17 17h-179v53l42 5l13 13v155h-172v-155l13 -13l42 -5v-53h-287z" />
    <glyph glyph-name="cyrEnGe" unicode="&#x4a4;" horiz-adv-x="944" 
d="M28 671h332v-58l-60 -4l-16 -15v-205h250v205l-16 15l-60 4v58h472v-201h-84l-21 121l-18 12h-95v-522l19 -19l67 -4v-58h-340v58l60 4l16 19v234h-250v-234l16 -19l60 -4v-58h-332v58l61 4l17 19v513l-17 15l-61 4v58z" />
    <glyph glyph-name="cyrenge" unicode="&#x4a5;" horiz-adv-x="791" 
d="M30 0v53l54 5l11 13v351l-11 13l-54 5v53h287v-53l-42 -5l-13 -13v-132h172v132l-13 13l-42 5v53h400v-180h-88l-11 99l-17 17h-62v-358l14 -13l61 -5v-53h-297v53l42 5l13 13v155h-172v-155l13 -13l42 -5v-53h-287z" />
    <glyph glyph-name="cyrEstail" unicode="&#x4aa;" horiz-adv-x="669" 
d="M638 211v-187c-50 -17 -114 -33 -181 -37l19 -187h-136l19 189c-73 5 -149 33 -212 92c-81 76 -108 173 -108 253c0 99 44 220 166 295c48 30 116 55 223 55c72 0 142 -14 210 -40v-181h-92l-24 123l-17 16c-12 3 -30 6 -52 6c-80 0 -127 -39 -144 -56
c-47 -46 -75 -122 -75 -215c0 -78 19 -149 57 -198c29 -36 81 -77 162 -77c18 0 41 3 52 4l16 15l25 130h92z" />
    <glyph glyph-name="cyrestail" unicode="&#x4ab;" horiz-adv-x="540" 
d="M349 322v132c-46 -5 -75 -29 -93 -52c-34 -44 -36 -107 -36 -133c0 -45 9 -84 31 -119c33 -51 79 -64 116 -64c11 0 28 1 51 7c33 9 79 29 107 44v-89c-46 -22 -84 -34 -99 -38c-29 -8 -55 -13 -81 -16l18 -164h-122l18 164c-63 4 -114 32 -150 68
c-40 40 -73 100 -73 181c0 80 31 144 76 188c33 32 101 77 216 77c74 0 121 -20 150 -43c35 -28 43 -60 43 -84c0 -31 -13 -49 -25 -60c-13 -12 -35 -23 -67 -23c-34 0 -63 14 -80 24z" />
    <glyph glyph-name="cyrstraightU" unicode="&#x4ae;" horiz-adv-x="671" 
d="M-10 671h324v-58l-58 -4l-10 -15l130 -234l125 226l-8 18l-60 9v58h240v-58l-61 -9l-182 -312v-214l16 -15l71 -5v-58h-349v58l68 5l16 15v177l-194 348l-68 10v58z" />
    <glyph glyph-name="cyrstraightu" unicode="&#x4af;" horiz-adv-x="565" 
d="M-8 493h301v-56l-55 -4l-9 -11l97 -260l105 260l-6 11l-51 4v56h209v-56l-60 -4l-156 -381v-201l14 -13l61 -5v-53h-317v53l62 5l13 13v201l-147 381l-61 4v56z" />
    <glyph glyph-name="cyrstraightUbar" unicode="&#x4b0;" horiz-adv-x="671" 
d="M-10 671h324v-58l-58 -4l-10 -15l130 -234l125 226l-8 18l-60 9v58h240v-58l-61 -9l-182 -312v-37h140v-74h-140v-103l16 -15l71 -5v-58h-349v58l68 5l16 15v103h-140v74h140l-194 348l-68 10v58z" />
    <glyph glyph-name="cyrstraightubar" unicode="&#x4b1;" horiz-adv-x="565" 
d="M-8 493h301v-56l-55 -4l-9 -11l97 -260l105 260l-6 11l-51 4v56h209v-56l-60 -4l-152 -363h136v-70h-140v-149l14 -13l61 -5v-53h-317v53l62 5l13 13v149h-140v70h136l-143 363l-61 4v56z" />
    <glyph glyph-name="cyrHadesc" unicode="&#x4b2;" horiz-adv-x="713" 
d="M16 671h335v-58l-63 -4l-8 -11l104 -168l125 164l-9 15l-53 4v58h250v-58l-63 -4l-197 -242l193 -287l20 -12h55v-248h-100l-26 164l-14 16h-197v58l60 4l7 15l-110 174l-131 -174l6 -15l64 -4v-58h-257v58l65 4l197 253l-190 294l-63 4v58z" />
    <glyph glyph-name="cyrhadesc" unicode="&#x4b3;" horiz-adv-x="593" 
d="M9 493h276v-46l-31 -7l-4 -12l80 -109l82 114l-42 9v51h194v-56l-58 -4l-129 -155l148 -204l16 -10h43v-216h-88l-19 135l-17 17h-141v42l30 11l4 10l-88 121l-91 -126l41 -7v-51h-206v53l65 12l141 166l-150 202l-56 4v56z" />
    <glyph glyph-name="cyrChedesc" unicode="&#x4b6;" horiz-adv-x="754" 
d="M12 671h312v-58l-54 -4l-16 -15v-134c0 -58 14 -81 21 -89c13 -16 37 -31 81 -31c9 0 57 1 114 23v231l-17 15l-55 4v58h328v-58l-62 -4l-16 -15v-514l12 -12h74v-248h-100l-26 164l-14 16h-213v58l74 4l15 19v208c-78 -18 -130 -23 -169 -23c-81 0 -145 20 -180 60
c-37 42 -37 89 -37 137v131l-17 15l-55 4v58z" />
    <glyph glyph-name="cyrchedesc" unicode="&#x4b7;" horiz-adv-x="646" 
d="M9 493h263v-53l-35 -5l-13 -12v-100c0 -14 2 -32 15 -47c9 -10 27 -20 56 -20c24 0 55 7 81 20v147l-13 12l-35 5v53h280v-53l-54 -5l-11 -13v-348l12 -10h69v-216h-88l-19 135l-17 17h-199v53l61 5l14 13v141c-56 -15 -94 -20 -137 -20s-97 5 -137 36s-45 66 -45 95v100
l-13 12l-35 5v53z" />
    <glyph glyph-name="cyrChevertbar" unicode="&#x4b8;" horiz-adv-x="814" 
d="M12 671h312v-58l-54 -4l-16 -15v-134c0 -59 15 -81 21 -89c15 -19 46 -33 81 -31v166h78v-161c35 4 67 11 96 19v230l-17 15l-55 4v58h328v-58l-62 -4l-16 -15v-513l16 -19l62 -4v-58h-345v58l74 4l15 19v210c-34 -8 -66 -13 -96 -16v-121h-78v114
c-111 -10 -193 11 -235 58c-37 42 -37 89 -37 137v131l-17 15l-55 4v58z" />
    <glyph glyph-name="cyrchevertbar" unicode="&#x4b9;" horiz-adv-x="694" 
d="M9 493h263v-53l-35 -5l-13 -12v-100c0 -14 2 -33 15 -47c12 -13 32 -21 53 -19v113h74v-108c23 3 46 8 68 14v147l-13 12l-35 5v53h280v-53l-54 -5l-11 -13v-351l11 -13l54 -5v-53h-307v53l61 5l14 13v141c-23 -4 -46 -8 -68 -11v-101h-74v94c-104 -10 -158 10 -190 34
c-36 28 -45 58 -45 95v100l-13 12l-35 5v53z" />
    <glyph glyph-name="cyrH" unicode="&#x4ba;" horiz-adv-x="754" 
d="M742 0h-312v58l54 4l16 19v130c0 58 -14 81 -21 89c-13 16 -37 31 -81 31c-9 0 -57 -1 -114 -23v-227l17 -19l55 -4v-58h-328v58l62 4l16 19v513l-16 15l-62 4v58h345v-58l-74 -4l-15 -15v-212c78 18 130 23 169 23c81 0 145 -20 180 -60c37 -42 37 -89 37 -137v-127
l17 -19l55 -4v-58z" />
    <glyph glyph-name="cyrh" unicode="&#x4bb;" horiz-adv-x="674" 
d="M200 743h58v-301c36 20 90 45 133 57c24 7 43 9 61 9c47 0 86 -14 110 -49c27 -38 31 -93 31 -134v-254l11 -13l54 -5v-53h-283v53l40 5l11 13v213c0 29 -1 68 -24 91s-68 24 -93 24c-20 0 -34 -1 -51 -3v-325l14 -13l42 -5v-53h-286v53l51 5l12 13v566h-71v48z" />
    <glyph glyph-name="cyrI" unicode="&#x4c0;" horiz-adv-x="351" 
d="M20 0v53l58 5l13 13v529l-13 13l-58 5v53h313v-53l-61 -5l-14 -13v-529l14 -13l61 -5v-53h-313z" />
    <glyph glyph-name="cyrKahook" unicode="&#x4c3;" horiz-adv-x="750" 
d="M28 0v58l66 4l16 19v513l-16 15l-66 4v58h334v-58l-58 -4l-16 -15v-214h45c14 0 38 1 58 17c18 14 29 37 39 60l40 96c14 34 30 74 66 103c23 19 49 29 83 29c44 0 68 -16 82 -31c12 -13 23 -32 23 -60c0 -48 -31 -88 -80 -94l-82 70c-13 -19 -15 -29 -21 -43l-32 -81
c-22 -55 -44 -79 -74 -92v-2c39 -4 104 -16 153 -41c66 -34 128 -99 128 -218c0 -110 -43 -182 -76 -218c-49 -55 -130 -92 -209 -92c-32 0 -65 7 -87 21c-30 20 -36 48 -36 68c0 46 35 82 84 84l106 -124c10 26 15 49 19 80c5 38 9 93 9 125c0 99 -25 176 -77 221
c-27 23 -73 48 -141 48h-20v-225l16 -19l58 -4v-58h-334z" />
    <glyph glyph-name="cyrkahook" unicode="&#x4c4;" horiz-adv-x="640" 
d="M30 0v53l54 5l11 13v351l-11 13l-54 5v53h296v-53l-51 -5l-13 -13v-136h47c13 0 27 0 41 11c7 6 16 17 27 42l31 71c8 19 22 47 46 67c20 17 46 27 79 27c29 0 52 -9 66 -22c11 -10 23 -28 23 -57c0 -19 -5 -34 -18 -49s-32 -25 -56 -25l-69 53c-10 -13 -13 -22 -19 -36
l-24 -57c-13 -30 -28 -43 -47 -49v-2c47 -5 99 -21 133 -44s89 -75 89 -174c0 -50 -14 -135 -72 -190c-43 -41 -116 -69 -200 -69c-25 0 -61 4 -87 21c-30 20 -36 48 -36 68c0 46 35 82 84 84l106 -124c8 20 16 44 21 74c4 25 7 76 7 101c0 65 -18 138 -51 174
c-22 24 -60 41 -97 41h-24v-151l14 -13l42 -5v-53h-288z" />
    <glyph glyph-name="cyrEnhook" unicode="&#x4c7;" horiz-adv-x="818" 
d="M28 671h332v-58l-60 -4l-16 -15v-205h250v205l-16 15l-60 4v58h332v-58l-62 -4l-16 -15v-482c0 -67 -7 -151 -50 -220c-53 -86 -137 -109 -210 -109c-16 0 -58 2 -87 21c-30 20 -36 48 -36 68c0 46 35 82 84 84l106 -124c12 65 15 121 15 192v291h-250v-234l16 -19l60 -4
v-58h-332v58l61 4l17 19v513l-17 15l-61 4v58z" />
    <glyph glyph-name="cyrenhook" unicode="&#x4c8;" horiz-adv-x="696" 
d="M30 0v53l54 5l11 13v351l-11 13l-54 5v53h287v-53l-42 -5l-13 -13v-132h172v132l-13 13l-42 5v53h287v-53l-54 -5l-11 -13v-310c0 -66 -8 -151 -48 -220c-50 -86 -131 -109 -201 -109c-16 0 -58 2 -87 21c-30 20 -36 48 -36 68c0 46 35 82 84 84l106 -124
c12 65 15 121 15 192v202h-172v-155l13 -13l42 -5v-53h-287z" />
    <glyph glyph-name="cyrAcyrbreve" unicode="&#x4d0;" horiz-adv-x="701" 
d="M278 676h144l232 -610l61 -8v-58h-324v58l68 5l8 13l-53 149h-213l-50 -148l10 -12l64 -7v-58h-241v58l65 4zM304 513l-79 -221h160zM190 890h62c0 -12 3 -29 8 -40c16 -35 56 -37 86 -37c45 0 87 2 102 37c5 11 7 28 6 40h62v-12c0 -21 -2 -62 -22 -92
c-29 -43 -81 -52 -143 -52c-56 0 -110 9 -139 52c-19 28 -22 63 -22 89v15z" />
    <glyph glyph-name="cyracyrbreve" unicode="&#x4d1;" horiz-adv-x="619" 
d="M236 448v-104h-119c-33 0 -45 7 -49 11c-10 8 -11 19 -11 28c0 21 11 58 75 89c54 26 119 36 183 36c53 0 124 -8 171 -51c44 -41 44 -87 44 -161v-225l11 -13l55 -5v-53h-221l-14 56c-25 -16 -57 -34 -84 -46c-28 -12 -60 -23 -99 -23c-42 0 -80 15 -105 39
c-23 22 -40 58 -40 98c0 31 9 81 59 116c40 28 95 41 136 51c49 12 101 23 135 30v29c0 22 -4 55 -30 76c-23 19 -70 23 -97 22zM363 105v150c-58 -8 -86 -18 -93 -21c-24 -9 -58 -29 -58 -77c0 -28 13 -46 24 -55c13 -10 31 -16 53 -16c23 0 50 9 74 19zM149 730l62 -2
c0 -12 3 -33 8 -45c15 -35 56 -37 86 -37c44 0 88 2 102 37c5 12 6 33 6 45l62 2v-19c0 -21 -2 -62 -22 -92c-29 -43 -81 -52 -143 -52c-56 0 -110 9 -139 52c-19 28 -22 63 -22 89v22z" />
    <glyph glyph-name="cyrAdieresis" unicode="&#x4d2;" horiz-adv-x="701" 
d="M278 676h144l232 -610l61 -8v-58h-324v58l68 5l8 13l-53 149h-213l-50 -148l10 -12l64 -7v-58h-241v58l65 4zM304 513l-79 -221h160zM160 820c0 42 34 76 76 76s76 -34 76 -76s-34 -76 -76 -76s-76 34 -76 76zM388 820c0 42 34 76 76 76s76 -34 76 -76s-34 -76 -76 -76
s-76 34 -76 76z" />
    <glyph glyph-name="cyradieresis" unicode="&#x4d3;" horiz-adv-x="619" 
d="M236 448v-104h-119c-33 0 -45 7 -49 11c-10 8 -11 19 -11 28c0 21 11 58 75 89c54 26 119 36 183 36c53 0 124 -8 171 -51c44 -41 44 -87 44 -161v-225l11 -13l55 -5v-53h-221l-14 56c-25 -16 -57 -34 -84 -46c-28 -12 -60 -23 -99 -23c-42 0 -80 15 -105 39
c-23 22 -40 58 -40 98c0 31 9 81 59 116c40 28 95 41 136 51c49 12 101 23 135 30v29c0 22 -4 55 -30 76c-23 19 -70 23 -97 22zM363 105v150c-58 -8 -86 -18 -93 -21c-24 -9 -58 -29 -58 -77c0 -28 13 -46 24 -55c13 -10 31 -16 53 -16c23 0 50 9 74 19zM195 729
c40 0 76 -33 76 -81c0 -44 -31 -80 -76 -80c-44 0 -76 36 -76 80c0 46 35 81 76 81zM423 729c40 0 76 -33 76 -81c0 -44 -31 -80 -76 -80c-44 0 -76 36 -76 80c0 46 35 81 76 81z" />
    <glyph glyph-name="cyrAE" unicode="&#x4d4;" horiz-adv-x="954" 
d="M249 671h641v-167h-85l-16 89l-14 11h-178v-222h105l15 14l10 72h70v-246h-70l-10 72l-15 14h-105v-241h209l14 16l18 111h83v-194h-581v58l67 4l16 19v157h-225l-95 -161l10 -12l58 -7v-58h-237v58l66 4l321 532l-13 15l-59 4v58zM423 609l-179 -299h179v299z" />
    <glyph glyph-name="cyrIecyrbreve" unicode="&#x4d6;" horiz-adv-x="643" 
d="M28 0v58l67 4l16 19v513l-16 15l-67 4v58h550v-167h-86l-16 88l-14 11h-177v-221h105l15 14l10 72h71v-246h-71l-10 72l-15 14h-105v-240h208l14 16l16 110h86v-194h-581zM161 890h62c0 -12 3 -29 8 -40c16 -35 56 -37 86 -37c45 0 87 2 102 37c5 11 7 28 6 40h62v-12
c0 -21 -2 -62 -22 -92c-29 -43 -81 -52 -143 -52c-56 0 -110 9 -139 52c-19 28 -22 63 -22 89v15z" />
    <glyph glyph-name="cyriecyrbreve" unicode="&#x4d7;" horiz-adv-x="585" 
d="M552 141v-92c-29 -14 -56 -25 -86 -34c-48 -15 -91 -23 -150 -23c-52 0 -130 8 -192 57c-43 33 -88 94 -88 197c0 109 49 170 87 201c40 33 100 61 190 61c73 0 144 -21 192 -82c44 -56 50 -124 50 -165v-14h-345c1 -41 15 -86 36 -112c33 -41 81 -47 118 -47
c41 0 76 7 111 19c24 8 54 22 77 34zM214 310h163c-2 76 -16 101 -22 109c-17 23 -39 26 -55 26c-23 0 -42 -5 -59 -26c-20 -25 -25 -61 -27 -109zM140 730l62 -2c0 -12 3 -33 8 -45c15 -35 56 -37 86 -37c44 0 88 2 102 37c5 12 6 33 6 45l62 2v-19c0 -21 -2 -62 -22 -92
c-29 -43 -81 -52 -143 -52c-56 0 -110 9 -139 52c-19 28 -22 63 -22 89v22z" />
    <glyph glyph-name="cyrinvE" unicode="&#x4d8;" horiz-adv-x="758" 
d="M95 468v181c106 22 186 36 274 36c98 0 159 -20 222 -72c106 -87 128 -208 128 -282c0 -114 -50 -201 -102 -253c-82 -82 -177 -95 -262 -95c-50 0 -161 4 -241 99c-64 77 -83 197 -71 283h486c1 55 -15 141 -57 190c-39 46 -88 56 -135 56c-39 0 -78 -6 -109 -14
l-19 -16l-22 -113h-92zM529 291h-314c-2 -48 7 -109 25 -146c28 -58 79 -86 127 -86c25 0 80 8 120 73c27 44 41 108 42 159z" />
    <glyph glyph-name="cyrinve" unicode="&#x4d9;" horiz-adv-x="585" 
d="M43 359v92c31 14 59 25 90 34c49 15 93 23 150 23c58 0 127 -9 184 -57c40 -34 82 -94 82 -197c0 -96 -37 -160 -87 -201c-40 -33 -100 -61 -190 -61c-73 0 -144 21 -192 82c-44 56 -50 124 -50 165v34h343c1 34 -10 73 -29 98c-29 37 -70 41 -103 41
c-42 0 -80 -7 -117 -19c-24 -8 -57 -22 -81 -34zM373 210h-167c0 -28 3 -60 9 -84c14 -59 44 -71 72 -71c26 0 59 10 75 72c7 28 10 60 11 83z" />
    <glyph glyph-name="cyrinvEdieresis" unicode="&#x4da;" horiz-adv-x="758" 
d="M95 468v181c106 22 186 36 274 36c98 0 159 -20 222 -72c106 -87 128 -208 128 -282c0 -114 -50 -201 -102 -253c-82 -82 -177 -95 -262 -95c-50 0 -161 4 -241 99c-64 77 -83 197 -71 283h486c1 55 -15 141 -57 190c-39 46 -88 56 -135 56c-39 0 -78 -6 -109 -14
l-19 -16l-22 -113h-92zM529 291h-314c-2 -48 7 -109 25 -146c28 -58 79 -86 127 -86c25 0 80 8 120 73c27 44 41 108 42 159zM180 820c0 42 34 76 76 76s76 -34 76 -76s-34 -76 -76 -76s-76 34 -76 76zM408 820c0 42 34 76 76 76s76 -34 76 -76s-34 -76 -76 -76
s-76 34 -76 76z" />
    <glyph glyph-name="cyrinvedieresis" unicode="&#x4db;" horiz-adv-x="585" 
d="M43 359v92c31 14 59 25 90 34c49 15 93 23 150 23c58 0 127 -9 184 -57c40 -34 82 -94 82 -197c0 -96 -37 -160 -87 -201c-40 -33 -100 -61 -190 -61c-73 0 -144 21 -192 82c-44 56 -50 124 -50 165v34h343c1 34 -10 73 -29 98c-29 37 -70 41 -103 41
c-42 0 -80 -7 -117 -19c-24 -8 -57 -22 -81 -34zM373 210h-167c0 -28 3 -60 9 -84c14 -59 44 -71 72 -71c26 0 59 10 75 72c7 28 10 60 11 83zM178 729c40 0 76 -33 76 -81c0 -44 -31 -80 -76 -80c-44 0 -76 36 -76 80c0 46 35 81 76 81zM406 729c40 0 76 -33 76 -81
c0 -44 -31 -80 -76 -80c-44 0 -76 36 -76 80c0 46 35 81 76 81z" />
    <glyph glyph-name="cyrZhedieresis" unicode="&#x4dc;" horiz-adv-x="1020" 
d="M349 671h322v-58l-60 -4l-16 -15v-214h30c17 0 35 1 54 17s30 42 37 60l37 96c15 39 32 77 63 103c18 15 46 29 85 29c42 0 66 -16 79 -31c11 -12 22 -32 22 -60c0 -48 -31 -88 -80 -94l-80 70c-9 -16 -13 -26 -19 -43l-28 -81c-19 -56 -42 -79 -70 -92v-2
c24 -2 63 -10 99 -43c30 -27 47 -62 60 -94l53 -135l19 -16l70 -6v-58h-254v44l-66 184c-6 17 -17 43 -35 59c-15 14 -32 19 -50 19h-26v-225l16 -19l60 -4v-58h-322v58l60 4l16 19v225h-26c-18 0 -35 -5 -50 -19c-18 -16 -29 -42 -35 -59l-66 -184v-44h-254v58l70 6l19 16
l53 135c13 32 30 67 60 94c36 33 75 41 99 43v2c-28 13 -51 36 -70 92l-28 81c-6 17 -10 27 -19 43l-80 -70c-49 6 -80 46 -80 94c0 28 11 48 22 60c13 15 37 31 79 31c35 0 61 -10 85 -30c37 -30 49 -65 63 -102l37 -96c7 -18 18 -44 37 -60s37 -17 54 -17h30v214l-16 15
l-60 4v58zM320 820c0 42 34 76 76 76s76 -34 76 -76s-34 -76 -76 -76s-76 34 -76 76zM548 820c0 42 34 76 76 76s76 -34 76 -76s-34 -76 -76 -76s-76 34 -76 76z" />
    <glyph glyph-name="cyrzhedieresis" unicode="&#x4dd;" horiz-adv-x="880" 
d="M310 0v53l41 5l13 13v151h-23c-9 0 -24 -1 -37 -12c-10 -8 -20 -23 -25 -37l-45 -128v-45h-224v53l50 5l13 10l53 111c10 20 24 40 48 56c32 21 67 24 77 25v2c-14 5 -33 15 -47 49l-24 59c-6 14 -9 24 -19 38l-69 -53c-25 1 -42 12 -52 24c-11 12 -18 31 -18 49
c0 20 9 42 22 54c14 13 36 22 63 22c38 0 63 -14 79 -27c24 -20 38 -48 46 -67l31 -71c11 -25 20 -36 27 -42c14 -11 28 -11 41 -11h33v136l-13 13l-41 5v53h260v-53l-41 -5l-13 -13v-136h33c13 0 27 0 41 11c7 6 16 17 27 42l31 71c8 19 22 47 46 67c16 13 41 27 79 27
c27 0 49 -9 63 -22c13 -12 22 -34 22 -54c0 -18 -7 -37 -18 -49c-10 -12 -27 -23 -52 -24l-69 53c-10 -14 -13 -24 -19 -38l-24 -59c-14 -34 -33 -44 -47 -49v-2c10 -1 45 -4 77 -25c24 -16 38 -36 48 -56l53 -111l13 -10l50 -5v-53h-224v45l-45 128c-5 14 -15 29 -25 37
c-13 11 -28 12 -37 12h-23v-151l13 -13l41 -5v-53h-260zM326 729c40 0 76 -33 76 -81c0 -44 -31 -80 -76 -80c-44 0 -76 36 -76 80c0 46 35 81 76 81zM554 729c40 0 76 -33 76 -81c0 -44 -31 -80 -76 -80c-44 0 -76 36 -76 80c0 46 35 81 76 81z" />
    <glyph glyph-name="cyrZedieresis" unicode="&#x4de;" horiz-adv-x="606" 
d="M186 300v84c11 -1 32 -2 50 -2c28 0 68 5 93 30c20 20 28 53 28 85c0 26 -5 60 -30 84s-58 27 -85 27c-24 0 -42 -2 -58 -6l-17 -16l-24 -123h-92v181c82 30 158 40 228 40c104 0 153 -20 175 -32c33 -17 85 -57 85 -137c0 -41 -15 -74 -46 -102
c-28 -25 -72 -45 -109 -53v-2c45 -1 100 -18 134 -47c21 -18 51 -55 51 -117c0 -48 -16 -111 -87 -156c-62 -39 -159 -52 -229 -52c-100 0 -183 25 -222 38v187h92l25 -130l16 -15c21 -3 38 -4 61 -4c40 0 86 4 118 31c37 30 41 75 41 99c0 23 -3 52 -24 77
c-28 33 -69 37 -97 37c-23 0 -52 -2 -77 -6zM90 820c0 42 34 76 76 76s76 -34 76 -76s-34 -76 -76 -76s-76 34 -76 76zM318 820c0 42 34 76 76 76s76 -34 76 -76s-34 -76 -76 -76s-76 34 -76 76z" />
    <glyph glyph-name="cyrzedieresis" unicode="&#x4df;" horiz-adv-x="530" 
d="M164 223v68c13 -1 33 -3 47 -3c13 0 49 1 70 19c18 16 22 39 22 57c0 19 -3 37 -17 53c-19 22 -44 25 -68 25c-21 0 -46 -2 -74 -20l-13 -14l-11 -79h-80v153c83 17 125 26 189 26c32 0 139 0 195 -38c27 -18 51 -50 51 -94c0 -33 -16 -59 -35 -76
c-18 -16 -47 -30 -75 -36v-2c35 -2 70 -14 93 -30c31 -22 42 -52 42 -86c0 -48 -21 -97 -90 -128c-50 -22 -131 -30 -190 -30c-22 0 -53 2 -76 5c-12 1 -58 7 -116 23v167h80l11 -91l11 -13c29 -18 53 -25 81 -25c12 0 46 1 71 19c24 18 31 42 31 67c0 21 -3 51 -30 71
c-19 14 -44 17 -62 17c-25 0 -52 -4 -57 -5zM126 729c40 0 76 -33 76 -81c0 -44 -31 -80 -76 -80c-44 0 -76 36 -76 80c0 46 35 81 76 81zM354 729c40 0 76 -33 76 -81c0 -44 -31 -80 -76 -80c-44 0 -76 36 -76 80c0 46 35 81 76 81z" />
    <glyph glyph-name="cyrImacron" unicode="&#x4e2;" horiz-adv-x="834" 
d="M28 671h332v-58l-60 -4l-16 -15v-369l266 341v28l-16 15l-60 4v58h332v-58l-62 -4l-16 -15v-513l16 -19l62 -4v-58h-332v58l60 4l16 19v377l-266 -341v-36l16 -19l60 -4v-58h-332v58l61 4l17 19v513l-17 15l-61 4v58zM236 862h361v-83h-361v83z" />
    <glyph glyph-name="cyrimacron" unicode="&#x4e3;" horiz-adv-x="710" 
d="M30 0v53l54 5l11 13v351l-11 13l-54 5v53h292v-53l-47 -5l-13 -13v-234l186 211v23l-13 13l-47 5v53h292v-53l-54 -5l-11 -13v-351l11 -13l54 -5v-53h-292v53l47 5l13 13v236l-186 -211v-25l13 -13l47 -5v-53h-292zM174 683h361v-83h-361v83z" />
    <glyph glyph-name="cyrIdieresis" unicode="&#x4e4;" horiz-adv-x="834" 
d="M28 671h332v-58l-60 -4l-16 -15v-369l266 341v28l-16 15l-60 4v58h332v-58l-62 -4l-16 -15v-513l16 -19l62 -4v-58h-332v58l60 4l16 19v377l-266 -341v-36l16 -19l60 -4v-58h-332v58l61 4l17 19v513l-17 15l-61 4v58zM227 820c0 42 34 76 76 76s76 -34 76 -76
s-34 -76 -76 -76s-76 34 -76 76zM455 820c0 42 34 76 76 76s76 -34 76 -76s-34 -76 -76 -76s-76 34 -76 76z" />
    <glyph glyph-name="cyridieresis" unicode="&#x4e5;" horiz-adv-x="710" 
d="M30 0v53l54 5l11 13v351l-11 13l-54 5v53h292v-53l-47 -5l-13 -13v-234l186 211v23l-13 13l-47 5v53h292v-53l-54 -5l-11 -13v-351l11 -13l54 -5v-53h-292v53l47 5l13 13v236l-186 -211v-25l13 -13l47 -5v-53h-292zM241 729c40 0 76 -33 76 -81c0 -44 -31 -80 -76 -80
c-44 0 -76 36 -76 80c0 46 35 81 76 81zM469 729c40 0 76 -33 76 -81c0 -44 -31 -80 -76 -80c-44 0 -76 36 -76 80c0 46 35 81 76 81z" />
    <glyph glyph-name="cyrOdieresis" unicode="&#x4e6;" horiz-adv-x="815" 
d="M411 685c80 0 159 -19 230 -71c93 -69 135 -173 135 -278c0 -98 -36 -198 -121 -268c-63 -52 -151 -85 -254 -85c-94 0 -177 28 -238 77c-66 53 -124 145 -124 278c0 72 18 191 124 272c55 42 138 75 248 75zM406 609c-33 0 -75 -12 -110 -58c-38 -51 -57 -131 -57 -219
c0 -103 26 -172 59 -215c34 -44 75 -58 111 -58c31 0 73 11 107 54c42 54 60 141 60 227c0 105 -26 170 -53 207c-40 55 -89 62 -117 62zM217 820c0 42 34 76 76 76s76 -34 76 -76s-34 -76 -76 -76s-76 34 -76 76zM445 820c0 42 34 76 76 76s76 -34 76 -76s-34 -76 -76 -76
s-76 34 -76 76z" />
    <glyph glyph-name="cyrodieresis" unicode="&#x4e7;" horiz-adv-x="648" 
d="M333 508c55 0 129 -8 190 -57c55 -44 89 -110 89 -204c0 -84 -28 -144 -74 -186c-47 -43 -117 -69 -214 -69c-61 0 -150 10 -215 70c-49 45 -73 106 -73 185c0 78 22 147 82 197c38 32 105 64 215 64zM325 445c-35 0 -61 -15 -79 -52c-9 -18 -23 -57 -23 -143
c0 -79 11 -119 22 -142c13 -27 36 -53 80 -53c48 0 70 31 81 58c8 18 19 55 19 134c0 97 -17 136 -25 151c-15 28 -37 47 -75 47zM210 729c40 0 76 -33 76 -81c0 -44 -31 -80 -76 -80c-44 0 -76 36 -76 80c0 46 35 81 76 81zM438 729c40 0 76 -33 76 -81
c0 -44 -31 -80 -76 -80c-44 0 -76 36 -76 80c0 46 35 81 76 81z" />
    <glyph glyph-name="cyrObar" unicode="&#x4e8;" horiz-adv-x="815" 
d="M411 685c80 0 159 -19 230 -71c93 -69 135 -173 135 -278c0 -98 -36 -198 -121 -268c-63 -52 -151 -85 -254 -85c-94 0 -177 28 -238 77c-66 53 -124 145 -124 278c0 72 18 191 124 272c55 42 138 75 248 75zM241 377h334c-2 59 -23 130 -52 170c-39 55 -90 62 -117 62
c-41 0 -79 -18 -110 -58c-36 -47 -54 -118 -55 -174zM575 303h-335c0 -62 20 -137 58 -186c34 -45 75 -58 110 -58c32 0 74 11 108 54c39 49 58 132 59 190z" />
    <glyph glyph-name="cyrobar" unicode="&#x4e9;" horiz-adv-x="648" 
d="M333 508c55 0 129 -8 190 -57c55 -44 89 -110 89 -204c0 -84 -28 -144 -74 -186c-47 -43 -117 -69 -214 -69c-61 0 -150 10 -215 70c-49 45 -73 106 -73 185c0 78 22 147 82 197c38 32 105 64 215 64zM225 286h199c-1 34 -9 83 -24 112c-15 28 -37 47 -75 47
c-35 0 -61 -15 -79 -52c-14 -28 -21 -71 -21 -107zM425 222h-201c0 -37 7 -84 21 -114c13 -27 36 -53 80 -53c48 0 70 31 81 58c12 29 18 75 19 109z" />
    </font>
</defs>
</svg>
